<svg width="712" height="359" viewBox="0 0 712 359" fill="none" xmlns="http://www.w3.org/2000/svg">
<rect y="8" width="698" height="351" fill="white"/>
<path d="M509.299 85.5L520.619 88.2154L512.564 96.482L509.299 85.5ZM599.118 169.855L598.42 170.571L515.164 92.3798L515.862 91.6638L516.56 90.9479L599.815 169.139L599.118 169.855Z" fill="black"/>
<path d="M582.179 102.38L583.763 93.0126H586.986C587.732 93.0126 588.32 93.1438 588.752 93.406C589.187 93.6682 589.48 94.0234 589.633 94.4717C589.788 94.9199 589.819 95.4215 589.726 95.9764C589.633 96.5253 589.432 97.0253 589.125 97.4766C588.82 97.9279 588.407 98.2877 587.886 98.556C587.367 98.8244 586.738 98.9585 585.999 98.9585H583.688L583.856 97.9523H586.129C586.639 97.9523 587.064 97.8654 587.406 97.6916C587.747 97.5178 588.015 97.2815 588.207 96.9827C588.4 96.6838 588.527 96.3484 588.589 95.9764C588.651 95.5983 588.636 95.2629 588.543 94.9702C588.452 94.6744 588.265 94.4427 587.979 94.275C587.696 94.1042 587.297 94.0189 586.781 94.0189H584.75L583.334 102.38H582.179ZM590.344 102.38L591.537 95.3544H592.599L592.413 96.4155H592.487C592.674 96.0679 592.958 95.7859 593.34 95.5694C593.722 95.3529 594.127 95.2446 594.556 95.2446C594.64 95.2446 594.741 95.2462 594.859 95.2492C594.977 95.2492 595.068 95.2538 595.134 95.2629L594.947 96.3606C594.91 96.3515 594.826 96.3378 594.696 96.3195C594.565 96.2981 594.425 96.2874 594.276 96.2874C593.928 96.2874 593.607 96.3591 593.312 96.5024C593.017 96.6427 592.77 96.8378 592.571 97.0879C592.372 97.3348 592.245 97.6169 592.189 97.934L591.444 102.38H590.344ZM597.987 102.526C597.329 102.526 596.777 102.372 596.333 102.064C595.889 101.756 595.575 101.325 595.392 100.77C595.212 100.215 595.182 99.5683 595.304 98.8304C595.422 98.1108 595.656 97.4842 596.007 96.9506C596.361 96.414 596.801 95.9993 597.326 95.7066C597.854 95.4108 598.434 95.2629 599.068 95.2629C599.726 95.2629 600.276 95.4184 600.717 95.7294C601.161 96.0374 601.475 96.4704 601.658 97.0284C601.841 97.5833 601.873 98.2328 601.751 98.9768C601.633 99.6903 601.396 100.314 601.039 100.847C600.685 101.378 600.245 101.791 599.72 102.087C599.198 102.38 598.621 102.526 597.987 102.526ZM598.006 101.556C598.509 101.556 598.945 101.43 599.315 101.177C599.688 100.924 599.989 100.59 600.219 100.175C600.452 99.7604 600.608 99.3122 600.689 98.8304C600.764 98.3731 600.761 97.9477 600.68 97.5544C600.599 97.158 600.427 96.8393 600.163 96.5985C599.899 96.3545 599.528 96.2326 599.049 96.2326C598.546 96.2326 598.107 96.3606 597.731 96.6168C597.358 96.8729 597.057 97.2098 596.827 97.6276C596.597 98.0453 596.443 98.495 596.366 98.9768C596.291 99.4342 596.293 99.8595 596.37 100.253C596.451 100.643 596.624 100.959 596.888 101.2C597.155 101.437 597.527 101.556 598.006 101.556ZM609.649 95.3544L605.81 102.38H604.692L603.239 95.3544H604.385L605.41 100.953H605.484L608.41 95.3544H609.649ZM609.908 102.38L611.1 95.3544H612.2L611.007 102.38H609.908ZM611.986 94.1652C611.771 94.1652 611.587 94.0936 611.431 93.9503C611.279 93.8069 611.203 93.6347 611.203 93.4334C611.203 93.2322 611.279 93.0599 611.431 92.9166C611.587 92.7733 611.771 92.7016 611.986 92.7016C612.2 92.7016 612.383 92.7733 612.535 92.9166C612.691 93.0599 612.768 93.2322 612.768 93.4334C612.768 93.6347 612.691 93.8069 612.535 93.9503C612.383 94.0936 612.2 94.1652 611.986 94.1652ZM615.714 102.526C615.114 102.526 614.611 102.378 614.204 102.082C613.798 101.784 613.51 101.363 613.343 100.82C613.178 100.274 613.158 99.6293 613.282 98.8853C613.409 98.1474 613.647 97.5071 613.995 96.9644C614.346 96.4216 614.776 96.0023 615.285 95.7066C615.795 95.4108 616.351 95.2629 616.953 95.2629C617.419 95.2629 617.775 95.3392 618.02 95.4916C618.268 95.641 618.449 95.8118 618.56 96.0039C618.672 96.1929 618.758 96.3484 618.817 96.4704H618.91L619.497 93.0126H620.596L619.012 102.38H617.95L618.136 101.3H618.006C617.904 101.428 617.761 101.59 617.577 101.785C617.394 101.977 617.152 102.149 616.851 102.302C616.552 102.451 616.174 102.526 615.714 102.526ZM615.984 101.556C616.425 101.556 616.82 101.444 617.167 101.218C617.518 100.989 617.81 100.674 618.043 100.271C618.276 99.8656 618.438 99.3976 618.528 98.867C618.618 98.3426 618.615 97.8837 618.518 97.4903C618.422 97.0939 618.237 96.786 617.964 96.5664C617.691 96.3439 617.329 96.2326 616.879 96.2326C616.416 96.2326 616.014 96.35 615.672 96.5847C615.33 96.8165 615.052 97.1321 614.838 97.5315C614.624 97.9279 614.475 98.3731 614.391 98.867C614.307 99.3671 614.305 99.8214 614.386 100.23C614.467 100.636 614.638 100.959 614.899 101.2C615.163 101.437 615.524 101.556 615.984 101.556ZM624.151 102.526C623.465 102.526 622.898 102.377 622.451 102.078C622.003 101.776 621.691 101.355 621.514 100.815C621.337 100.273 621.309 99.6415 621.43 98.9219C621.551 98.2023 621.792 97.5681 622.152 97.0192C622.513 96.4673 622.961 96.0374 623.499 95.7294C624.036 95.4184 624.626 95.2629 625.269 95.2629C625.642 95.2629 626.001 95.3239 626.345 95.4459C626.69 95.5678 626.988 95.766 627.24 96.0405C627.491 96.3118 627.667 96.6716 627.766 97.1199C627.866 97.5681 627.859 98.12 627.748 98.7756L627.673 99.2329H622.157L622.306 98.2999H626.704C626.775 97.9035 626.757 97.5498 626.648 97.2388C626.542 96.9278 626.358 96.6823 626.094 96.5024C625.833 96.3225 625.502 96.2326 625.101 96.2326C624.688 96.2326 624.303 96.3423 623.946 96.5619C623.589 96.7784 623.291 97.0528 623.051 97.3851C622.812 97.7145 622.663 98.0499 622.604 98.3914L622.474 99.1963C622.381 99.7787 622.395 100.242 622.516 100.587C622.64 100.931 622.856 101.18 623.163 101.332C623.471 101.482 623.856 101.556 624.319 101.556C624.614 101.556 624.886 101.517 625.134 101.437C625.382 101.355 625.605 101.233 625.8 101.072C625.996 100.907 626.16 100.703 626.294 100.459L627.3 100.751C627.13 101.105 626.889 101.416 626.578 101.684C626.271 101.95 625.91 102.157 625.497 102.306C625.087 102.453 624.639 102.526 624.151 102.526ZM634.831 96.9278L633.788 97.2022C633.75 97.0375 633.685 96.879 633.592 96.7265C633.502 96.571 633.362 96.4445 633.173 96.3469C632.986 96.2463 632.732 96.196 632.409 96.196C631.971 96.196 631.59 96.2951 631.267 96.4933C630.944 96.6884 630.759 96.9369 630.713 97.2388C630.666 97.5041 630.728 97.716 630.899 97.8745C631.07 98.0331 631.356 98.1627 631.756 98.2633L632.781 98.5194C633.396 98.6749 633.834 98.9082 634.095 99.2192C634.359 99.5272 634.449 99.9281 634.365 100.422C634.297 100.825 634.118 101.184 633.83 101.502C633.541 101.819 633.171 102.069 632.721 102.252C632.271 102.435 631.769 102.526 631.216 102.526C630.48 102.526 629.899 102.371 629.474 102.06C629.048 101.745 628.821 101.291 628.793 100.697L629.893 100.44C629.921 100.815 630.058 101.099 630.303 101.291C630.551 101.48 630.899 101.575 631.347 101.575C631.859 101.575 632.286 101.468 632.628 101.255C632.969 101.038 633.163 100.779 633.21 100.477C633.257 100.23 633.207 100.024 633.061 99.8595C632.918 99.6949 632.67 99.5714 632.316 99.4891L631.179 99.2146C630.545 99.0591 630.101 98.8213 629.846 98.5011C629.595 98.181 629.511 97.7785 629.595 97.2937C629.663 96.8973 629.837 96.5466 630.117 96.2417C630.399 95.9368 630.753 95.6974 631.179 95.5236C631.607 95.3498 632.073 95.2629 632.576 95.2629C633.285 95.2629 633.814 95.4154 634.165 95.7203C634.516 96.0222 634.738 96.4247 634.831 96.9278ZM588.03 112.78L586.986 113.054C586.949 112.889 586.884 112.731 586.791 112.578C586.701 112.423 586.561 112.296 586.371 112.199C586.185 112.098 585.93 112.048 585.607 112.048C585.17 112.048 584.789 112.147 584.466 112.345C584.143 112.54 583.958 112.789 583.912 113.091C583.865 113.356 583.927 113.568 584.098 113.726C584.269 113.885 584.555 114.015 584.955 114.115L585.98 114.371C586.595 114.527 587.033 114.76 587.294 115.071C587.558 115.379 587.648 115.78 587.564 116.274C587.496 116.677 587.317 117.036 587.028 117.353C586.74 117.671 586.37 117.921 585.92 118.104C585.469 118.286 584.968 118.378 584.415 118.378C583.679 118.378 583.098 118.222 582.672 117.911C582.247 117.597 582.02 117.143 581.992 116.548L583.092 116.292C583.12 116.667 583.256 116.951 583.502 117.143C583.75 117.332 584.098 117.427 584.545 117.427C585.058 117.427 585.485 117.32 585.826 117.106C586.168 116.89 586.362 116.631 586.409 116.329C586.455 116.082 586.406 115.876 586.26 115.711C586.117 115.547 585.868 115.423 585.514 115.341L584.378 115.067C583.744 114.911 583.3 114.673 583.045 114.353C582.794 114.033 582.71 113.63 582.794 113.146C582.862 112.749 583.036 112.399 583.315 112.094C583.598 111.789 583.952 111.549 584.378 111.376C584.806 111.202 585.272 111.115 585.775 111.115C586.483 111.115 587.013 111.267 587.364 111.572C587.715 111.874 587.937 112.277 588.03 112.78ZM591.865 118.378C591.179 118.378 590.612 118.229 590.165 117.93C589.718 117.628 589.406 117.207 589.229 116.667C589.051 116.125 589.024 115.493 589.145 114.774C589.266 114.054 589.506 113.42 589.867 112.871C590.227 112.319 590.676 111.889 591.213 111.581C591.75 111.27 592.341 111.115 592.984 111.115C593.356 111.115 593.715 111.176 594.06 111.298C594.404 111.42 594.703 111.618 594.954 111.892C595.206 112.164 595.381 112.524 595.481 112.972C595.58 113.42 595.574 113.972 595.462 114.627L595.387 115.085H589.871L590.021 114.152H594.418C594.49 113.755 594.471 113.402 594.363 113.091C594.257 112.78 594.072 112.534 593.808 112.354C593.547 112.174 593.216 112.084 592.816 112.084C592.403 112.084 592.018 112.194 591.66 112.414C591.303 112.63 591.005 112.905 590.766 113.237C590.527 113.566 590.378 113.902 590.319 114.243L590.188 115.048C590.095 115.631 590.109 116.094 590.23 116.439C590.354 116.783 590.57 117.032 590.878 117.184C591.185 117.334 591.57 117.408 592.033 117.408C592.328 117.408 592.6 117.369 592.848 117.289C593.097 117.207 593.319 117.085 593.515 116.924C593.71 116.759 593.875 116.555 594.008 116.311L595.015 116.603C594.844 116.957 594.603 117.268 594.293 117.536C593.985 117.802 593.625 118.009 593.212 118.158C592.802 118.305 592.353 118.378 591.865 118.378ZM596.545 118.232L597.738 111.206H598.8L598.614 112.267H598.688C598.875 111.92 599.159 111.638 599.541 111.421C599.923 111.205 600.328 111.097 600.757 111.097C600.841 111.097 600.942 111.098 601.06 111.101C601.178 111.101 601.269 111.106 601.334 111.115L601.148 112.213C601.111 112.203 601.027 112.19 600.897 112.171C600.766 112.15 600.626 112.139 600.477 112.139C600.129 112.139 599.808 112.211 599.513 112.354C599.218 112.495 598.971 112.69 598.772 112.94C598.573 113.187 598.446 113.469 598.39 113.786L597.645 118.232H596.545ZM608.714 111.206L604.875 118.232H603.757L602.303 111.206H603.45L604.474 116.805H604.549L607.475 111.206H608.714ZM608.973 118.232L610.165 111.206H611.265L610.072 118.232H608.973ZM611.05 110.017C610.836 110.017 610.651 109.945 610.496 109.802C610.344 109.659 610.268 109.487 610.268 109.285C610.268 109.084 610.344 108.912 610.496 108.769C610.651 108.625 610.836 108.554 611.05 108.554C611.265 108.554 611.448 108.625 611.6 108.769C611.755 108.912 611.833 109.084 611.833 109.285C611.833 109.487 611.755 109.659 611.6 109.802C611.448 109.945 611.265 110.017 611.05 110.017ZM614.974 118.378C614.3 118.378 613.747 118.222 613.316 117.911C612.887 117.6 612.589 117.172 612.421 116.626C612.254 116.08 612.229 115.457 612.347 114.756C612.465 114.042 612.704 113.412 613.064 112.867C613.424 112.318 613.873 111.889 614.411 111.581C614.948 111.27 615.54 111.115 616.186 111.115C616.689 111.115 617.127 111.206 617.499 111.389C617.872 111.572 618.159 111.828 618.361 112.158C618.563 112.487 618.658 112.871 618.645 113.31H617.546C617.515 112.99 617.375 112.707 617.127 112.46C616.881 112.209 616.518 112.084 616.036 112.084C615.608 112.084 615.213 112.194 614.853 112.414C614.493 112.63 614.19 112.937 613.945 113.333C613.699 113.726 613.533 114.188 613.446 114.719C613.353 115.262 613.361 115.734 613.469 116.137C613.578 116.539 613.775 116.852 614.061 117.074C614.347 117.297 614.707 117.408 615.142 117.408C615.428 117.408 615.695 117.36 615.943 117.262C616.192 117.164 616.412 117.024 616.605 116.841C616.797 116.658 616.95 116.439 617.061 116.183H618.161C618.024 116.597 617.805 116.971 617.504 117.303C617.203 117.632 616.838 117.895 616.409 118.09C615.981 118.282 615.502 118.378 614.974 118.378ZM622.396 118.378C621.709 118.378 621.143 118.229 620.695 117.93C620.248 117.628 619.936 117.207 619.759 116.667C619.582 116.125 619.554 115.493 619.675 114.774C619.796 114.054 620.037 113.42 620.397 112.871C620.757 112.319 621.206 111.889 621.744 111.581C622.281 111.27 622.871 111.115 623.514 111.115C623.887 111.115 624.245 111.176 624.59 111.298C624.935 111.42 625.233 111.618 625.485 111.892C625.736 112.164 625.912 112.524 626.011 112.972C626.11 113.42 626.104 113.972 625.992 114.627L625.918 115.085H620.402L620.551 114.152H624.949C625.02 113.755 625.002 113.402 624.893 113.091C624.787 112.78 624.602 112.534 624.338 112.354C624.078 112.174 623.747 112.084 623.346 112.084C622.933 112.084 622.548 112.194 622.191 112.414C621.834 112.63 621.535 112.905 621.296 113.237C621.057 113.566 620.908 113.902 620.849 114.243L620.719 115.048C620.625 115.631 620.639 116.094 620.761 116.439C620.885 116.783 621.101 117.032 621.408 117.184C621.716 117.334 622.101 117.408 622.563 117.408C622.859 117.408 623.13 117.369 623.379 117.289C623.627 117.207 623.849 117.085 624.045 116.924C624.241 116.759 624.405 116.555 624.539 116.311L625.545 116.603C625.374 116.957 625.134 117.268 624.823 117.536C624.516 117.802 624.155 118.009 623.742 118.158C623.332 118.305 622.883 118.378 622.396 118.378ZM630.765 118.232L631.958 111.206H633.057L631.865 118.232H630.765ZM632.843 110.017C632.629 110.017 632.444 109.945 632.289 109.802C632.137 109.659 632.06 109.487 632.06 109.285C632.06 109.084 632.137 108.912 632.289 108.769C632.444 108.625 632.629 108.554 632.843 108.554C633.057 108.554 633.241 108.625 633.393 108.769C633.548 108.912 633.626 109.084 633.626 109.285C633.626 109.487 633.548 109.659 633.393 109.802C633.241 109.945 633.057 110.017 632.843 110.017ZM635.686 114.005L634.978 118.232H633.879L635.071 111.206H636.133L635.947 112.304H636.04C636.264 111.947 636.567 111.661 636.949 111.444C637.331 111.225 637.792 111.115 638.332 111.115C638.811 111.115 639.214 111.212 639.544 111.408C639.876 111.6 640.111 111.892 640.247 112.286C640.387 112.676 640.407 113.17 640.308 113.768L639.544 118.232H638.444L639.19 113.841C639.283 113.292 639.21 112.862 638.971 112.551C638.735 112.24 638.36 112.084 637.848 112.084C637.494 112.084 637.166 112.159 636.865 112.309C636.567 112.458 636.314 112.676 636.105 112.963C635.9 113.249 635.761 113.597 635.686 114.005ZM645.858 111.206L645.708 112.121H642L642.149 111.206H645.858ZM643.509 109.523H644.609L643.472 116.219C643.423 116.524 643.43 116.753 643.496 116.905C643.564 117.055 643.666 117.155 643.803 117.207C643.943 117.256 644.093 117.28 644.255 117.28C644.376 117.28 644.475 117.274 644.553 117.262C644.631 117.247 644.693 117.235 644.739 117.225L644.814 118.195C644.73 118.222 644.617 118.25 644.474 118.277C644.334 118.308 644.162 118.323 643.957 118.323C643.646 118.323 643.354 118.258 643.081 118.126C642.808 117.995 642.598 117.796 642.452 117.527C642.306 117.259 642.267 116.92 642.335 116.512L643.509 109.523ZM649.224 118.378C648.537 118.378 647.97 118.229 647.523 117.93C647.076 117.628 646.764 117.207 646.587 116.667C646.41 116.125 646.382 115.493 646.503 114.774C646.624 114.054 646.865 113.42 647.225 112.871C647.585 112.319 648.034 111.889 648.571 111.581C649.109 111.27 649.699 111.115 650.342 111.115C650.714 111.115 651.073 111.176 651.418 111.298C651.763 111.42 652.061 111.618 652.312 111.892C652.564 112.164 652.739 112.524 652.839 112.972C652.938 113.42 652.932 113.972 652.82 114.627L652.746 115.085H647.23L647.379 114.152H651.777C651.848 113.755 651.829 113.402 651.721 113.091C651.615 112.78 651.43 112.534 651.166 112.354C650.905 112.174 650.575 112.084 650.174 112.084C649.761 112.084 649.376 112.194 649.019 112.414C648.661 112.63 648.363 112.905 648.124 113.237C647.885 113.566 647.736 113.902 647.677 114.243L647.546 115.048C647.453 115.631 647.467 116.094 647.588 116.439C647.713 116.783 647.928 117.032 648.236 117.184C648.543 117.334 648.928 117.408 649.391 117.408C649.686 117.408 649.958 117.369 650.207 117.289C650.455 117.207 650.677 117.085 650.873 116.924C651.068 116.759 651.233 116.555 651.367 116.311L652.373 116.603C652.202 116.957 651.961 117.268 651.651 117.536C651.343 117.802 650.983 118.009 650.57 118.158C650.16 118.305 649.711 118.378 649.224 118.378ZM653.903 118.232L655.096 111.206H656.158L655.972 112.267H656.046C656.233 111.92 656.517 111.638 656.899 111.421C657.281 111.205 657.686 111.097 658.115 111.097C658.199 111.097 658.3 111.098 658.418 111.101C658.536 111.101 658.627 111.106 658.693 111.115L658.506 112.213C658.469 112.203 658.385 112.19 658.255 112.171C658.124 112.15 657.984 112.139 657.835 112.139C657.487 112.139 657.166 112.211 656.871 112.354C656.576 112.495 656.329 112.69 656.13 112.94C655.931 113.187 655.804 113.469 655.748 113.786L655.003 118.232H653.903ZM663.638 111.206L663.489 112.121H659.631L659.78 111.206H663.638ZM659.743 118.232L661.104 110.237C661.166 109.834 661.315 109.499 661.551 109.23C661.79 108.962 662.074 108.761 662.403 108.627C662.736 108.493 663.073 108.425 663.414 108.425C663.684 108.425 663.9 108.447 664.062 108.49C664.226 108.532 664.346 108.572 664.421 108.608L663.955 109.541C663.899 109.523 663.824 109.5 663.731 109.473C663.641 109.445 663.517 109.432 663.358 109.432C662.995 109.432 662.719 109.522 662.529 109.702C662.34 109.881 662.212 110.145 662.147 110.493L660.843 118.232H659.743ZM665.868 118.396C665.415 118.396 665.017 118.312 664.676 118.145C664.334 117.974 664.081 117.728 663.916 117.408C663.752 117.085 663.707 116.695 663.781 116.237C663.853 115.835 663.991 115.509 664.196 115.259C664.401 115.006 664.649 114.807 664.941 114.664C665.236 114.518 665.553 114.409 665.892 114.339C666.233 114.266 666.573 114.21 666.912 114.17C667.353 114.115 667.712 114.073 667.988 114.042C668.264 114.012 668.473 113.961 668.612 113.891C668.752 113.821 668.838 113.701 668.869 113.53V113.493C668.943 113.045 668.883 112.696 668.687 112.446C668.491 112.193 668.142 112.066 667.639 112.066C667.117 112.066 666.68 112.179 666.33 112.405C665.979 112.63 665.719 112.871 665.552 113.127L664.582 112.761C664.837 112.335 665.142 112.002 665.496 111.764C665.85 111.523 666.221 111.356 666.609 111.261C666.997 111.164 667.372 111.115 667.732 111.115C667.962 111.115 668.221 111.142 668.51 111.197C668.799 111.249 669.069 111.357 669.32 111.522C669.575 111.687 669.766 111.935 669.894 112.267C670.024 112.6 670.043 113.045 669.949 113.603L669.167 118.232H668.067L668.235 117.28H668.179C668.08 117.433 667.927 117.596 667.723 117.77C667.521 117.943 667.264 118.091 666.954 118.213C666.646 118.335 666.284 118.396 665.868 118.396ZM666.185 117.427C666.62 117.427 667 117.343 667.327 117.175C667.656 117.007 667.92 116.791 668.119 116.526C668.32 116.26 668.446 115.981 668.496 115.689L668.664 114.701C668.608 114.756 668.497 114.806 668.333 114.852C668.168 114.894 667.982 114.932 667.774 114.966C667.569 114.996 667.368 115.024 667.173 115.048C666.98 115.07 666.825 115.088 666.707 115.103C666.415 115.14 666.137 115.199 665.873 115.282C665.612 115.361 665.392 115.481 665.211 115.643C665.034 115.801 664.924 116.018 664.881 116.292C664.815 116.667 664.907 116.951 665.156 117.143C665.404 117.332 665.747 117.427 666.185 117.427ZM674.062 118.378C673.388 118.378 672.835 118.222 672.403 117.911C671.975 117.6 671.677 117.172 671.509 116.626C671.341 116.08 671.316 115.457 671.434 114.756C671.552 114.042 671.792 113.412 672.152 112.867C672.512 112.318 672.961 111.889 673.498 111.581C674.036 111.27 674.627 111.115 675.273 111.115C675.776 111.115 676.214 111.206 676.587 111.389C676.96 111.572 677.247 111.828 677.449 112.158C677.651 112.487 677.746 112.871 677.733 113.31H676.634C676.603 112.99 676.463 112.707 676.214 112.46C675.969 112.209 675.606 112.084 675.124 112.084C674.696 112.084 674.301 112.194 673.941 112.414C673.581 112.63 673.278 112.937 673.032 113.333C672.787 113.726 672.621 114.188 672.534 114.719C672.441 115.262 672.448 115.734 672.557 116.137C672.666 116.539 672.863 116.852 673.149 117.074C673.435 117.297 673.795 117.408 674.23 117.408C674.515 117.408 674.783 117.36 675.031 117.262C675.279 117.164 675.5 117.024 675.693 116.841C675.885 116.658 676.037 116.439 676.149 116.183H677.249C677.112 116.597 676.893 116.971 676.592 117.303C676.29 117.632 675.926 117.895 675.497 118.09C675.068 118.282 674.59 118.378 674.062 118.378ZM681.483 118.378C680.797 118.378 680.23 118.229 679.783 117.93C679.336 117.628 679.024 117.207 678.847 116.667C678.67 116.125 678.642 115.493 678.763 114.774C678.884 114.054 679.125 113.42 679.485 112.871C679.845 112.319 680.294 111.889 680.831 111.581C681.369 111.27 681.959 111.115 682.602 111.115C682.974 111.115 683.333 111.176 683.678 111.298C684.023 111.42 684.321 111.618 684.572 111.892C684.824 112.164 684.999 112.524 685.099 112.972C685.198 113.42 685.192 113.972 685.08 114.627L685.006 115.085H679.49L679.639 114.152H684.037C684.108 113.755 684.089 113.402 683.981 113.091C683.875 112.78 683.69 112.534 683.426 112.354C683.165 112.174 682.835 112.084 682.434 112.084C682.021 112.084 681.636 112.194 681.278 112.414C680.921 112.63 680.623 112.905 680.384 113.237C680.145 113.566 679.996 113.902 679.937 114.243L679.806 115.048C679.713 115.631 679.727 116.094 679.848 116.439C679.972 116.783 680.188 117.032 680.496 117.184C680.803 117.334 681.188 117.408 681.651 117.408C681.946 117.408 682.218 117.369 682.466 117.289C682.715 117.207 682.937 117.085 683.133 116.924C683.328 116.759 683.493 116.555 683.627 116.311L684.633 116.603C684.462 116.957 684.221 117.268 683.911 117.536C683.603 117.802 683.243 118.009 682.83 118.158C682.42 118.305 681.971 118.378 681.483 118.378ZM582.029 134.084L583.222 127.058H584.322L583.129 134.084H582.029ZM584.107 125.869C583.893 125.869 583.708 125.797 583.553 125.654C583.401 125.511 583.325 125.338 583.325 125.137C583.325 124.936 583.401 124.764 583.553 124.62C583.708 124.477 583.893 124.405 584.107 124.405C584.322 124.405 584.505 124.477 584.657 124.62C584.812 124.764 584.89 124.936 584.89 125.137C584.89 125.338 584.812 125.511 584.657 125.654C584.505 125.797 584.322 125.869 584.107 125.869ZM585.143 134.084L586.335 127.058H587.398L587.211 128.156H587.304C587.519 127.781 587.809 127.49 588.176 127.282C588.545 127.072 588.963 126.967 589.429 126.967C589.895 126.967 590.269 127.072 590.552 127.282C590.834 127.49 591.031 127.781 591.143 128.156H591.218C591.46 127.79 591.783 127.5 592.187 127.287C592.594 127.073 593.053 126.967 593.566 126.967C594.199 126.967 594.687 127.163 595.029 127.557C595.373 127.95 595.476 128.558 595.336 129.382L594.535 134.084H593.435L594.237 129.382C594.321 128.86 594.237 128.49 593.985 128.27C593.737 128.048 593.417 127.936 593.025 127.936C592.522 127.936 592.108 128.084 591.782 128.38C591.455 128.676 591.255 129.052 591.181 129.51L590.398 134.084H589.28L590.1 129.272C590.165 128.869 590.087 128.546 589.867 128.302C589.646 128.058 589.326 127.936 588.907 127.936C588.621 127.936 588.342 128.013 588.068 128.165C587.795 128.314 587.561 128.522 587.365 128.787C587.169 129.049 587.044 129.351 586.988 129.693L586.242 134.084H585.143ZM596.098 136.718L597.747 127.058H598.809L598.623 128.174H598.753C598.853 128.052 598.99 127.897 599.163 127.708C599.34 127.516 599.578 127.345 599.876 127.195C600.177 127.043 600.561 126.967 601.027 126.967C601.629 126.967 602.134 127.115 602.541 127.41C602.948 127.706 603.235 128.125 603.403 128.668C603.571 129.211 603.592 129.851 603.468 130.589C603.344 131.333 603.106 131.978 602.755 132.524C602.404 133.067 601.976 133.487 601.47 133.786C600.963 134.082 600.412 134.23 599.816 134.23C599.356 134.23 599 134.155 598.749 134.006C598.497 133.853 598.314 133.681 598.199 133.489C598.084 133.294 597.996 133.132 597.934 133.004H597.84L597.207 136.718H596.098ZM598.232 130.571C598.145 131.101 598.145 131.569 598.232 131.975C598.322 132.377 598.5 132.693 598.767 132.922C599.038 133.147 599.393 133.26 599.834 133.26C600.294 133.26 600.696 133.141 601.041 132.903C601.389 132.663 601.675 132.339 601.898 131.934C602.125 131.525 602.282 131.071 602.369 130.571C602.449 130.077 602.446 129.632 602.359 129.235C602.272 128.836 602.095 128.52 601.828 128.289C601.561 128.054 601.195 127.936 600.729 127.936C600.282 127.936 599.886 128.048 599.541 128.27C599.199 128.49 598.917 128.798 598.693 129.194C598.472 129.588 598.319 130.046 598.232 130.571ZM607.236 124.716L605.652 134.084H604.553L606.137 124.716H607.236ZM610.647 134.23C609.961 134.23 609.394 134.08 608.947 133.782C608.5 133.48 608.188 133.059 608.011 132.519C607.833 131.977 607.806 131.345 607.927 130.626C608.048 129.906 608.288 129.272 608.649 128.723C609.009 128.171 609.458 127.741 609.995 127.433C610.532 127.122 611.123 126.967 611.766 126.967C612.138 126.967 612.497 127.028 612.842 127.15C613.186 127.272 613.485 127.47 613.736 127.744C613.988 128.016 614.163 128.375 614.263 128.824C614.362 129.272 614.356 129.824 614.244 130.479L614.169 130.937H608.653L608.803 130.004H613.2C613.272 129.607 613.253 129.254 613.145 128.943C613.039 128.632 612.854 128.386 612.59 128.206C612.329 128.026 611.998 127.936 611.598 127.936C611.185 127.936 610.8 128.046 610.442 128.266C610.085 128.482 609.787 128.757 609.548 129.089C609.309 129.418 609.16 129.754 609.101 130.095L608.97 130.9C608.877 131.483 608.891 131.946 609.012 132.291C609.136 132.635 609.352 132.884 609.66 133.036C609.967 133.186 610.352 133.26 610.815 133.26C611.11 133.26 611.382 133.221 611.63 133.141C611.879 133.059 612.101 132.937 612.297 132.775C612.492 132.611 612.657 132.406 612.79 132.163L613.797 132.455C613.626 132.809 613.385 133.12 613.075 133.388C612.767 133.654 612.407 133.861 611.994 134.01C611.584 134.157 611.135 134.23 610.647 134.23ZM615.327 134.084L616.52 127.058H617.582L617.396 128.156H617.489C617.703 127.781 617.994 127.49 618.36 127.282C618.73 127.072 619.147 126.967 619.613 126.967C620.079 126.967 620.453 127.072 620.736 127.282C621.019 127.49 621.216 127.781 621.328 128.156H621.402C621.645 127.79 621.968 127.5 622.371 127.287C622.778 127.073 623.238 126.967 623.75 126.967C624.384 126.967 624.872 127.163 625.213 127.557C625.558 127.95 625.66 128.558 625.521 129.382L624.719 134.084H623.62L624.421 129.382C624.505 128.86 624.421 128.49 624.17 128.27C623.921 128.048 623.601 127.936 623.21 127.936C622.707 127.936 622.292 128.084 621.966 128.38C621.64 128.676 621.44 129.052 621.365 129.51L620.582 134.084H619.464L620.284 129.272C620.349 128.869 620.272 128.546 620.051 128.302C619.831 128.058 619.511 127.936 619.091 127.936C618.806 127.936 618.526 128.013 618.253 128.165C617.98 128.314 617.745 128.522 617.549 128.787C617.354 129.049 617.228 129.351 617.172 129.693L616.427 134.084H615.327ZM629.711 134.23C629.025 134.23 628.458 134.08 628.011 133.782C627.564 133.48 627.251 133.059 627.074 132.519C626.897 131.977 626.869 131.345 626.991 130.626C627.112 129.906 627.352 129.272 627.713 128.723C628.073 128.171 628.522 127.741 629.059 127.433C629.596 127.122 630.186 126.967 630.829 126.967C631.202 126.967 631.561 127.028 631.906 127.15C632.25 127.272 632.548 127.47 632.8 127.744C633.052 128.016 633.227 128.375 633.326 128.824C633.426 129.272 633.42 129.824 633.308 130.479L633.233 130.937H627.717L627.866 130.004H632.264C632.336 129.607 632.317 129.254 632.208 128.943C632.103 128.632 631.918 128.386 631.654 128.206C631.393 128.026 631.062 127.936 630.662 127.936C630.249 127.936 629.863 128.046 629.506 128.266C629.149 128.482 628.851 128.757 628.612 129.089C628.373 129.418 628.224 129.754 628.165 130.095L628.034 130.9C627.941 131.483 627.955 131.946 628.076 132.291C628.2 132.635 628.416 132.884 628.724 133.036C629.031 133.186 629.416 133.26 629.879 133.26C630.174 133.26 630.446 133.221 630.694 133.141C630.943 133.059 631.165 132.937 631.36 132.775C631.556 132.611 631.721 132.406 631.854 132.163L632.861 132.455C632.69 132.809 632.449 133.12 632.139 133.388C631.831 133.654 631.471 133.861 631.058 134.01C630.648 134.157 630.199 134.23 629.711 134.23ZM636.199 129.857L635.491 134.084H634.391L635.584 127.058H636.646L636.46 128.156H636.553C636.776 127.799 637.079 127.513 637.461 127.296C637.843 127.077 638.304 126.967 638.845 126.967C639.323 126.967 639.727 127.064 640.056 127.259C640.388 127.452 640.623 127.744 640.76 128.138C640.899 128.528 640.92 129.022 640.82 129.62L640.056 134.084H638.957L639.702 129.693C639.795 129.144 639.722 128.714 639.483 128.403C639.247 128.092 638.873 127.936 638.36 127.936C638.006 127.936 637.679 128.011 637.377 128.161C637.079 128.31 636.826 128.528 636.618 128.815C636.413 129.101 636.273 129.449 636.199 129.857ZM646.37 127.058L646.221 127.973H642.513L642.662 127.058H646.37ZM644.022 125.375H645.121L643.985 132.071C643.935 132.376 643.943 132.605 644.008 132.757C644.076 132.907 644.179 133.007 644.315 133.059C644.455 133.108 644.606 133.132 644.767 133.132C644.889 133.132 644.988 133.126 645.066 133.114C645.143 133.099 645.205 133.086 645.252 133.077L645.326 134.047C645.243 134.074 645.129 134.102 644.986 134.129C644.847 134.16 644.674 134.175 644.469 134.175C644.159 134.175 643.867 134.109 643.593 133.978C643.32 133.847 643.11 133.647 642.964 133.379C642.818 133.111 642.78 132.772 642.848 132.364L644.022 125.375ZM648.918 134.248C648.465 134.248 648.067 134.164 647.726 133.997C647.384 133.826 647.131 133.58 646.966 133.26C646.802 132.937 646.757 132.547 646.831 132.089C646.903 131.687 647.041 131.361 647.246 131.111C647.451 130.857 647.699 130.659 647.991 130.516C648.286 130.37 648.603 130.261 648.942 130.191C649.283 130.118 649.623 130.062 649.962 130.022C650.403 129.967 650.762 129.924 651.038 129.894C651.315 129.863 651.523 129.813 651.662 129.743C651.802 129.673 651.888 129.552 651.919 129.382V129.345C651.993 128.897 651.933 128.548 651.737 128.298C651.541 128.045 651.192 127.918 650.689 127.918C650.167 127.918 649.731 128.031 649.38 128.257C649.029 128.482 648.769 128.723 648.602 128.979L647.633 128.613C647.887 128.186 648.192 127.854 648.546 127.616C648.9 127.375 649.271 127.208 649.659 127.113C650.047 127.016 650.422 126.967 650.782 126.967C651.012 126.967 651.271 126.994 651.56 127.049C651.849 127.101 652.119 127.209 652.371 127.374C652.625 127.538 652.816 127.787 652.944 128.119C653.074 128.452 653.093 128.897 652.999 129.455L652.217 134.084H651.117L651.285 133.132H651.229C651.13 133.285 650.978 133.448 650.773 133.622C650.571 133.795 650.314 133.943 650.004 134.065C649.696 134.187 649.335 134.248 648.918 134.248ZM649.235 133.279C649.67 133.279 650.05 133.195 650.377 133.027C650.706 132.859 650.97 132.643 651.169 132.377C651.37 132.112 651.496 131.833 651.546 131.541L651.714 130.553C651.658 130.607 651.548 130.658 651.383 130.704C651.218 130.746 651.032 130.784 650.824 130.818C650.619 130.848 650.419 130.876 650.223 130.9C650.03 130.922 649.875 130.94 649.757 130.955C649.465 130.992 649.187 131.051 648.923 131.133C648.662 131.213 648.442 131.333 648.261 131.495C648.084 131.653 647.974 131.87 647.931 132.144C647.865 132.519 647.957 132.803 648.206 132.995C648.454 133.184 648.797 133.279 649.235 133.279ZM658.528 127.058L658.379 127.973H654.671L654.82 127.058H658.528ZM656.18 125.375H657.28L656.143 132.071C656.093 132.376 656.101 132.605 656.166 132.757C656.235 132.907 656.337 133.007 656.474 133.059C656.614 133.108 656.764 133.132 656.926 133.132C657.047 133.132 657.146 133.126 657.224 133.114C657.302 133.099 657.364 133.086 657.41 133.077L657.485 134.047C657.401 134.074 657.288 134.102 657.145 134.129C657.005 134.16 656.833 134.175 656.628 134.175C656.317 134.175 656.025 134.109 655.752 133.978C655.478 133.847 655.269 133.647 655.123 133.379C654.977 133.111 654.938 132.772 655.006 132.364L656.18 125.375ZM658.99 134.084L660.182 127.058H661.282L660.089 134.084H658.99ZM661.067 125.869C660.853 125.869 660.668 125.797 660.513 125.654C660.361 125.511 660.285 125.338 660.285 125.137C660.285 124.936 660.361 124.764 660.513 124.62C660.668 124.477 660.853 124.405 661.067 124.405C661.282 124.405 661.465 124.477 661.617 124.62C661.772 124.764 661.85 124.936 661.85 125.137C661.85 125.338 661.772 125.511 661.617 125.654C661.465 125.797 661.282 125.869 661.067 125.869ZM665.057 134.23C664.398 134.23 663.847 134.076 663.403 133.768C662.958 133.46 662.645 133.028 662.462 132.474C662.281 131.919 662.252 131.272 662.373 130.534C662.491 129.815 662.726 129.188 663.077 128.654C663.431 128.118 663.87 127.703 664.395 127.41C664.923 127.115 665.504 126.967 666.137 126.967C666.796 126.967 667.346 127.122 667.787 127.433C668.231 127.741 668.544 128.174 668.728 128.732C668.911 129.287 668.942 129.937 668.821 130.681C668.703 131.394 668.465 132.018 668.108 132.551C667.754 133.082 667.314 133.495 666.79 133.791C666.268 134.084 665.69 134.23 665.057 134.23ZM665.075 133.26C665.578 133.26 666.015 133.134 666.384 132.881C666.757 132.628 667.058 132.294 667.288 131.879C667.521 131.464 667.678 131.016 667.759 130.534C667.833 130.077 667.83 129.652 667.749 129.258C667.669 128.862 667.496 128.543 667.232 128.302C666.968 128.058 666.597 127.936 666.119 127.936C665.616 127.936 665.176 128.064 664.8 128.321C664.428 128.577 664.126 128.914 663.896 129.331C663.667 129.749 663.513 130.199 663.435 130.681C663.361 131.138 663.362 131.563 663.44 131.957C663.521 132.347 663.693 132.663 663.957 132.903C664.224 133.141 664.597 133.26 665.075 133.26ZM671.738 129.857L671.03 134.084H669.931L671.123 127.058H672.186L671.999 128.156H672.092C672.316 127.799 672.619 127.513 673.001 127.296C673.383 127.077 673.844 126.967 674.385 126.967C674.863 126.967 675.267 127.064 675.596 127.259C675.928 127.452 676.163 127.744 676.299 128.138C676.439 128.528 676.459 129.022 676.36 129.62L675.596 134.084H674.496L675.242 129.693C675.335 129.144 675.262 128.714 675.023 128.403C674.787 128.092 674.413 127.936 673.9 127.936C673.546 127.936 673.218 128.011 672.917 128.161C672.619 128.31 672.366 128.528 672.158 128.815C671.953 129.101 671.813 129.449 671.738 129.857Z" fill="black"/>
<path d="M110.009 180.9L121.328 178.185L113.273 169.918L110.009 180.9ZM116.572 174.736L117.269 175.452L200.525 97.2611L199.827 96.5452L199.129 95.8293L115.874 174.02L116.572 174.736Z" fill="black"/>
<path d="M37.2286 102.38L38.8126 93.0128H42.0365C42.7819 93.0128 43.372 93.1363 43.8069 93.3832C44.2448 93.6302 44.5414 93.9702 44.6967 94.4032C44.8551 94.8362 44.8877 95.3301 44.7945 95.8851C44.7013 96.4339 44.5026 96.9218 44.1982 97.3487C43.8969 97.7756 43.487 98.111 42.9683 98.3549C42.4527 98.5988 41.8253 98.7208 41.0861 98.7208H38.4772L38.6635 97.6963H41.2352C41.7446 97.6963 42.167 97.6231 42.5024 97.4767C42.8378 97.3304 43.0987 97.1215 43.2851 96.8501C43.4714 96.5788 43.5957 96.2571 43.6578 95.8851C43.7199 95.507 43.7028 95.1792 43.6065 94.9017C43.5134 94.6212 43.3223 94.4047 43.0335 94.2522C42.7478 94.0967 42.3471 94.019 41.8315 94.019H39.8003L38.384 102.38H37.2286ZM42.4278 98.172L44.0678 102.38H42.726L41.1234 98.172H42.4278ZM48.376 102.526C47.6896 102.526 47.1228 102.377 46.6755 102.078C46.2283 101.776 45.9161 101.355 45.7391 100.816C45.5621 100.273 45.5341 99.6417 45.6552 98.922C45.7764 98.2024 46.0171 97.5682 46.3774 97.0194C46.7376 96.4675 47.1864 96.0375 47.7238 95.7296C48.2611 95.4186 48.8512 95.263 49.4941 95.263C49.8668 95.263 50.2255 95.324 50.5703 95.446C50.915 95.568 51.2132 95.7662 51.4648 96.0406C51.7164 96.312 51.8918 96.6718 51.9912 97.12C52.0906 97.5682 52.0844 98.1201 51.9726 98.7757L51.898 99.2331H46.382L46.5311 98.3H50.929C51.0005 97.9036 50.9818 97.5499 50.8731 97.2389C50.7675 96.9279 50.5827 96.6824 50.3187 96.5025C50.0578 96.3226 49.727 96.2327 49.3264 96.2327C48.9133 96.2327 48.5282 96.3425 48.171 96.562C47.8138 96.7785 47.5157 97.0529 47.2765 97.3853C47.0374 97.7146 46.8883 98.05 46.8293 98.3915L46.6988 99.1965C46.6056 99.7789 46.6196 100.242 46.7407 100.587C46.865 100.931 47.0808 101.18 47.3883 101.332C47.6958 101.482 48.0809 101.557 48.5437 101.557C48.8388 101.557 49.1105 101.517 49.359 101.438C49.6075 101.355 49.8295 101.233 50.0252 101.072C50.2209 100.907 50.3855 100.703 50.519 100.459L51.5253 100.752C51.3545 101.105 51.1138 101.416 50.8032 101.685C50.4957 101.95 50.1355 102.157 49.7224 102.307C49.3124 102.453 48.8636 102.526 48.376 102.526ZM57.491 105.014L58.1152 101.3H58.0221C57.9196 101.428 57.7767 101.59 57.5934 101.785C57.4133 101.977 57.1726 102.15 56.8713 102.302C56.5701 102.451 56.1896 102.526 55.7299 102.526C55.1336 102.526 54.632 102.378 54.2251 102.083C53.8183 101.784 53.5325 101.363 53.3679 100.82C53.2033 100.274 53.1831 99.6295 53.3073 98.8855C53.4316 98.1476 53.6676 97.5072 54.0155 96.9645C54.3633 96.4217 54.7919 96.0025 55.3013 95.7067C55.8107 95.4109 56.3666 95.263 56.9692 95.263C57.435 95.263 57.7907 95.3393 58.036 95.4917C58.2845 95.6411 58.4646 95.8119 58.5765 96.004C58.6883 96.193 58.7737 96.3486 58.8327 96.4705H58.9631L59.1588 95.3545H60.221L58.5904 105.014H57.491ZM56.0374 101.557C56.4815 101.557 56.8744 101.444 57.2161 101.218C57.5608 100.989 57.845 100.674 58.0686 100.271C58.2954 99.8658 58.4538 99.3977 58.5438 98.8672C58.6339 98.3427 58.6339 97.8838 58.5438 97.4905C58.4538 97.0941 58.2752 96.7861 58.0081 96.5666C57.7441 96.344 57.3885 96.2327 56.9412 96.2327C56.4753 96.2327 56.0669 96.3501 55.7159 96.5849C55.3681 96.8166 55.0839 97.1322 54.8634 97.5316C54.6429 97.928 54.4907 98.3732 54.4068 98.8672C54.323 99.3672 54.3245 99.8216 54.4115 100.23C54.5015 100.636 54.6801 100.959 54.9472 101.2C55.2175 101.438 55.5808 101.557 56.0374 101.557ZM66.0317 99.5075L66.7399 95.3545H67.8393L66.6467 102.38H65.5472L65.7522 101.191H65.6777C65.454 101.547 65.1419 101.851 64.7412 102.101C64.3406 102.348 63.87 102.471 63.3296 102.471C62.8824 102.471 62.5003 102.375 62.1835 102.183C61.8698 101.988 61.6462 101.695 61.5127 101.305C61.3822 100.912 61.3667 100.416 61.4661 99.8185L62.2301 95.3545H63.3296L62.5842 99.7453C62.5003 100.258 62.5795 100.666 62.8218 100.971C63.0641 101.276 63.4135 101.428 63.87 101.428C64.1433 101.428 64.4322 101.36 64.7366 101.223C65.0441 101.085 65.3174 100.875 65.5565 100.591C65.7988 100.308 65.9572 99.9466 66.0317 99.5075ZM68.6605 102.38L69.8531 95.3545H70.9526L69.7599 102.38H68.6605ZM70.7383 94.1653C70.524 94.1653 70.3392 94.0937 70.1839 93.9504C70.0317 93.8071 69.9556 93.6348 69.9556 93.4335C69.9556 93.2323 70.0317 93.06 70.1839 92.9167C70.3392 92.7734 70.524 92.7017 70.7383 92.7017C70.9526 92.7017 71.1358 92.7734 71.288 92.9167C71.4433 93.06 71.521 93.2323 71.521 93.4335C71.521 93.6348 71.4433 93.8071 71.288 93.9504C71.1358 94.0937 70.9526 94.1653 70.7383 94.1653ZM71.7737 102.38L72.9664 95.3545H74.0286L73.8422 96.4156H73.9168C74.1031 96.068 74.3873 95.786 74.7693 95.5695C75.1513 95.353 75.5567 95.2448 75.9853 95.2448C76.0691 95.2448 76.1701 95.2463 76.2881 95.2493C76.4061 95.2493 76.4977 95.2539 76.563 95.263L76.3766 96.3607C76.3393 96.3516 76.2555 96.3379 76.125 96.3196C75.9946 96.2982 75.8548 96.2876 75.7057 96.2876C75.3579 96.2876 75.0364 96.3592 74.7414 96.5025C74.4463 96.6428 74.1994 96.8379 74.0006 97.088C73.8018 97.335 73.6745 97.617 73.6186 97.9341L72.8732 102.38H71.7737ZM79.4444 102.526C78.758 102.526 78.1912 102.377 77.744 102.078C77.2967 101.776 76.9846 101.355 76.8076 100.816C76.6305 100.273 76.6026 99.6417 76.7237 98.922C76.8448 98.2024 77.0855 97.5682 77.4458 97.0194C77.8061 96.4675 78.2549 96.0375 78.7922 95.7296C79.3295 95.4186 79.9196 95.263 80.5626 95.263C80.9353 95.263 81.294 95.324 81.6387 95.446C81.9835 95.568 82.2817 95.7662 82.5332 96.0406C82.7848 96.312 82.9603 96.6718 83.0597 97.12C83.1591 97.5682 83.1529 98.1201 83.041 98.7757L82.9665 99.2331H77.4505L77.5996 98.3H81.9975C82.0689 97.9036 82.0503 97.5499 81.9416 97.2389C81.836 96.9279 81.6512 96.6824 81.3872 96.5025C81.1263 96.3226 80.7955 96.2327 80.3948 96.2327C79.9818 96.2327 79.5966 96.3425 79.2395 96.562C78.8823 96.7785 78.5841 97.0529 78.345 97.3853C78.1058 97.7146 77.9567 98.05 77.8977 98.3915L77.7673 99.1965C77.6741 99.7789 77.6881 100.242 77.8092 100.587C77.9334 100.931 78.1493 101.18 78.4568 101.332C78.7643 101.482 79.1494 101.557 79.6122 101.557C79.9072 101.557 80.179 101.517 80.4275 101.438C80.6759 101.355 80.898 101.233 81.0937 101.072C81.2893 100.907 81.4539 100.703 81.5875 100.459L82.5938 100.752C82.423 101.105 82.1823 101.416 81.8717 101.685C81.5642 101.95 81.2039 102.157 80.7908 102.307C80.3809 102.453 79.9321 102.526 79.4444 102.526ZM90.1248 96.9279L89.0812 97.2023C89.0439 97.0377 88.9787 96.8791 88.8855 96.7266C88.7955 96.5711 88.6557 96.4446 88.4662 96.347C88.2799 96.2464 88.0252 96.1961 87.7022 96.1961C87.2643 96.1961 86.8838 96.2952 86.5608 96.4934C86.2378 96.6885 86.053 96.937 86.0064 97.2389C85.9598 97.5042 86.0219 97.7161 86.1927 97.8747C86.3636 98.0332 86.6493 98.1628 87.05 98.2634L88.0749 98.5196C88.6899 98.6751 89.1278 98.9083 89.3887 99.2193C89.6527 99.5273 89.7427 99.9283 89.6589 100.422C89.5906 100.825 89.412 101.185 89.1231 101.502C88.8343 101.819 88.4647 102.069 88.0143 102.252C87.564 102.435 87.0624 102.526 86.5095 102.526C85.7734 102.526 85.1926 102.371 84.7671 102.06C84.3416 101.746 84.1149 101.291 84.0869 100.697L85.1864 100.441C85.2144 100.816 85.351 101.099 85.5964 101.291C85.8449 101.48 86.1927 101.575 86.64 101.575C87.1524 101.575 87.5795 101.468 87.9211 101.255C88.2628 101.038 88.4569 100.779 88.5035 100.477C88.5501 100.23 88.5004 100.024 88.3544 99.8597C88.2115 99.695 87.9631 99.5715 87.609 99.4892L86.4723 99.2148C85.8387 99.0593 85.3945 98.8214 85.1398 98.5013C84.8883 98.1811 84.8044 97.7786 84.8883 97.2938C84.9566 96.8974 85.1305 96.5467 85.41 96.2418C85.6927 95.9369 86.0468 95.6976 86.4723 95.5238C86.9009 95.3499 87.3668 95.263 87.8699 95.263C88.578 95.263 89.1076 95.4155 89.4586 95.7204C89.8095 96.0223 90.0316 96.4248 90.1248 96.9279ZM43.0801 112.78L42.0365 113.054C41.9992 112.89 41.934 112.731 41.8408 112.579C41.7508 112.423 41.611 112.297 41.4215 112.199C41.2352 112.098 40.9805 112.048 40.6575 112.048C40.2196 112.048 39.8391 112.147 39.5161 112.345C39.1931 112.54 39.0083 112.789 38.9617 113.091C38.9151 113.356 38.9772 113.568 39.148 113.727C39.3189 113.885 39.6046 114.015 40.0053 114.115L41.0302 114.371C41.6452 114.527 42.0831 114.76 42.344 115.071C42.608 115.379 42.6981 115.78 42.6142 116.274C42.5459 116.677 42.3673 117.036 42.0784 117.354C41.7896 117.671 41.42 117.921 40.9696 118.104C40.5193 118.287 40.0177 118.378 39.4648 118.378C38.7288 118.378 38.148 118.223 37.7224 117.912C37.2969 117.597 37.0702 117.143 37.0423 116.549L38.1417 116.292C38.1697 116.667 38.3064 116.951 38.5517 117.143C38.8002 117.332 39.148 117.427 39.5953 117.427C40.1078 117.427 40.5348 117.32 40.8765 117.107C41.2181 116.89 41.4122 116.631 41.4588 116.329C41.5054 116.082 41.4557 115.876 41.3097 115.712C41.1669 115.547 40.9184 115.423 40.5643 115.341L39.4276 115.067C38.794 114.911 38.3498 114.673 38.0952 114.353C37.8436 114.033 37.7597 113.631 37.8436 113.146C37.9119 112.749 38.0858 112.399 38.3654 112.094C38.648 111.789 39.0021 111.549 39.4276 111.376C39.8562 111.202 40.3221 111.115 40.8252 111.115C41.5334 111.115 42.0629 111.267 42.4139 111.572C42.7648 111.874 42.9869 112.277 43.0801 112.78ZM46.9154 118.378C46.2291 118.378 45.6622 118.229 45.215 117.93C44.7677 117.628 44.4556 117.207 44.2786 116.667C44.1015 116.125 44.0736 115.494 44.1947 114.774C44.3158 114.054 44.5565 113.42 44.9168 112.871C45.2771 112.319 45.7259 111.889 46.2632 111.581C46.8005 111.27 47.3906 111.115 48.0336 111.115C48.4063 111.115 48.765 111.176 49.1097 111.298C49.4545 111.42 49.7527 111.618 50.0042 111.892C50.2558 112.164 50.4313 112.524 50.5307 112.972C50.6301 113.42 50.6239 113.972 50.5121 114.628L50.4375 115.085H44.9215L45.0706 114.152H49.4685C49.5399 113.756 49.5213 113.402 49.4126 113.091C49.307 112.78 49.1222 112.534 48.8582 112.354C48.5973 112.175 48.2665 112.085 47.8658 112.085C47.4528 112.085 47.0676 112.194 46.7105 112.414C46.3533 112.63 46.0551 112.905 45.816 113.237C45.5768 113.566 45.4277 113.902 45.3687 114.243L45.2383 115.048C45.1451 115.631 45.1591 116.094 45.2802 116.439C45.4044 116.783 45.6203 117.032 45.9278 117.184C46.2353 117.334 46.6204 117.408 47.0832 117.408C47.3782 117.408 47.65 117.369 47.8985 117.29C48.1469 117.207 48.369 117.085 48.5647 116.924C48.7603 116.759 48.9249 116.555 49.0585 116.311L50.0648 116.603C49.894 116.957 49.6533 117.268 49.3427 117.537C49.0352 117.802 48.6749 118.009 48.2618 118.159C47.8519 118.305 47.4031 118.378 46.9154 118.378ZM51.5952 118.232L52.7879 111.206H53.8501L53.6637 112.268H53.7383C53.9246 111.92 54.2088 111.638 54.5908 111.421C54.9729 111.205 55.3782 111.097 55.8068 111.097C55.8907 111.097 55.9916 111.098 56.1096 111.101C56.2276 111.101 56.3193 111.106 56.3845 111.115L56.1981 112.213C56.1609 112.204 56.077 112.19 55.9466 112.171C55.8161 112.15 55.6763 112.139 55.5273 112.139C55.1794 112.139 54.8579 112.211 54.5629 112.354C54.2678 112.495 54.0209 112.69 53.8221 112.94C53.6234 113.187 53.496 113.469 53.4401 113.786L52.6947 118.232H51.5952ZM63.764 111.206L59.9252 118.232H58.8071L57.3535 111.206H58.4996L59.5245 116.805H59.5991L62.5248 111.206H63.764ZM64.0226 118.232L65.2153 111.206H66.3147L65.1221 118.232H64.0226ZM66.1004 110.017C65.8861 110.017 65.7013 109.946 65.546 109.802C65.3939 109.659 65.3178 109.487 65.3178 109.285C65.3178 109.084 65.3939 108.912 65.546 108.769C65.7013 108.625 65.8861 108.554 66.1004 108.554C66.3147 108.554 66.498 108.625 66.6502 108.769C66.8055 108.912 66.8831 109.084 66.8831 109.285C66.8831 109.487 66.8055 109.659 66.6502 109.802C66.498 109.946 66.3147 110.017 66.1004 110.017ZM70.0243 118.378C69.3503 118.378 68.7975 118.223 68.3658 117.912C67.9372 117.601 67.639 117.172 67.4713 116.626C67.3036 116.081 67.2787 115.457 67.3968 114.756C67.5148 114.042 67.7539 113.413 68.1142 112.867C68.4745 112.318 68.9233 111.889 69.4606 111.581C69.9979 111.27 70.5896 111.115 71.2356 111.115C71.7388 111.115 72.1767 111.206 72.5494 111.389C72.9221 111.572 73.2094 111.828 73.4113 112.158C73.6132 112.487 73.7079 112.871 73.6955 113.31H72.596C72.5649 112.99 72.4252 112.707 72.1767 112.46C71.9313 112.21 71.5679 112.085 71.0865 112.085C70.6579 112.085 70.2635 112.194 69.9032 112.414C69.5429 112.63 69.2401 112.937 68.9947 113.333C68.7494 113.727 68.5832 114.189 68.4962 114.719C68.4031 115.262 68.4108 115.734 68.5195 116.137C68.6282 116.539 68.8255 116.852 69.1112 117.075C69.3969 117.297 69.7572 117.408 70.192 117.408C70.4778 117.408 70.7449 117.36 70.9934 117.262C71.2418 117.165 71.4623 117.024 71.6549 116.841C71.8475 116.658 71.9997 116.439 72.1115 116.183H73.2109C73.0743 116.597 72.8553 116.971 72.5541 117.303C72.2528 117.633 71.8878 117.895 71.4592 118.09C71.0306 118.282 70.5523 118.378 70.0243 118.378ZM77.4458 118.378C76.7594 118.378 76.1926 118.229 75.7453 117.93C75.2981 117.628 74.986 117.207 74.8089 116.667C74.6319 116.125 74.6039 115.494 74.7251 114.774C74.8462 114.054 75.0869 113.42 75.4472 112.871C75.8075 112.319 76.2563 111.889 76.7936 111.581C77.3309 111.27 77.921 111.115 78.5639 111.115C78.9366 111.115 79.2954 111.176 79.6401 111.298C79.9849 111.42 80.283 111.618 80.5346 111.892C80.7862 112.164 80.9617 112.524 81.061 112.972C81.1604 113.42 81.1542 113.972 81.0424 114.628L80.9679 115.085H75.4518L75.6009 114.152H79.9988C80.0703 113.756 80.0516 113.402 79.9429 113.091C79.8373 112.78 79.6525 112.534 79.3885 112.354C79.1276 112.175 78.7969 112.085 78.3962 112.085C77.9831 112.085 77.598 112.194 77.2408 112.414C76.8836 112.63 76.5855 112.905 76.3463 113.237C76.1072 113.566 75.9581 113.902 75.8991 114.243L75.7686 115.048C75.6755 115.631 75.6894 116.094 75.8106 116.439C75.9348 116.783 76.1507 117.032 76.4581 117.184C76.7656 117.334 77.1508 117.408 77.6135 117.408C77.9086 117.408 78.1803 117.369 78.4288 117.29C78.6773 117.207 78.8994 117.085 79.095 116.924C79.2907 116.759 79.4553 116.555 79.5889 116.311L80.5952 116.603C80.4243 116.957 80.1836 117.268 79.8731 117.537C79.5656 117.802 79.2053 118.009 78.7922 118.159C78.3822 118.305 77.9334 118.378 77.4458 118.378ZM85.8154 118.232L87.008 111.206H88.1075L86.9148 118.232H85.8154ZM87.8932 110.017C87.6789 110.017 87.4941 109.946 87.3388 109.802C87.1866 109.659 87.1105 109.487 87.1105 109.285C87.1105 109.084 87.1866 108.912 87.3388 108.769C87.4941 108.625 87.6789 108.554 87.8932 108.554C88.1075 108.554 88.2907 108.625 88.4429 108.769C88.5982 108.912 88.6759 109.084 88.6759 109.285C88.6759 109.487 88.5982 109.659 88.4429 109.802C88.2907 109.946 88.1075 110.017 87.8932 110.017ZM90.7362 114.006L90.0281 118.232H88.9286L90.1213 111.206H91.1835L90.9971 112.304H91.0903C91.3139 111.947 91.6168 111.661 91.9988 111.444C92.3808 111.225 92.842 111.115 93.3824 111.115C93.8607 111.115 94.2645 111.213 94.5937 111.408C94.9261 111.6 95.1606 111.892 95.2972 112.286C95.437 112.676 95.4572 113.17 95.3578 113.768L94.5937 118.232H93.4943L94.2397 113.841C94.3328 113.292 94.2599 112.862 94.0207 112.551C93.7847 112.24 93.4104 112.085 92.8979 112.085C92.5439 112.085 92.2162 112.159 91.9149 112.309C91.6168 112.458 91.3636 112.676 91.1555 112.963C90.9505 113.249 90.8108 113.597 90.7362 114.006ZM100.908 111.206L100.759 112.121H97.0501L97.1992 111.206H100.908ZM98.5595 109.523H99.659L98.5223 116.219C98.4726 116.524 98.4803 116.753 98.5456 116.905C98.6139 117.055 98.7164 117.155 98.8531 117.207C98.9928 117.256 99.1435 117.28 99.305 117.28C99.4261 117.28 99.5255 117.274 99.6031 117.262C99.6808 117.247 99.7429 117.235 99.7895 117.225L99.864 118.195C99.7802 118.223 99.6668 118.25 99.5239 118.277C99.3842 118.308 99.2118 118.323 99.0068 118.323C98.6962 118.323 98.4043 118.258 98.1309 118.127C97.8576 117.995 97.648 117.796 97.502 117.527C97.356 117.259 97.3172 116.921 97.3855 116.512L98.5595 109.523ZM104.274 118.378C103.587 118.378 103.02 118.229 102.573 117.93C102.126 117.628 101.814 117.207 101.637 116.667C101.46 116.125 101.432 115.494 101.553 114.774C101.674 114.054 101.915 113.42 102.275 112.871C102.635 112.319 103.084 111.889 103.621 111.581C104.159 111.27 104.749 111.115 105.392 111.115C105.764 111.115 106.123 111.176 106.468 111.298C106.813 111.42 107.111 111.618 107.362 111.892C107.614 112.164 107.789 112.524 107.889 112.972C107.988 113.42 107.982 113.972 107.87 114.628L107.796 115.085H102.28L102.429 114.152H106.827C106.898 113.756 106.879 113.402 106.771 113.091C106.665 112.78 106.48 112.534 106.216 112.354C105.955 112.175 105.625 112.085 105.224 112.085C104.811 112.085 104.426 112.194 104.069 112.414C103.711 112.63 103.413 112.905 103.174 113.237C102.935 113.566 102.786 113.902 102.727 114.243L102.596 115.048C102.503 115.631 102.517 116.094 102.638 116.439C102.763 116.783 102.978 117.032 103.286 117.184C103.593 117.334 103.979 117.408 104.441 117.408C104.736 117.408 105.008 117.369 105.257 117.29C105.505 117.207 105.727 117.085 105.923 116.924C106.118 116.759 106.283 116.555 106.417 116.311L107.423 116.603C107.252 116.957 107.011 117.268 106.701 117.537C106.393 117.802 106.033 118.009 105.62 118.159C105.21 118.305 104.761 118.378 104.274 118.378ZM108.953 118.232L110.146 111.206H111.208L111.022 112.268H111.096C111.283 111.92 111.567 111.638 111.949 111.421C112.331 111.205 112.736 111.097 113.165 111.097C113.249 111.097 113.35 111.098 113.468 111.101C113.586 111.101 113.677 111.106 113.743 111.115L113.556 112.213C113.519 112.204 113.435 112.19 113.305 112.171C113.174 112.15 113.034 112.139 112.885 112.139C112.538 112.139 112.216 112.211 111.921 112.354C111.626 112.495 111.379 112.69 111.18 112.94C110.981 113.187 110.854 113.469 110.798 113.786L110.053 118.232H108.953ZM118.688 111.206L118.539 112.121H114.681L114.83 111.206H118.688ZM114.793 118.232L116.154 110.237C116.216 109.834 116.365 109.499 116.601 109.231C116.84 108.962 117.124 108.761 117.453 108.627C117.786 108.493 118.123 108.426 118.464 108.426C118.735 108.426 118.95 108.447 119.112 108.49C119.277 108.532 119.396 108.572 119.471 108.609L119.005 109.542C118.949 109.523 118.874 109.5 118.781 109.473C118.691 109.446 118.567 109.432 118.408 109.432C118.045 109.432 117.769 109.522 117.579 109.702C117.39 109.882 117.262 110.145 117.197 110.493L115.893 118.232H114.793ZM120.918 118.396C120.465 118.396 120.067 118.313 119.726 118.145C119.384 117.974 119.131 117.729 118.966 117.408C118.802 117.085 118.757 116.695 118.831 116.238C118.903 115.835 119.041 115.509 119.246 115.259C119.451 115.006 119.699 114.808 119.991 114.664C120.286 114.518 120.603 114.41 120.942 114.339C121.283 114.266 121.623 114.21 121.962 114.17C122.403 114.115 122.762 114.073 123.038 114.042C123.315 114.012 123.523 113.961 123.662 113.891C123.802 113.821 123.888 113.701 123.919 113.53V113.493C123.993 113.045 123.933 112.696 123.737 112.446C123.541 112.193 123.192 112.066 122.689 112.066C122.167 112.066 121.731 112.179 121.38 112.405C121.029 112.63 120.769 112.871 120.602 113.127L119.633 112.762C119.887 112.335 120.192 112.002 120.546 111.764C120.9 111.524 121.271 111.356 121.659 111.261C122.047 111.164 122.422 111.115 122.782 111.115C123.012 111.115 123.271 111.142 123.56 111.197C123.849 111.249 124.119 111.357 124.371 111.522C124.625 111.687 124.816 111.935 124.944 112.268C125.074 112.6 125.093 113.045 124.999 113.603L124.217 118.232H123.117L123.285 117.28H123.229C123.13 117.433 122.978 117.596 122.773 117.77C122.571 117.944 122.314 118.091 122.004 118.213C121.696 118.335 121.335 118.396 120.918 118.396ZM121.235 117.427C121.67 117.427 122.05 117.343 122.377 117.175C122.706 117.007 122.97 116.791 123.169 116.526C123.37 116.26 123.496 115.981 123.546 115.689L123.714 114.701C123.658 114.756 123.547 114.806 123.383 114.852C123.218 114.894 123.032 114.933 122.824 114.966C122.619 114.997 122.418 115.024 122.223 115.048C122.03 115.07 121.875 115.088 121.757 115.103C121.465 115.14 121.187 115.199 120.923 115.282C120.662 115.361 120.442 115.481 120.261 115.643C120.084 115.802 119.974 116.018 119.931 116.292C119.865 116.667 119.957 116.951 120.206 117.143C120.454 117.332 120.797 117.427 121.235 117.427ZM129.112 118.378C128.438 118.378 127.885 118.223 127.454 117.912C127.025 117.601 126.727 117.172 126.559 116.626C126.391 116.081 126.366 115.457 126.484 114.756C126.602 114.042 126.842 113.413 127.202 112.867C127.562 112.318 128.011 111.889 128.548 111.581C129.086 111.27 129.677 111.115 130.323 111.115C130.826 111.115 131.264 111.206 131.637 111.389C132.01 111.572 132.297 111.828 132.499 112.158C132.701 112.487 132.796 112.871 132.783 113.31H131.684C131.653 112.99 131.513 112.707 131.264 112.46C131.019 112.21 130.656 112.085 130.174 112.085C129.746 112.085 129.351 112.194 128.991 112.414C128.631 112.63 128.328 112.937 128.082 113.333C127.837 113.727 127.671 114.189 127.584 114.719C127.491 115.262 127.499 115.734 127.607 116.137C127.716 116.539 127.913 116.852 128.199 117.075C128.485 117.297 128.845 117.408 129.28 117.408C129.565 117.408 129.833 117.36 130.081 117.262C130.33 117.165 130.55 117.024 130.743 116.841C130.935 116.658 131.087 116.439 131.199 116.183H132.299C132.162 116.597 131.943 116.971 131.642 117.303C131.341 117.633 130.976 117.895 130.547 118.09C130.118 118.282 129.64 118.378 129.112 118.378ZM136.534 118.378C135.847 118.378 135.28 118.229 134.833 117.93C134.386 117.628 134.074 117.207 133.897 116.667C133.72 116.125 133.692 115.494 133.813 114.774C133.934 114.054 134.175 113.42 134.535 112.871C134.895 112.319 135.344 111.889 135.881 111.581C136.419 111.27 137.009 111.115 137.652 111.115C138.024 111.115 138.383 111.176 138.728 111.298C139.073 111.42 139.371 111.618 139.622 111.892C139.874 112.164 140.049 112.524 140.149 112.972C140.248 113.42 140.242 113.972 140.13 114.628L140.056 115.085H134.54L134.689 114.152H139.087C139.158 113.756 139.139 113.402 139.031 113.091C138.925 112.78 138.74 112.534 138.476 112.354C138.215 112.175 137.885 112.085 137.484 112.085C137.071 112.085 136.686 112.194 136.329 112.414C135.971 112.63 135.673 112.905 135.434 113.237C135.195 113.566 135.046 113.902 134.987 114.243L134.856 115.048C134.763 115.631 134.777 116.094 134.898 116.439C135.023 116.783 135.238 117.032 135.546 117.184C135.853 117.334 136.238 117.408 136.701 117.408C136.996 117.408 137.268 117.369 137.517 117.29C137.765 117.207 137.987 117.085 138.183 116.924C138.378 116.759 138.543 116.555 138.677 116.311L139.683 116.603C139.512 116.957 139.271 117.268 138.961 117.537C138.653 117.802 138.293 118.009 137.88 118.159C137.47 118.305 137.021 118.378 136.534 118.378Z" fill="black"/>
<rect x="4.0744" y="212.5" width="232.24" height="146" rx="10" fill="#D9D9D9"/>
<path d="M75.369 291.5V279.864H83.2099V281.892H77.8293V284.665H82.8065V286.693H77.8293V289.472H83.2327V291.5H75.369ZM87.1432 282.773L88.7455 285.824L90.3875 282.773H92.8705L90.342 287.136L92.9386 291.5H90.467L88.7455 288.483L87.0523 291.5H84.5523L87.1432 287.136L84.6432 282.773H87.1432ZM98.95 282.773V284.591H93.6943V282.773H98.95ZM94.8875 280.682H97.308V288.818C97.308 289.042 97.342 289.216 97.4102 289.341C97.4784 289.462 97.5731 289.547 97.6943 289.597C97.8193 289.646 97.9633 289.67 98.1261 289.67C98.2398 289.67 98.3534 289.661 98.467 289.642C98.5807 289.619 98.6678 289.602 98.7284 289.591L99.1091 291.392C98.9879 291.43 98.8174 291.473 98.5977 291.523C98.378 291.576 98.111 291.608 97.7966 291.619C97.2133 291.642 96.7019 291.564 96.2625 291.386C95.8269 291.208 95.4879 290.932 95.2455 290.557C95.003 290.182 94.8837 289.708 94.8875 289.136V280.682ZM104.41 291.67C103.512 291.67 102.74 291.489 102.092 291.125C101.448 290.758 100.952 290.239 100.603 289.568C100.255 288.894 100.081 288.097 100.081 287.176C100.081 286.278 100.255 285.491 100.603 284.812C100.952 284.134 101.442 283.606 102.075 283.227C102.711 282.848 103.458 282.659 104.314 282.659C104.889 282.659 105.425 282.752 105.922 282.938C106.422 283.119 106.857 283.394 107.228 283.761C107.603 284.129 107.895 284.591 108.103 285.148C108.312 285.701 108.416 286.348 108.416 287.091V287.756H101.047V286.256H106.137C106.137 285.907 106.062 285.598 105.91 285.33C105.759 285.061 105.548 284.85 105.28 284.699C105.014 284.544 104.706 284.466 104.353 284.466C103.986 284.466 103.66 284.551 103.376 284.722C103.096 284.888 102.876 285.114 102.717 285.398C102.558 285.678 102.477 285.991 102.473 286.335V287.761C102.473 288.193 102.552 288.566 102.711 288.881C102.874 289.195 103.103 289.438 103.399 289.608C103.694 289.778 104.045 289.864 104.45 289.864C104.719 289.864 104.965 289.826 105.189 289.75C105.412 289.674 105.603 289.561 105.762 289.409C105.922 289.258 106.043 289.072 106.126 288.852L108.365 289C108.251 289.538 108.018 290.008 107.666 290.409C107.317 290.807 106.867 291.117 106.314 291.341C105.764 291.561 105.13 291.67 104.41 291.67ZM112.416 286.455V291.5H109.995V282.773H112.302V284.312H112.405C112.598 283.805 112.922 283.403 113.376 283.108C113.831 282.809 114.382 282.659 115.03 282.659C115.636 282.659 116.164 282.792 116.615 283.057C117.066 283.322 117.416 283.701 117.666 284.193C117.916 284.682 118.041 285.265 118.041 285.943V291.5H115.62V286.375C115.624 285.841 115.488 285.424 115.211 285.125C114.935 284.822 114.554 284.67 114.069 284.67C113.744 284.67 113.456 284.741 113.206 284.881C112.959 285.021 112.766 285.225 112.626 285.494C112.49 285.759 112.42 286.08 112.416 286.455ZM127.21 285.261L124.994 285.398C124.956 285.208 124.875 285.038 124.75 284.886C124.625 284.731 124.46 284.608 124.255 284.517C124.055 284.422 123.814 284.375 123.534 284.375C123.159 284.375 122.843 284.455 122.585 284.614C122.327 284.769 122.199 284.977 122.199 285.239C122.199 285.447 122.282 285.623 122.449 285.767C122.615 285.911 122.901 286.027 123.307 286.114L124.886 286.432C125.735 286.606 126.367 286.886 126.784 287.273C127.2 287.659 127.409 288.167 127.409 288.795C127.409 289.367 127.24 289.869 126.903 290.301C126.57 290.733 126.111 291.07 125.528 291.312C124.949 291.551 124.28 291.67 123.522 291.67C122.367 291.67 121.447 291.43 120.761 290.949C120.079 290.464 119.68 289.805 119.562 288.972L121.943 288.847C122.015 289.199 122.189 289.468 122.466 289.653C122.742 289.835 123.096 289.926 123.528 289.926C123.952 289.926 124.293 289.845 124.551 289.682C124.812 289.515 124.945 289.301 124.949 289.04C124.945 288.82 124.852 288.64 124.67 288.5C124.488 288.356 124.208 288.246 123.829 288.17L122.318 287.869C121.466 287.699 120.831 287.403 120.414 286.983C120.002 286.562 119.795 286.027 119.795 285.375C119.795 284.814 119.947 284.331 120.25 283.926C120.557 283.521 120.986 283.208 121.539 282.989C122.096 282.769 122.748 282.659 123.494 282.659C124.596 282.659 125.464 282.892 126.096 283.358C126.733 283.824 127.104 284.458 127.21 285.261ZM128.933 291.5V282.773H131.353V291.5H128.933ZM130.149 281.648C129.789 281.648 129.48 281.528 129.223 281.29C128.969 281.047 128.842 280.758 128.842 280.42C128.842 280.087 128.969 279.801 129.223 279.562C129.48 279.32 129.789 279.199 130.149 279.199C130.509 279.199 130.816 279.32 131.069 279.562C131.327 279.801 131.456 280.087 131.456 280.42C131.456 280.758 131.327 281.047 131.069 281.29C130.816 281.528 130.509 281.648 130.149 281.648ZM137.236 291.67C136.353 291.67 135.59 291.483 134.946 291.108C134.306 290.729 133.811 290.203 133.463 289.528C133.114 288.85 132.94 288.064 132.94 287.17C132.94 286.269 133.114 285.481 133.463 284.807C133.811 284.129 134.306 283.602 134.946 283.227C135.59 282.848 136.353 282.659 137.236 282.659C138.118 282.659 138.879 282.848 139.52 283.227C140.164 283.602 140.66 284.129 141.008 284.807C141.357 285.481 141.531 286.269 141.531 287.17C141.531 288.064 141.357 288.85 141.008 289.528C140.66 290.203 140.164 290.729 139.52 291.108C138.879 291.483 138.118 291.67 137.236 291.67ZM137.247 289.795C137.648 289.795 137.984 289.682 138.253 289.455C138.521 289.223 138.724 288.909 138.861 288.511C139.001 288.114 139.071 287.661 139.071 287.153C139.071 286.646 139.001 286.193 138.861 285.795C138.724 285.398 138.521 285.083 138.253 284.852C137.984 284.621 137.648 284.506 137.247 284.506C136.842 284.506 136.501 284.621 136.224 284.852C135.951 285.083 135.745 285.398 135.605 285.795C135.468 286.193 135.4 286.646 135.4 287.153C135.4 287.661 135.468 288.114 135.605 288.511C135.745 288.909 135.951 289.223 136.224 289.455C136.501 289.682 136.842 289.795 137.247 289.795ZM145.525 286.455V291.5H143.105V282.773H145.412V284.312H145.514C145.707 283.805 146.031 283.403 146.486 283.108C146.94 282.809 147.491 282.659 148.139 282.659C148.745 282.659 149.273 282.792 149.724 283.057C150.175 283.322 150.525 283.701 150.775 284.193C151.025 284.682 151.15 285.265 151.15 285.943V291.5H148.73V286.375C148.734 285.841 148.597 285.424 148.321 285.125C148.044 284.822 147.664 284.67 147.179 284.67C146.853 284.67 146.565 284.741 146.315 284.881C146.069 285.021 145.876 285.225 145.736 285.494C145.599 285.759 145.529 286.08 145.525 286.455Z" fill="black"/>
<rect x="465.499" y="212.5" width="232.24" height="146" rx="10" fill="#D9D9D9"/>
<path d="M542.906 290.5V278.864H550.746V280.892H545.366V283.665H550.343V285.693H545.366V288.472H550.769V290.5H542.906ZM554.68 281.773L556.282 284.824L557.924 281.773H560.407L557.879 286.136L560.475 290.5H558.004L556.282 287.483L554.589 290.5H552.089L554.68 286.136L552.18 281.773H554.68ZM566.486 281.773V283.591H561.231V281.773H566.486ZM562.424 279.682H564.844V287.818C564.844 288.042 564.879 288.216 564.947 288.341C565.015 288.462 565.11 288.547 565.231 288.597C565.356 288.646 565.5 288.67 565.663 288.67C565.776 288.67 565.89 288.661 566.004 288.642C566.117 288.619 566.204 288.602 566.265 288.591L566.646 290.392C566.524 290.43 566.354 290.473 566.134 290.523C565.915 290.576 565.647 290.608 565.333 290.619C564.75 290.642 564.238 290.564 563.799 290.386C563.363 290.208 563.024 289.932 562.782 289.557C562.54 289.182 562.42 288.708 562.424 288.136V279.682ZM571.947 290.67C571.049 290.67 570.276 290.489 569.629 290.125C568.985 289.758 568.488 289.239 568.14 288.568C567.791 287.894 567.617 287.097 567.617 286.176C567.617 285.278 567.791 284.491 568.14 283.812C568.488 283.134 568.979 282.606 569.611 282.227C570.248 281.848 570.994 281.659 571.85 281.659C572.426 281.659 572.962 281.752 573.458 281.938C573.958 282.119 574.394 282.394 574.765 282.761C575.14 283.129 575.432 283.591 575.64 284.148C575.848 284.701 575.952 285.348 575.952 286.091V286.756H568.583V285.256H573.674C573.674 284.907 573.598 284.598 573.447 284.33C573.295 284.061 573.085 283.85 572.816 283.699C572.551 283.544 572.242 283.466 571.89 283.466C571.522 283.466 571.197 283.551 570.913 283.722C570.632 283.888 570.413 284.114 570.254 284.398C570.094 284.678 570.013 284.991 570.009 285.335V286.761C570.009 287.193 570.089 287.566 570.248 287.881C570.411 288.195 570.64 288.438 570.935 288.608C571.231 288.778 571.581 288.864 571.986 288.864C572.255 288.864 572.502 288.826 572.725 288.75C572.949 288.674 573.14 288.561 573.299 288.409C573.458 288.258 573.579 288.072 573.663 287.852L575.901 288C575.788 288.538 575.555 289.008 575.202 289.409C574.854 289.807 574.403 290.117 573.85 290.341C573.301 290.561 572.666 290.67 571.947 290.67ZM579.952 285.455V290.5H577.532V281.773H579.839V283.312H579.941C580.134 282.805 580.458 282.403 580.913 282.108C581.367 281.809 581.918 281.659 582.566 281.659C583.172 281.659 583.701 281.792 584.151 282.057C584.602 282.322 584.952 282.701 585.202 283.193C585.452 283.682 585.577 284.265 585.577 284.943V290.5H583.157V285.375C583.161 284.841 583.024 284.424 582.748 284.125C582.471 283.822 582.091 283.67 581.606 283.67C581.28 283.67 580.992 283.741 580.742 283.881C580.496 284.021 580.303 284.225 580.163 284.494C580.026 284.759 579.956 285.08 579.952 285.455ZM594.746 284.261L592.531 284.398C592.493 284.208 592.411 284.038 592.286 283.886C592.161 283.731 591.996 283.608 591.792 283.517C591.591 283.422 591.351 283.375 591.07 283.375C590.695 283.375 590.379 283.455 590.121 283.614C589.864 283.769 589.735 283.977 589.735 284.239C589.735 284.447 589.818 284.623 589.985 284.767C590.152 284.911 590.438 285.027 590.843 285.114L592.423 285.432C593.271 285.606 593.904 285.886 594.32 286.273C594.737 286.659 594.945 287.167 594.945 287.795C594.945 288.367 594.777 288.869 594.44 289.301C594.106 289.733 593.648 290.07 593.065 290.312C592.485 290.551 591.817 290.67 591.059 290.67C589.904 290.67 588.983 290.43 588.298 289.949C587.616 289.464 587.216 288.805 587.099 287.972L589.479 287.847C589.551 288.199 589.726 288.468 590.002 288.653C590.279 288.835 590.633 288.926 591.065 288.926C591.489 288.926 591.83 288.845 592.087 288.682C592.349 288.515 592.481 288.301 592.485 288.04C592.481 287.82 592.388 287.64 592.207 287.5C592.025 287.356 591.745 287.246 591.366 287.17L589.854 286.869C589.002 286.699 588.368 286.403 587.951 285.983C587.538 285.562 587.332 285.027 587.332 284.375C587.332 283.814 587.483 283.331 587.786 282.926C588.093 282.521 588.523 282.208 589.076 281.989C589.633 281.769 590.284 281.659 591.031 281.659C592.133 281.659 593 281.892 593.633 282.358C594.269 282.824 594.64 283.458 594.746 284.261ZM596.469 290.5V281.773H598.89V290.5H596.469ZM597.685 280.648C597.326 280.648 597.017 280.528 596.759 280.29C596.505 280.047 596.379 279.758 596.379 279.42C596.379 279.087 596.505 278.801 596.759 278.562C597.017 278.32 597.326 278.199 597.685 278.199C598.045 278.199 598.352 278.32 598.606 278.562C598.863 278.801 598.992 279.087 598.992 279.42C598.992 279.758 598.863 280.047 598.606 280.29C598.352 280.528 598.045 280.648 597.685 280.648ZM604.772 290.67C603.889 290.67 603.126 290.483 602.482 290.108C601.842 289.729 601.348 289.203 600.999 288.528C600.651 287.85 600.477 287.064 600.477 286.17C600.477 285.269 600.651 284.481 600.999 283.807C601.348 283.129 601.842 282.602 602.482 282.227C603.126 281.848 603.889 281.659 604.772 281.659C605.655 281.659 606.416 281.848 607.056 282.227C607.7 282.602 608.196 283.129 608.545 283.807C608.893 284.481 609.067 285.269 609.067 286.17C609.067 287.064 608.893 287.85 608.545 288.528C608.196 289.203 607.7 289.729 607.056 290.108C606.416 290.483 605.655 290.67 604.772 290.67ZM604.783 288.795C605.185 288.795 605.52 288.682 605.789 288.455C606.058 288.223 606.261 287.909 606.397 287.511C606.537 287.114 606.607 286.661 606.607 286.153C606.607 285.646 606.537 285.193 606.397 284.795C606.261 284.398 606.058 284.083 605.789 283.852C605.52 283.621 605.185 283.506 604.783 283.506C604.378 283.506 604.037 283.621 603.761 283.852C603.488 284.083 603.281 284.398 603.141 284.795C603.005 285.193 602.937 285.646 602.937 286.153C602.937 286.661 603.005 287.114 603.141 287.511C603.281 287.909 603.488 288.223 603.761 288.455C604.037 288.682 604.378 288.795 604.783 288.795ZM613.062 285.455V290.5H610.641V281.773H612.948V283.312H613.05C613.244 282.805 613.567 282.403 614.022 282.108C614.477 281.809 615.028 281.659 615.675 281.659C616.281 281.659 616.81 281.792 617.261 282.057C617.711 282.322 618.062 282.701 618.312 283.193C618.562 283.682 618.687 284.265 618.687 284.943V290.5H616.266V285.375C616.27 284.841 616.134 284.424 615.857 284.125C615.581 283.822 615.2 283.67 614.715 283.67C614.389 283.67 614.102 283.741 613.852 283.881C613.605 284.021 613.412 284.225 613.272 284.494C613.136 284.759 613.066 285.08 613.062 285.455Z" fill="black"/>
<rect x="233.259" y="7.50012" width="232.24" height="146" rx="10" fill="#D9D9D9"/>
<path d="M343.461 77.2103C343.416 76.752 343.221 76.396 342.876 76.1422C342.531 75.8884 342.063 75.7615 341.473 75.7615C341.071 75.7615 340.732 75.8183 340.456 75.9319C340.179 76.0418 339.967 76.1952 339.819 76.3922C339.675 76.5891 339.603 76.8126 339.603 77.0626C339.596 77.271 339.639 77.4528 339.734 77.6081C339.832 77.7634 339.967 77.8978 340.137 78.0115C340.308 78.1213 340.505 78.2179 340.728 78.3013C340.952 78.3808 341.19 78.449 341.444 78.5058L342.49 78.7558C342.997 78.8694 343.463 79.021 343.887 79.2103C344.312 79.3997 344.679 79.6327 344.99 79.9092C345.3 80.1857 345.541 80.5115 345.711 80.8865C345.885 81.2615 345.974 81.6914 345.978 82.1763C345.974 82.8884 345.793 83.5058 345.433 84.0285C345.077 84.5475 344.562 84.9509 343.887 85.2388C343.217 85.5228 342.408 85.6649 341.461 85.6649C340.522 85.6649 339.704 85.521 339.007 85.2331C338.313 84.9452 337.772 84.5191 337.382 83.9547C336.995 83.3865 336.793 82.6838 336.774 81.8467H339.154C339.181 82.2369 339.293 82.5626 339.49 82.824C339.69 83.0816 339.957 83.2766 340.291 83.4092C340.628 83.538 341.009 83.6024 341.433 83.6024C341.849 83.6024 342.211 83.5418 342.518 83.4206C342.829 83.2994 343.069 83.1308 343.24 82.9149C343.41 82.699 343.495 82.4509 343.495 82.1706C343.495 81.9092 343.418 81.6895 343.262 81.5115C343.111 81.3335 342.887 81.1819 342.592 81.0569C342.3 80.9319 341.942 80.8183 341.518 80.716L340.251 80.3978C339.27 80.1592 338.495 79.7861 337.927 79.2785C337.359 78.771 337.077 78.0872 337.081 77.2274C337.077 76.5228 337.264 75.9073 337.643 75.3808C338.026 74.8543 338.55 74.4433 339.217 74.1478C339.884 73.8524 340.641 73.7047 341.49 73.7047C342.353 73.7047 343.107 73.8524 343.751 74.1478C344.399 74.4433 344.902 74.8543 345.262 75.3808C345.622 75.9073 345.808 76.5172 345.819 77.2103H343.461ZM347.633 85.5001V73.8638H352.224C353.107 73.8638 353.858 74.0323 354.48 74.3694C355.101 74.7028 355.574 75.1668 355.9 75.7615C356.23 76.3524 356.394 77.0342 356.394 77.8069C356.394 78.5797 356.228 79.2615 355.894 79.8524C355.561 80.4433 355.078 80.9035 354.446 81.2331C353.817 81.5626 353.055 81.7274 352.161 81.7274H349.235V79.7558H351.764C352.237 79.7558 352.627 79.6744 352.934 79.5115C353.245 79.3448 353.476 79.1157 353.627 78.824C353.783 78.5285 353.86 78.1895 353.86 77.8069C353.86 77.4206 353.783 77.0835 353.627 76.7956C353.476 76.5039 353.245 76.2785 352.934 76.1194C352.624 75.9566 352.23 75.8751 351.752 75.8751H350.093V85.5001H347.633ZM360.453 73.8638V85.5001H357.992V73.8638H360.453Z" fill="black"/>
<path d="M279.549 45.5H276.594L278.164 36.0455H281.174C282.091 36.0455 282.846 36.2378 283.44 36.6225C284.037 37.0072 284.453 37.5566 284.687 38.2706C284.924 38.9846 284.959 39.8371 284.793 40.8281C284.633 41.8007 284.322 42.6362 283.86 43.3349C283.402 44.0304 282.808 44.5659 282.078 44.9414C281.352 45.3138 280.509 45.5 279.549 45.5ZM277.91 44.4844H279.585C280.367 44.4844 281.041 44.3305 281.608 44.0227C282.177 43.715 282.635 43.2764 282.983 42.707C283.334 42.1377 283.574 41.4621 283.703 40.6804C283.833 39.9295 283.82 39.2847 283.666 38.7461C283.516 38.2044 283.219 37.7889 282.775 37.4996C282.335 37.2073 281.746 37.0611 281.007 37.0611H279.138L277.91 44.4844ZM288.745 45.6477C288.064 45.6477 287.503 45.4969 287.06 45.1953C286.616 44.8906 286.307 44.4659 286.132 43.9212C285.956 43.3733 285.929 42.7363 286.049 42.0099C286.169 41.2836 286.407 40.6435 286.764 40.0895C287.121 39.5324 287.566 39.0985 288.098 38.7876C288.631 38.4737 289.215 38.3168 289.853 38.3168C290.222 38.3168 290.577 38.3783 290.919 38.5014C291.261 38.6245 291.556 38.8246 291.805 39.1016C292.055 39.3755 292.228 39.7386 292.327 40.1911C292.425 40.6435 292.419 41.2005 292.309 41.8622L292.235 42.3239H286.769L286.916 41.3821H291.274C291.345 40.982 291.327 40.625 291.219 40.3111C291.114 39.9972 290.931 39.7494 290.67 39.5678C290.411 39.3862 290.083 39.2955 289.686 39.2955C289.277 39.2955 288.895 39.4062 288.541 39.6278C288.188 39.8464 287.892 40.1233 287.655 40.4588C287.418 40.7912 287.27 41.1297 287.212 41.4744L287.083 42.2869C286.99 42.8748 287.004 43.3426 287.124 43.6903C287.247 44.0381 287.461 44.2889 287.766 44.4428C288.071 44.5936 288.452 44.669 288.911 44.669C289.203 44.669 289.472 44.629 289.719 44.549C289.965 44.4659 290.185 44.3428 290.379 44.1797C290.573 44.0135 290.736 43.8073 290.868 43.5611L291.865 43.8565C291.696 44.2135 291.458 44.5275 291.15 44.7983C290.845 45.0661 290.488 45.2753 290.079 45.4261C289.672 45.5739 289.228 45.6477 288.745 45.6477ZM297.721 38.4091L297.574 39.3324H293.751L293.899 38.4091H297.721ZM293.862 45.5L295.21 37.4304C295.272 37.0241 295.419 36.6856 295.653 36.4148C295.89 36.1439 296.172 35.9408 296.498 35.8054C296.827 35.67 297.161 35.6023 297.5 35.6023C297.767 35.6023 297.981 35.6238 298.141 35.6669C298.305 35.71 298.423 35.75 298.497 35.7869L298.035 36.7287C297.98 36.7102 297.906 36.6871 297.814 36.6594C297.724 36.6317 297.601 36.6179 297.444 36.6179C297.084 36.6179 296.81 36.7087 296.623 36.8903C296.435 37.0719 296.309 37.3381 296.244 37.6889L294.951 45.5H293.862ZM298.066 45.5L299.248 38.4091H300.338L299.156 45.5H298.066ZM300.125 37.2088C299.913 37.2088 299.73 37.1365 299.576 36.9918C299.425 36.8472 299.35 36.6733 299.35 36.4702C299.35 36.267 299.425 36.0932 299.576 35.9485C299.73 35.8039 299.913 35.7315 300.125 35.7315C300.338 35.7315 300.519 35.8039 300.67 35.9485C300.824 36.0932 300.901 36.267 300.901 36.4702C300.901 36.6733 300.824 36.8472 300.67 36.9918C300.519 37.1365 300.338 37.2088 300.125 37.2088ZM302.943 41.2344L302.241 45.5H301.151L302.333 38.4091H303.386L303.201 39.517H303.293C303.515 39.157 303.815 38.8677 304.194 38.6491C304.572 38.4276 305.029 38.3168 305.565 38.3168C306.039 38.3168 306.439 38.4152 306.765 38.6122C307.094 38.8061 307.327 39.1016 307.462 39.4986C307.601 39.8925 307.621 40.3911 307.522 40.9943L306.765 45.5H305.676L306.414 41.0682C306.506 40.5142 306.434 40.0803 306.197 39.7663C305.963 39.4524 305.592 39.2955 305.085 39.2955C304.734 39.2955 304.409 39.3709 304.111 39.5217C303.815 39.6725 303.564 39.8925 303.358 40.1818C303.155 40.4711 303.016 40.822 302.943 41.2344ZM311.71 45.6477C311.03 45.6477 310.469 45.4969 310.025 45.1953C309.582 44.8906 309.273 44.4659 309.097 43.9212C308.922 43.3733 308.894 42.7363 309.014 42.0099C309.134 41.2836 309.373 40.6435 309.73 40.0895C310.087 39.5324 310.532 39.0985 311.064 38.7876C311.597 38.4737 312.181 38.3168 312.818 38.3168C313.188 38.3168 313.543 38.3783 313.885 38.5014C314.226 38.6245 314.522 38.8246 314.771 39.1016C315.02 39.3755 315.194 39.7386 315.293 40.1911C315.391 40.6435 315.385 41.2005 315.274 41.8622L315.2 42.3239H309.735L309.882 41.3821H314.24C314.311 40.982 314.293 40.625 314.185 40.3111C314.08 39.9972 313.897 39.7494 313.635 39.5678C313.377 39.3862 313.049 39.2955 312.652 39.2955C312.243 39.2955 311.861 39.4062 311.507 39.6278C311.153 39.8464 310.858 40.1233 310.621 40.4588C310.384 40.7912 310.236 41.1297 310.178 41.4744L310.048 42.2869C309.956 42.8748 309.97 43.3426 310.09 43.6903C310.213 44.0381 310.427 44.2889 310.732 44.4428C311.036 44.5936 311.418 44.669 311.877 44.669C312.169 44.669 312.438 44.629 312.684 44.549C312.931 44.4659 313.151 44.3428 313.345 44.1797C313.539 44.0135 313.702 43.8073 313.834 43.5611L314.831 43.8565C314.662 44.2135 314.423 44.5275 314.116 44.7983C313.811 45.0661 313.454 45.2753 313.045 45.4261C312.638 45.5739 312.194 45.6477 311.71 45.6477ZM322.294 39.9972L321.26 40.2741C321.223 40.108 321.158 39.9479 321.066 39.794C320.976 39.6371 320.838 39.5094 320.65 39.4109C320.466 39.3093 320.213 39.2585 319.893 39.2585C319.459 39.2585 319.082 39.3585 318.762 39.5586C318.442 39.7556 318.259 40.0064 318.213 40.3111C318.167 40.5788 318.228 40.7927 318.397 40.9528C318.567 41.1128 318.85 41.2436 319.247 41.3452L320.262 41.6037C320.872 41.7607 321.306 41.9961 321.564 42.31C321.826 42.6209 321.915 43.0256 321.832 43.5241C321.764 43.9304 321.587 44.2936 321.301 44.6136C321.015 44.9337 320.649 45.1861 320.202 45.3707C319.756 45.5554 319.259 45.6477 318.711 45.6477C317.982 45.6477 317.406 45.4908 316.985 45.1768C316.563 44.8598 316.338 44.4013 316.311 43.8011L317.4 43.5426C317.428 43.9212 317.563 44.2074 317.806 44.4013C318.053 44.5921 318.397 44.6875 318.841 44.6875C319.348 44.6875 319.772 44.5798 320.11 44.3643C320.449 44.1458 320.641 43.8842 320.687 43.5795C320.733 43.3303 320.684 43.1225 320.539 42.9563C320.398 42.7901 320.152 42.6655 319.801 42.5824L318.674 42.3054C318.047 42.1484 317.606 41.9084 317.354 41.5852C317.105 41.2621 317.022 40.8558 317.105 40.3665C317.172 39.9664 317.345 39.6125 317.622 39.3047C317.902 38.9969 318.253 38.7553 318.674 38.5799C319.099 38.4045 319.561 38.3168 320.059 38.3168C320.761 38.3168 321.286 38.4706 321.634 38.7784C321.981 39.0831 322.201 39.4893 322.294 39.9972ZM332.742 39.9972L331.708 40.2741C331.671 40.108 331.606 39.9479 331.514 39.794C331.425 39.6371 331.286 39.5094 331.098 39.4109C330.914 39.3093 330.661 39.2585 330.341 39.2585C329.907 39.2585 329.53 39.3585 329.21 39.5586C328.89 39.7556 328.707 40.0064 328.661 40.3111C328.615 40.5788 328.676 40.7927 328.846 40.9528C329.015 41.1128 329.298 41.2436 329.695 41.3452L330.711 41.6037C331.32 41.7607 331.754 41.9961 332.013 42.31C332.274 42.6209 332.363 43.0256 332.28 43.5241C332.213 43.9304 332.036 44.2936 331.749 44.6136C331.463 44.9337 331.097 45.1861 330.651 45.3707C330.204 45.5554 329.707 45.6477 329.16 45.6477C328.43 45.6477 327.855 45.4908 327.433 45.1768C327.011 44.8598 326.787 44.4013 326.759 43.8011L327.848 43.5426C327.876 43.9212 328.012 44.2074 328.255 44.4013C328.501 44.5921 328.846 44.6875 329.289 44.6875C329.797 44.6875 330.22 44.5798 330.558 44.3643C330.897 44.1458 331.089 43.8842 331.135 43.5795C331.182 43.3303 331.132 43.1225 330.988 42.9563C330.846 42.7901 330.6 42.6655 330.249 42.5824L329.123 42.3054C328.495 42.1484 328.055 41.9084 327.802 41.5852C327.553 41.2621 327.47 40.8558 327.553 40.3665C327.621 39.9664 327.793 39.6125 328.07 39.3047C328.35 38.9969 328.701 38.7553 329.123 38.5799C329.547 38.4045 330.009 38.3168 330.508 38.3168C331.209 38.3168 331.734 38.4706 332.082 38.7784C332.43 39.0831 332.65 39.4893 332.742 39.9972ZM336.542 45.6477C335.862 45.6477 335.301 45.4969 334.857 45.1953C334.414 44.8906 334.105 44.4659 333.93 43.9212C333.754 43.3733 333.726 42.7363 333.846 42.0099C333.966 41.2836 334.205 40.6435 334.562 40.0895C334.919 39.5324 335.364 39.0985 335.896 38.7876C336.429 38.4737 337.013 38.3168 337.65 38.3168C338.02 38.3168 338.375 38.3783 338.717 38.5014C339.058 38.6245 339.354 38.8246 339.603 39.1016C339.852 39.3755 340.026 39.7386 340.125 40.1911C340.223 40.6435 340.217 41.2005 340.106 41.8622L340.032 42.3239H334.567L334.714 41.3821H339.072C339.143 40.982 339.125 40.625 339.017 40.3111C338.912 39.9972 338.729 39.7494 338.468 39.5678C338.209 39.3862 337.881 39.2955 337.484 39.2955C337.075 39.2955 336.693 39.4062 336.339 39.6278C335.985 39.8464 335.69 40.1233 335.453 40.4588C335.216 40.7912 335.068 41.1297 335.01 41.4744L334.881 42.2869C334.788 42.8748 334.802 43.3426 334.922 43.6903C335.045 44.0381 335.259 44.2889 335.564 44.4428C335.868 44.5936 336.25 44.669 336.709 44.669C337.001 44.669 337.27 44.629 337.517 44.549C337.763 44.4659 337.983 44.3428 338.177 44.1797C338.371 44.0135 338.534 43.8073 338.666 43.5611L339.663 43.8565C339.494 44.2135 339.255 44.5275 338.948 44.7983C338.643 45.0661 338.286 45.2753 337.877 45.4261C337.47 45.5739 337.026 45.6477 336.542 45.6477ZM341.18 45.5L342.362 38.4091H343.414L343.229 39.4801H343.303C343.488 39.1293 343.77 38.8446 344.148 38.6261C344.527 38.4076 344.928 38.2983 345.353 38.2983C345.436 38.2983 345.536 38.2998 345.653 38.3029C345.77 38.3029 345.861 38.3075 345.925 38.3168L345.741 39.4247C345.704 39.4155 345.621 39.4016 345.491 39.3832C345.362 39.3616 345.224 39.3509 345.076 39.3509C344.731 39.3509 344.413 39.4232 344.12 39.5678C343.828 39.7094 343.583 39.9064 343.386 40.1587C343.189 40.408 343.063 40.6927 343.008 41.0128L342.269 45.5H341.18ZM353.238 38.4091L349.434 45.5H348.326L346.886 38.4091H348.021L349.037 44.0597H349.111L352.01 38.4091H353.238ZM353.494 45.5L354.676 38.4091H355.765L354.584 45.5H353.494ZM355.553 37.2088C355.341 37.2088 355.158 37.1365 355.004 36.9918C354.853 36.8472 354.778 36.6733 354.778 36.4702C354.778 36.267 354.853 36.0932 355.004 35.9485C355.158 35.8039 355.341 35.7315 355.553 35.7315C355.765 35.7315 355.947 35.8039 356.098 35.9485C356.252 36.0932 356.329 36.267 356.329 36.4702C356.329 36.6733 356.252 36.8472 356.098 36.9918C355.947 37.1365 355.765 37.2088 355.553 37.2088ZM359.441 45.6477C358.773 45.6477 358.226 45.4908 357.798 45.1768C357.373 44.8629 357.078 44.4305 356.911 43.8796C356.745 43.3287 356.721 42.6993 356.838 41.9915C356.955 41.2713 357.192 40.6358 357.549 40.0849C357.906 39.5309 358.35 39.0985 358.883 38.7876C359.415 38.4737 360.001 38.3168 360.642 38.3168C361.14 38.3168 361.574 38.4091 361.943 38.5937C362.313 38.7784 362.597 39.0369 362.797 39.3693C362.998 39.7017 363.091 40.0895 363.079 40.5327H361.99C361.959 40.2095 361.82 39.9233 361.574 39.674C361.331 39.4216 360.971 39.2955 360.494 39.2955C360.069 39.2955 359.678 39.4062 359.321 39.6278C358.964 39.8464 358.664 40.1557 358.421 40.5558C358.178 40.9528 358.013 41.419 357.927 41.9545C357.835 42.5024 357.842 42.9794 357.95 43.3857C358.058 43.7919 358.253 44.1074 358.536 44.332C358.82 44.5567 359.177 44.669 359.608 44.669C359.891 44.669 360.155 44.6198 360.402 44.5213C360.648 44.4228 360.866 44.2812 361.057 44.0966C361.248 43.9119 361.399 43.6903 361.509 43.4318H362.599C362.464 43.8504 362.247 44.2274 361.948 44.5629C361.65 44.8952 361.288 45.1599 360.863 45.3569C360.438 45.5508 359.965 45.6477 359.441 45.6477ZM366.795 45.6477C366.115 45.6477 365.554 45.4969 365.11 45.1953C364.667 44.8906 364.358 44.4659 364.182 43.9212C364.007 43.3733 363.979 42.7363 364.099 42.0099C364.219 41.2836 364.458 40.6435 364.815 40.0895C365.172 39.5324 365.617 39.0985 366.149 38.7876C366.681 38.4737 367.266 38.3168 367.903 38.3168C368.273 38.3168 368.628 38.3783 368.97 38.5014C369.311 38.6245 369.607 38.8246 369.856 39.1016C370.105 39.3755 370.279 39.7386 370.378 40.1911C370.476 40.6435 370.47 41.2005 370.359 41.8622L370.285 42.3239H364.82L364.967 41.3821H369.325C369.396 40.982 369.378 40.625 369.27 40.3111C369.165 39.9972 368.982 39.7494 368.72 39.5678C368.462 39.3862 368.134 39.2955 367.737 39.2955C367.328 39.2955 366.946 39.4062 366.592 39.6278C366.238 39.8464 365.943 40.1233 365.706 40.4588C365.469 40.7912 365.321 41.1297 365.263 41.4744L365.133 42.2869C365.041 42.8748 365.055 43.3426 365.175 43.6903C365.298 44.0381 365.512 44.2889 365.817 44.4428C366.121 44.5936 366.503 44.669 366.962 44.669C367.254 44.669 367.523 44.629 367.769 44.549C368.016 44.4659 368.236 44.3428 368.43 44.1797C368.623 44.0135 368.787 43.8073 368.919 43.5611L369.916 43.8565C369.747 44.2135 369.508 44.5275 369.201 44.7983C368.896 45.0661 368.539 45.2753 368.13 45.4261C367.723 45.5739 367.279 45.6477 366.795 45.6477ZM375.089 45.5L376.271 38.4091H377.36L376.178 45.5H375.089ZM377.148 37.2088C376.935 37.2088 376.752 37.1365 376.598 36.9918C376.448 36.8472 376.372 36.6733 376.372 36.4702C376.372 36.267 376.448 36.0932 376.598 35.9485C376.752 35.8039 376.935 35.7315 377.148 35.7315C377.36 35.7315 377.542 35.8039 377.693 35.9485C377.846 36.0932 377.923 36.267 377.923 36.4702C377.923 36.6733 377.846 36.8472 377.693 36.9918C377.542 37.1365 377.36 37.2088 377.148 37.2088ZM379.965 41.2344L379.263 45.5H378.174L379.356 38.4091H380.408L380.224 39.517H380.316C380.537 39.157 380.838 38.8677 381.216 38.6491C381.595 38.4276 382.052 38.3168 382.587 38.3168C383.061 38.3168 383.461 38.4152 383.787 38.6122C384.117 38.8061 384.349 39.1016 384.485 39.4986C384.623 39.8925 384.643 40.3911 384.545 40.9943L383.787 45.5H382.698L383.437 41.0682C383.529 40.5142 383.457 40.0803 383.22 39.7663C382.986 39.4524 382.615 39.2955 382.107 39.2955C381.756 39.2955 381.432 39.3709 381.133 39.5217C380.838 39.6725 380.587 39.8925 380.38 40.1818C380.177 40.4711 380.039 40.822 379.965 41.2344ZM390.044 38.4091L389.896 39.3324H386.221L386.369 38.4091H390.044ZM387.717 36.7102H388.807L387.68 43.4687C387.631 43.7765 387.639 44.0073 387.703 44.1612C387.771 44.312 387.873 44.4136 388.008 44.4659C388.147 44.5152 388.296 44.5398 388.456 44.5398C388.576 44.5398 388.674 44.5336 388.751 44.5213C388.828 44.5059 388.89 44.4936 388.936 44.4844L389.01 45.4631C388.927 45.4908 388.814 45.5185 388.673 45.5462C388.534 45.5769 388.364 45.5923 388.16 45.5923C387.853 45.5923 387.563 45.5262 387.293 45.3938C387.022 45.2615 386.814 45.0599 386.669 44.7891C386.525 44.5182 386.486 44.1766 386.554 43.7642L387.717 36.7102ZM393.379 45.6477C392.699 45.6477 392.138 45.4969 391.694 45.1953C391.251 44.8906 390.942 44.4659 390.766 43.9212C390.591 43.3733 390.563 42.7363 390.683 42.0099C390.803 41.2836 391.042 40.6435 391.399 40.0895C391.756 39.5324 392.201 39.0985 392.733 38.7876C393.265 38.4737 393.85 38.3168 394.487 38.3168C394.857 38.3168 395.212 38.3783 395.554 38.5014C395.895 38.6245 396.191 38.8246 396.44 39.1016C396.689 39.3755 396.863 39.7386 396.962 40.1911C397.06 40.6435 397.054 41.2005 396.943 41.8622L396.869 42.3239H391.403L391.551 41.3821H395.909C395.98 40.982 395.961 40.625 395.854 40.3111C395.749 39.9972 395.566 39.7494 395.304 39.5678C395.046 39.3862 394.718 39.2955 394.321 39.2955C393.912 39.2955 393.53 39.4062 393.176 39.6278C392.822 39.8464 392.527 40.1233 392.29 40.4588C392.053 40.7912 391.905 41.1297 391.847 41.4744L391.717 42.2869C391.625 42.8748 391.639 43.3426 391.759 43.6903C391.882 44.0381 392.096 44.2889 392.401 44.4428C392.705 44.5936 393.087 44.669 393.546 44.669C393.838 44.669 394.107 44.629 394.353 44.549C394.6 44.4659 394.82 44.3428 395.014 44.1797C395.207 44.0135 395.371 43.8073 395.503 43.5611L396.5 43.8565C396.331 44.2135 396.092 44.5275 395.785 44.7983C395.48 45.0661 395.123 45.2753 394.714 45.4261C394.307 45.5739 393.863 45.6477 393.379 45.6477ZM398.017 45.5L399.198 38.4091H400.251L400.066 39.4801H400.14C400.325 39.1293 400.606 38.8446 400.985 38.6261C401.364 38.4076 401.765 38.2983 402.19 38.2983C402.273 38.2983 402.373 38.2998 402.49 38.3029C402.607 38.3029 402.698 38.3075 402.762 38.3168L402.578 39.4247C402.541 39.4155 402.458 39.4016 402.328 39.3832C402.199 39.3616 402.061 39.3509 401.913 39.3509C401.568 39.3509 401.25 39.4232 400.957 39.5678C400.665 39.7094 400.42 39.9064 400.223 40.1587C400.026 40.408 399.9 40.6927 399.845 41.0128L399.106 45.5H398.017ZM407.663 38.4091L407.515 39.3324H403.693L403.84 38.4091H407.663ZM403.803 45.5L405.151 37.4304C405.213 37.0241 405.361 36.6856 405.595 36.4148C405.832 36.1439 406.113 35.9408 406.439 35.8054C406.769 35.67 407.103 35.6023 407.441 35.6023C407.709 35.6023 407.923 35.6238 408.083 35.6669C408.246 35.71 408.364 35.75 408.438 35.7869L407.977 36.7287C407.921 36.7102 407.847 36.6871 407.755 36.6594C407.666 36.6317 407.543 36.6179 407.386 36.6179C407.026 36.6179 406.752 36.7087 406.564 36.8903C406.376 37.0719 406.25 37.3381 406.185 37.6889L404.893 45.5H403.803ZM409.873 45.6662C409.424 45.6662 409.03 45.5816 408.691 45.4123C408.353 45.2399 408.102 44.9922 407.939 44.669C407.775 44.3428 407.731 43.9489 407.805 43.4872C407.875 43.081 408.012 42.7517 408.216 42.4993C408.419 42.2438 408.665 42.0438 408.954 41.8991C409.247 41.7514 409.56 41.6422 409.896 41.5714C410.234 41.4975 410.571 41.4406 410.907 41.4006C411.344 41.3452 411.699 41.3021 411.973 41.2713C412.247 41.2405 412.453 41.1897 412.592 41.119C412.73 41.0482 412.815 40.9266 412.846 40.7543V40.7173C412.92 40.2649 412.86 39.9125 412.666 39.6602C412.472 39.4047 412.126 39.277 411.627 39.277C411.11 39.277 410.678 39.3909 410.33 39.6186C409.982 39.8464 409.725 40.0895 409.559 40.348L408.599 39.9787C408.851 39.5478 409.153 39.2124 409.504 38.9723C409.854 38.7292 410.222 38.5599 410.607 38.4645C410.992 38.366 411.362 38.3168 411.719 38.3168C411.947 38.3168 412.204 38.3445 412.49 38.3999C412.777 38.4522 413.044 38.5614 413.294 38.7276C413.546 38.8938 413.735 39.1446 413.861 39.4801C413.991 39.8156 414.009 40.2649 413.917 40.8281L413.141 45.5H412.052L412.218 44.5398H412.163C412.064 44.6937 411.913 44.8583 411.71 45.0337C411.51 45.2092 411.256 45.3584 410.949 45.4815C410.644 45.6046 410.285 45.6662 409.873 45.6662ZM410.187 44.6875C410.618 44.6875 410.995 44.6029 411.318 44.4336C411.644 44.2643 411.906 44.0458 412.103 43.7781C412.303 43.5103 412.427 43.2287 412.477 42.9332L412.643 41.9361C412.587 41.9915 412.478 42.0423 412.315 42.0884C412.152 42.1315 411.967 42.17 411.761 42.2038C411.558 42.2346 411.359 42.2623 411.165 42.2869C410.975 42.3085 410.821 42.3269 410.704 42.3423C410.415 42.3793 410.139 42.4393 409.877 42.5224C409.619 42.6024 409.4 42.724 409.222 42.8871C409.047 43.0471 408.937 43.2656 408.894 43.5426C408.83 43.9212 408.92 44.2074 409.167 44.4013C409.413 44.5921 409.753 44.6875 410.187 44.6875ZM417.992 45.6477C417.324 45.6477 416.776 45.4908 416.349 45.1768C415.924 44.8629 415.628 44.4305 415.462 43.8796C415.296 43.3287 415.271 42.6993 415.388 41.9915C415.505 41.2713 415.742 40.6358 416.099 40.0849C416.456 39.5309 416.901 39.0985 417.433 38.7876C417.966 38.4737 418.552 38.3168 419.192 38.3168C419.691 38.3168 420.125 38.4091 420.494 38.5937C420.864 38.7784 421.148 39.0369 421.348 39.3693C421.548 39.7017 421.642 40.0895 421.63 40.5327H420.54C420.51 40.2095 420.371 39.9233 420.125 39.674C419.882 39.4216 419.522 39.2955 419.045 39.2955C418.62 39.2955 418.229 39.4062 417.872 39.6278C417.515 39.8464 417.215 40.1557 416.972 40.5558C416.729 40.9528 416.564 41.419 416.478 41.9545C416.386 42.5024 416.393 42.9794 416.501 43.3857C416.609 43.7919 416.804 44.1074 417.087 44.332C417.37 44.5567 417.727 44.669 418.158 44.669C418.441 44.669 418.706 44.6198 418.952 44.5213C419.199 44.4228 419.417 44.2812 419.608 44.0966C419.799 43.9119 419.949 43.6903 420.06 43.4318H421.15C421.014 43.8504 420.797 44.2274 420.499 44.5629C420.2 44.8952 419.839 45.1599 419.414 45.3569C418.989 45.5508 418.515 45.6477 417.992 45.6477ZM425.346 45.6477C424.666 45.6477 424.104 45.4969 423.661 45.1953C423.218 44.8906 422.909 44.4659 422.733 43.9212C422.558 43.3733 422.53 42.7363 422.65 42.0099C422.77 41.2836 423.009 40.6435 423.366 40.0895C423.723 39.5324 424.167 39.0985 424.7 38.7876C425.232 38.4737 425.817 38.3168 426.454 38.3168C426.823 38.3168 427.179 38.3783 427.52 38.5014C427.862 38.6245 428.158 38.8246 428.407 39.1016C428.656 39.3755 428.83 39.7386 428.929 40.1911C429.027 40.6435 429.021 41.2005 428.91 41.8622L428.836 42.3239H423.37L423.518 41.3821H427.876C427.947 40.982 427.928 40.625 427.821 40.3111C427.716 39.9972 427.533 39.7494 427.271 39.5678C427.013 39.3862 426.685 39.2955 426.288 39.2955C425.879 39.2955 425.497 39.4062 425.143 39.6278C424.789 39.8464 424.494 40.1233 424.257 40.4588C424.02 40.7912 423.872 41.1297 423.813 41.4744L423.684 42.2869C423.592 42.8748 423.606 43.3426 423.726 43.6903C423.849 44.0381 424.063 44.2889 424.367 44.4428C424.672 44.5936 425.054 44.669 425.512 44.669C425.805 44.669 426.074 44.629 426.32 44.549C426.566 44.4659 426.786 44.3428 426.98 44.1797C427.174 44.0135 427.337 43.8073 427.47 43.5611L428.467 43.8565C428.298 44.2135 428.059 44.5275 427.751 44.7983C427.447 45.0661 427.09 45.2753 426.68 45.4261C426.274 45.5739 425.829 45.6477 425.346 45.6477Z" fill="black"/>
</svg>
