<svg width="1030" height="316" viewBox="0 0 1030 316" fill="none" xmlns="http://www.w3.org/2000/svg">
<rect width="1030" height="316" fill="white"/>
<rect x="737.5" y="0.5" width="292" height="315" rx="9.5" stroke="black" stroke-dasharray="2 2"/>
<rect x="770.5" y="71.5" width="227" height="204" rx="9.5" stroke="black"/>
<rect x="795.5" y="138.5" width="35" height="87" rx="4.5" stroke="black"/>
<rect x="842.5" y="138.5" width="35" height="87" rx="4.5" stroke="black"/>
<rect x="889.5" y="138.5" width="35" height="87" rx="4.5" stroke="black"/>
<rect x="936.5" y="138.5" width="35" height="87" rx="4.5" stroke="black"/>
<path d="M843.278 260V248.364H847.426C848.328 248.364 849.076 248.519 849.67 248.83C850.269 249.14 850.716 249.57 851.011 250.119C851.307 250.665 851.455 251.295 851.455 252.011C851.455 252.723 851.305 253.35 851.006 253.892C850.71 254.43 850.263 254.848 849.665 255.148C849.07 255.447 848.322 255.597 847.42 255.597H844.278V254.085H847.261C847.83 254.085 848.292 254.004 848.648 253.841C849.008 253.678 849.271 253.441 849.438 253.131C849.604 252.82 849.688 252.447 849.688 252.011C849.688 251.572 849.602 251.191 849.432 250.869C849.265 250.547 849.002 250.301 848.642 250.131C848.286 249.956 847.818 249.869 847.239 249.869H845.034V260H843.278ZM849.023 254.75L851.898 260H849.898L847.08 254.75H849.023ZM858.983 256.381V251.273H860.688V260H859.017V258.489H858.926C858.725 258.955 858.403 259.343 857.96 259.653C857.521 259.96 856.973 260.114 856.318 260.114C855.758 260.114 855.261 259.991 854.83 259.744C854.402 259.494 854.064 259.125 853.818 258.636C853.576 258.148 853.455 257.544 853.455 256.824V251.273H855.153V256.619C855.153 257.214 855.318 257.687 855.648 258.04C855.977 258.392 856.405 258.568 856.932 258.568C857.25 258.568 857.566 258.489 857.881 258.33C858.199 258.17 858.462 257.93 858.67 257.608C858.883 257.286 858.987 256.877 858.983 256.381ZM864.669 254.818V260H862.97V251.273H864.601V252.693H864.709C864.91 252.231 865.224 251.86 865.652 251.58C866.084 251.299 866.627 251.159 867.283 251.159C867.877 251.159 868.398 251.284 868.845 251.534C869.292 251.78 869.639 252.148 869.885 252.636C870.131 253.125 870.254 253.729 870.254 254.449V260H868.555V254.653C868.555 254.021 868.391 253.527 868.061 253.17C867.732 252.811 867.279 252.631 866.703 252.631C866.309 252.631 865.959 252.716 865.652 252.886C865.349 253.057 865.108 253.307 864.93 253.636C864.756 253.962 864.669 254.356 864.669 254.818ZM876.607 251.273V252.636H871.839V251.273H876.607ZM873.118 249.182H874.817V257.438C874.817 257.767 874.866 258.015 874.964 258.182C875.063 258.345 875.19 258.456 875.345 258.517C875.504 258.574 875.677 258.602 875.862 258.602C875.999 258.602 876.118 258.593 876.22 258.574C876.322 258.555 876.402 258.54 876.459 258.528L876.766 259.932C876.667 259.97 876.527 260.008 876.345 260.045C876.163 260.087 875.936 260.11 875.663 260.114C875.216 260.121 874.8 260.042 874.413 259.875C874.027 259.708 873.714 259.451 873.476 259.102C873.237 258.754 873.118 258.316 873.118 257.79V249.182ZM878.486 260V251.273H880.185V260H878.486ZM879.344 249.926C879.048 249.926 878.795 249.828 878.582 249.631C878.374 249.43 878.27 249.191 878.27 248.915C878.27 248.634 878.374 248.396 878.582 248.199C878.795 247.998 879.048 247.898 879.344 247.898C879.639 247.898 879.891 247.998 880.099 248.199C880.312 248.396 880.418 248.634 880.418 248.915C880.418 249.191 880.312 249.43 880.099 249.631C879.891 249.828 879.639 249.926 879.344 249.926ZM882.47 260V251.273H884.101V252.693H884.209C884.391 252.212 884.688 251.837 885.101 251.568C885.514 251.295 886.008 251.159 886.584 251.159C887.167 251.159 887.656 251.295 888.05 251.568C888.447 251.841 888.741 252.216 888.93 252.693H889.021C889.23 252.227 889.561 251.856 890.016 251.58C890.47 251.299 891.012 251.159 891.641 251.159C892.432 251.159 893.078 251.407 893.578 251.903C894.082 252.4 894.334 253.148 894.334 254.148V260H892.635V254.307C892.635 253.716 892.474 253.288 892.152 253.023C891.83 252.758 891.446 252.625 890.999 252.625C890.446 252.625 890.016 252.795 889.709 253.136C889.402 253.473 889.249 253.907 889.249 254.438V260H887.555V254.199C887.555 253.725 887.408 253.345 887.112 253.057C886.817 252.769 886.432 252.625 885.959 252.625C885.637 252.625 885.339 252.71 885.067 252.881C884.798 253.047 884.58 253.28 884.413 253.58C884.25 253.879 884.169 254.225 884.169 254.619V260H882.47ZM900.372 260.176C899.512 260.176 898.772 259.992 898.151 259.625C897.533 259.254 897.056 258.733 896.719 258.062C896.385 257.388 896.219 256.598 896.219 255.693C896.219 254.799 896.385 254.011 896.719 253.33C897.056 252.648 897.526 252.116 898.128 251.733C898.734 251.35 899.442 251.159 900.253 251.159C900.745 251.159 901.223 251.241 901.685 251.403C902.147 251.566 902.562 251.822 902.929 252.17C903.296 252.519 903.586 252.972 903.798 253.528C904.01 254.081 904.116 254.754 904.116 255.545V256.148H897.179V254.875H902.452C902.452 254.428 902.361 254.032 902.179 253.688C901.997 253.339 901.741 253.064 901.412 252.864C901.086 252.663 900.704 252.562 900.264 252.562C899.787 252.562 899.37 252.68 899.014 252.915C898.662 253.146 898.389 253.449 898.196 253.824C898.007 254.195 897.912 254.598 897.912 255.034V256.028C897.912 256.612 898.014 257.108 898.219 257.517C898.427 257.926 898.717 258.239 899.088 258.455C899.459 258.667 899.893 258.773 900.389 258.773C900.711 258.773 901.005 258.727 901.27 258.636C901.535 258.542 901.764 258.402 901.957 258.216C902.151 258.03 902.298 257.801 902.401 257.528L904.009 257.818C903.88 258.292 903.649 258.706 903.315 259.062C902.986 259.415 902.571 259.689 902.071 259.886C901.575 260.08 901.009 260.176 900.372 260.176ZM912.541 253.403L911.001 253.676C910.937 253.479 910.835 253.292 910.695 253.114C910.558 252.936 910.373 252.79 910.138 252.676C909.903 252.562 909.609 252.506 909.257 252.506C908.776 252.506 908.375 252.614 908.053 252.83C907.731 253.042 907.57 253.316 907.57 253.653C907.57 253.945 907.678 254.18 907.893 254.358C908.109 254.536 908.458 254.682 908.939 254.795L910.325 255.114C911.128 255.299 911.727 255.585 912.121 255.972C912.515 256.358 912.712 256.86 912.712 257.477C912.712 258 912.56 258.466 912.257 258.875C911.958 259.28 911.539 259.598 911.001 259.83C910.467 260.061 909.848 260.176 909.143 260.176C908.166 260.176 907.369 259.968 906.751 259.551C906.134 259.131 905.755 258.534 905.615 257.761L907.257 257.511C907.359 257.939 907.57 258.263 907.888 258.483C908.206 258.699 908.621 258.807 909.132 258.807C909.689 258.807 910.134 258.691 910.467 258.46C910.801 258.225 910.967 257.939 910.967 257.602C910.967 257.33 910.865 257.1 910.661 256.915C910.46 256.729 910.151 256.589 909.734 256.494L908.257 256.17C907.443 255.985 906.84 255.689 906.45 255.284C906.064 254.879 905.871 254.366 905.871 253.744C905.871 253.229 906.015 252.778 906.303 252.392C906.59 252.006 906.988 251.705 907.496 251.489C908.003 251.269 908.585 251.159 909.24 251.159C910.183 251.159 910.926 251.364 911.467 251.773C912.009 252.178 912.367 252.722 912.541 253.403Z" fill="black"/>
<path d="M853.278 88.4375H850.79C850.744 88.1155 850.652 87.8295 850.511 87.5795C850.371 87.3258 850.191 87.1098 849.972 86.9318C849.752 86.7538 849.498 86.6174 849.21 86.5227C848.926 86.428 848.617 86.3807 848.284 86.3807C847.682 86.3807 847.157 86.5303 846.71 86.8295C846.263 87.125 845.917 87.5568 845.67 88.125C845.424 88.6894 845.301 89.375 845.301 90.1818C845.301 91.0114 845.424 91.7083 845.67 92.2727C845.92 92.8371 846.269 93.2633 846.716 93.5511C847.163 93.839 847.68 93.983 848.267 93.983C848.597 93.983 848.902 93.9394 849.182 93.8523C849.466 93.7652 849.718 93.6383 849.938 93.4716C850.157 93.3011 850.339 93.0947 850.483 92.8523C850.631 92.6098 850.733 92.3333 850.79 92.0227L853.278 92.0341C853.214 92.5682 853.053 93.0833 852.795 93.5795C852.542 94.072 852.199 94.5133 851.767 94.9034C851.339 95.2898 850.828 95.5966 850.233 95.8239C849.642 96.0473 848.973 96.1591 848.227 96.1591C847.189 96.1591 846.261 95.9242 845.443 95.4545C844.629 94.9848 843.985 94.3049 843.511 93.4148C843.042 92.5246 842.807 91.447 842.807 90.1818C842.807 88.9129 843.045 87.8333 843.523 86.9432C844 86.053 844.648 85.375 845.466 84.9091C846.284 84.4394 847.205 84.2045 848.227 84.2045C848.902 84.2045 849.527 84.2992 850.102 84.4886C850.682 84.678 851.195 84.9545 851.642 85.3182C852.089 85.678 852.453 86.1193 852.733 86.642C853.017 87.1648 853.199 87.7633 853.278 88.4375ZM858.94 96.1705C858.058 96.1705 857.295 95.983 856.651 95.608C856.01 95.2292 855.516 94.7027 855.168 94.0284C854.819 93.3504 854.645 92.5644 854.645 91.6705C854.645 90.7689 854.819 89.9811 855.168 89.3068C855.516 88.6288 856.01 88.1023 856.651 87.7273C857.295 87.3485 858.058 87.1591 858.94 87.1591C859.823 87.1591 860.584 87.3485 861.224 87.7273C861.868 88.1023 862.365 88.6288 862.713 89.3068C863.062 89.9811 863.236 90.7689 863.236 91.6705C863.236 92.5644 863.062 93.3504 862.713 94.0284C862.365 94.7027 861.868 95.2292 861.224 95.608C860.584 95.983 859.823 96.1705 858.94 96.1705ZM858.952 94.2955C859.353 94.2955 859.688 94.1818 859.957 93.9545C860.226 93.7235 860.429 93.4091 860.565 93.0114C860.705 92.6136 860.776 92.161 860.776 91.6534C860.776 91.1458 860.705 90.6932 860.565 90.2955C860.429 89.8977 860.226 89.5833 859.957 89.3523C859.688 89.1212 859.353 89.0057 858.952 89.0057C858.546 89.0057 858.205 89.1212 857.929 89.3523C857.656 89.5833 857.45 89.8977 857.31 90.2955C857.173 90.6932 857.105 91.1458 857.105 91.6534C857.105 92.161 857.173 92.6136 857.31 93.0114C857.45 93.4091 857.656 93.7235 857.929 93.9545C858.205 94.1818 858.546 94.2955 858.952 94.2955ZM864.81 96V87.2727H867.116V88.8125H867.219C867.401 88.3011 867.704 87.8977 868.128 87.6023C868.552 87.3068 869.06 87.1591 869.651 87.1591C870.249 87.1591 870.759 87.3087 871.179 87.608C871.599 87.9034 871.88 88.3049 872.02 88.8125H872.111C872.289 88.3125 872.611 87.9129 873.077 87.6136C873.546 87.3106 874.101 87.1591 874.741 87.1591C875.556 87.1591 876.217 87.4186 876.724 87.9375C877.236 88.4527 877.491 89.1837 877.491 90.1307V96H875.077V90.608C875.077 90.1231 874.948 89.7595 874.69 89.517C874.433 89.2746 874.111 89.1534 873.724 89.1534C873.285 89.1534 872.942 89.2936 872.696 89.5739C872.45 89.8504 872.327 90.2159 872.327 90.6705V96H869.98V90.5568C869.98 90.1288 869.857 89.7879 869.611 89.5341C869.368 89.2803 869.048 89.1534 868.651 89.1534C868.382 89.1534 868.139 89.2216 867.923 89.358C867.711 89.4905 867.543 89.678 867.418 89.9205C867.293 90.1591 867.23 90.4394 867.23 90.7614V96H864.81ZM879.403 99.2727V87.2727H881.79V88.7386H881.898C882.004 88.5038 882.157 88.2652 882.358 88.0227C882.563 87.7765 882.828 87.572 883.153 87.4091C883.483 87.2424 883.892 87.1591 884.381 87.1591C885.017 87.1591 885.604 87.3258 886.142 87.6591C886.68 87.9886 887.11 88.4867 887.432 89.1534C887.754 89.8163 887.915 90.6477 887.915 91.6477C887.915 92.6212 887.758 93.4432 887.443 94.1136C887.133 94.7803 886.708 95.286 886.17 95.6307C885.636 95.9716 885.038 96.142 884.375 96.142C883.905 96.142 883.506 96.0644 883.176 95.9091C882.85 95.7538 882.583 95.5587 882.375 95.3239C882.167 95.0852 882.008 94.8447 881.898 94.6023H881.824V99.2727H879.403ZM881.773 91.6364C881.773 92.1553 881.845 92.608 881.989 92.9943C882.133 93.3807 882.341 93.6818 882.614 93.8977C882.886 94.1098 883.218 94.2159 883.608 94.2159C884.002 94.2159 884.335 94.108 884.608 93.892C884.881 93.6723 885.087 93.3693 885.227 92.983C885.371 92.5928 885.443 92.1439 885.443 91.6364C885.443 91.1326 885.373 90.6894 885.233 90.3068C885.093 89.9242 884.886 89.625 884.614 89.4091C884.341 89.1932 884.006 89.0852 883.608 89.0852C883.214 89.0852 882.881 89.1894 882.608 89.3977C882.339 89.6061 882.133 89.9015 881.989 90.2841C881.845 90.6667 881.773 91.1174 881.773 91.6364ZM893.472 96.1705C892.589 96.1705 891.826 95.983 891.182 95.608C890.542 95.2292 890.047 94.7027 889.699 94.0284C889.35 93.3504 889.176 92.5644 889.176 91.6705C889.176 90.7689 889.35 89.9811 889.699 89.3068C890.047 88.6288 890.542 88.1023 891.182 87.7273C891.826 87.3485 892.589 87.1591 893.472 87.1591C894.354 87.1591 895.116 87.3485 895.756 87.7273C896.4 88.1023 896.896 88.6288 897.244 89.3068C897.593 89.9811 897.767 90.7689 897.767 91.6705C897.767 92.5644 897.593 93.3504 897.244 94.0284C896.896 94.7027 896.4 95.2292 895.756 95.608C895.116 95.983 894.354 96.1705 893.472 96.1705ZM893.483 94.2955C893.884 94.2955 894.22 94.1818 894.489 93.9545C894.758 93.7235 894.96 93.4091 895.097 93.0114C895.237 92.6136 895.307 92.161 895.307 91.6534C895.307 91.1458 895.237 90.6932 895.097 90.2955C894.96 89.8977 894.758 89.5833 894.489 89.3523C894.22 89.1212 893.884 89.0057 893.483 89.0057C893.078 89.0057 892.737 89.1212 892.46 89.3523C892.188 89.5833 891.981 89.8977 891.841 90.2955C891.705 90.6932 891.636 91.1458 891.636 91.6534C891.636 92.161 891.705 92.6136 891.841 93.0114C891.981 93.4091 892.188 93.7235 892.46 93.9545C892.737 94.1818 893.078 94.2955 893.483 94.2955ZM901.761 90.9545V96H899.341V87.2727H901.648V88.8125H901.75C901.943 88.3049 902.267 87.9034 902.722 87.608C903.176 87.3087 903.727 87.1591 904.375 87.1591C904.981 87.1591 905.509 87.2917 905.96 87.5568C906.411 87.822 906.761 88.2008 907.011 88.6932C907.261 89.1818 907.386 89.7652 907.386 90.4432V96H904.966V90.875C904.97 90.3409 904.833 89.9242 904.557 89.625C904.28 89.322 903.9 89.1705 903.415 89.1705C903.089 89.1705 902.801 89.2405 902.551 89.3807C902.305 89.5208 902.112 89.7254 901.972 89.9943C901.835 90.2595 901.765 90.5795 901.761 90.9545ZM913.271 96.1705C912.374 96.1705 911.601 95.9886 910.953 95.625C910.309 95.2576 909.813 94.7386 909.464 94.0682C909.116 93.3939 908.942 92.5966 908.942 91.6761C908.942 90.7784 909.116 89.9905 909.464 89.3125C909.813 88.6345 910.304 88.1061 910.936 87.7273C911.572 87.3485 912.319 87.1591 913.175 87.1591C913.75 87.1591 914.286 87.2519 914.783 87.4375C915.283 87.6193 915.718 87.8939 916.089 88.2614C916.464 88.6288 916.756 89.0909 916.964 89.6477C917.173 90.2008 917.277 90.8485 917.277 91.5909V92.2557H909.908V90.7557H914.999C914.999 90.4072 914.923 90.0985 914.771 89.8295C914.62 89.5606 914.41 89.3504 914.141 89.1989C913.875 89.0436 913.567 88.9659 913.214 88.9659C912.847 88.9659 912.521 89.0511 912.237 89.2216C911.957 89.3883 911.737 89.6136 911.578 89.8977C911.419 90.178 911.338 90.4905 911.334 90.8352V92.2614C911.334 92.6932 911.413 93.0663 911.572 93.3807C911.735 93.6951 911.964 93.9375 912.26 94.108C912.555 94.2784 912.906 94.3636 913.311 94.3636C913.58 94.3636 913.826 94.3258 914.05 94.25C914.273 94.1742 914.464 94.0606 914.624 93.9091C914.783 93.7576 914.904 93.572 914.987 93.3523L917.226 93.5C917.112 94.0379 916.879 94.5076 916.527 94.9091C916.179 95.3068 915.728 95.6174 915.175 95.8409C914.625 96.0606 913.991 96.1705 913.271 96.1705ZM921.277 90.9545V96H918.857V87.2727H921.163V88.8125H921.266C921.459 88.3049 921.783 87.9034 922.237 87.608C922.692 87.3087 923.243 87.1591 923.891 87.1591C924.497 87.1591 925.025 87.2917 925.476 87.5568C925.927 87.822 926.277 88.2008 926.527 88.6932C926.777 89.1818 926.902 89.7652 926.902 90.4432V96H924.482V90.875C924.485 90.3409 924.349 89.9242 924.072 89.625C923.796 89.322 923.415 89.1705 922.93 89.1705C922.605 89.1705 922.317 89.2405 922.067 89.3807C921.821 89.5208 921.627 89.7254 921.487 89.9943C921.351 90.2595 921.281 90.5795 921.277 90.9545ZM933.452 87.2727V89.0909H928.196V87.2727H933.452ZM929.389 85.1818H931.81V93.3182C931.81 93.5417 931.844 93.7159 931.912 93.8409C931.98 93.9621 932.075 94.0473 932.196 94.0966C932.321 94.1458 932.465 94.1705 932.628 94.1705C932.741 94.1705 932.855 94.161 932.969 94.142C933.082 94.1193 933.17 94.1023 933.23 94.0909L933.611 95.892C933.49 95.9299 933.319 95.9735 933.099 96.0227C932.88 96.0758 932.613 96.108 932.298 96.1193C931.715 96.142 931.204 96.0644 930.764 95.8864C930.329 95.7083 929.99 95.4318 929.747 95.0568C929.505 94.6818 929.385 94.2083 929.389 93.6364V85.1818Z" fill="black"/>
<path d="M866.278 19.4375H863.79C863.744 19.1155 863.652 18.8295 863.511 18.5795C863.371 18.3258 863.191 18.1098 862.972 17.9318C862.752 17.7538 862.498 17.6174 862.21 17.5227C861.926 17.428 861.617 17.3807 861.284 17.3807C860.682 17.3807 860.157 17.5303 859.71 17.8295C859.263 18.125 858.917 18.5568 858.67 19.125C858.424 19.6894 858.301 20.375 858.301 21.1818C858.301 22.0114 858.424 22.7083 858.67 23.2727C858.92 23.8371 859.269 24.2633 859.716 24.5511C860.163 24.839 860.68 24.983 861.267 24.983C861.597 24.983 861.902 24.9394 862.182 24.8523C862.466 24.7652 862.718 24.6383 862.938 24.4716C863.157 24.3011 863.339 24.0947 863.483 23.8523C863.631 23.6098 863.733 23.3333 863.79 23.0227L866.278 23.0341C866.214 23.5682 866.053 24.0833 865.795 24.5795C865.542 25.072 865.199 25.5133 864.767 25.9034C864.339 26.2898 863.828 26.5966 863.233 26.8239C862.642 27.0473 861.973 27.1591 861.227 27.1591C860.189 27.1591 859.261 26.9242 858.443 26.4545C857.629 25.9848 856.985 25.3049 856.511 24.4148C856.042 23.5246 855.807 22.447 855.807 21.1818C855.807 19.9129 856.045 18.8333 856.523 17.9432C857 17.053 857.648 16.375 858.466 15.9091C859.284 15.4394 860.205 15.2045 861.227 15.2045C861.902 15.2045 862.527 15.2992 863.102 15.4886C863.682 15.678 864.195 15.9545 864.642 16.3182C865.089 16.678 865.453 17.1193 865.733 17.642C866.017 18.1648 866.199 18.7633 866.278 19.4375ZM870.418 15.3636V27H867.997V15.3636H870.418ZM877.953 23.2841V18.2727H880.374V27H878.05V25.4148H877.959C877.762 25.9261 877.434 26.3371 876.976 26.6477C876.521 26.9583 875.966 27.1136 875.311 27.1136C874.728 27.1136 874.214 26.9811 873.771 26.7159C873.328 26.4508 872.982 26.0739 872.732 25.5852C872.485 25.0966 872.36 24.5114 872.357 23.8295V18.2727H874.777V23.3977C874.781 23.9129 874.919 24.3201 875.192 24.6193C875.464 24.9186 875.83 25.0682 876.288 25.0682C876.58 25.0682 876.853 25.0019 877.107 24.8693C877.36 24.733 877.565 24.5322 877.72 24.267C877.879 24.0019 877.957 23.6742 877.953 23.2841ZM889.571 20.7614L887.355 20.8977C887.317 20.7083 887.236 20.5379 887.111 20.3864C886.986 20.2311 886.821 20.108 886.616 20.017C886.416 19.9223 886.175 19.875 885.895 19.875C885.52 19.875 885.204 19.9545 884.946 20.1136C884.688 20.2689 884.56 20.4773 884.56 20.7386C884.56 20.947 884.643 21.1231 884.81 21.267C884.976 21.411 885.262 21.5265 885.668 21.6136L887.247 21.9318C888.096 22.1061 888.728 22.3864 889.145 22.7727C889.562 23.1591 889.77 23.6667 889.77 24.2955C889.77 24.8674 889.601 25.3693 889.264 25.8011C888.931 26.233 888.473 26.5701 887.889 26.8125C887.31 27.0511 886.641 27.1705 885.884 27.1705C884.728 27.1705 883.808 26.9299 883.122 26.4489C882.44 25.964 882.041 25.3049 881.923 24.4716L884.304 24.3466C884.376 24.6989 884.55 24.9678 884.827 25.1534C885.103 25.3352 885.457 25.4261 885.889 25.4261C886.313 25.4261 886.654 25.3447 886.912 25.1818C887.173 25.0152 887.306 24.8011 887.31 24.5398C887.306 24.3201 887.213 24.1402 887.031 24C886.849 23.8561 886.569 23.7462 886.19 23.6705L884.679 23.3693C883.827 23.1989 883.192 22.9034 882.776 22.483C882.363 22.0625 882.156 21.5265 882.156 20.875C882.156 20.3144 882.308 19.8314 882.611 19.4261C882.918 19.0208 883.348 18.7083 883.901 18.4886C884.457 18.2689 885.109 18.1591 885.855 18.1591C886.957 18.1591 887.825 18.392 888.457 18.858C889.094 19.3239 889.465 19.9583 889.571 20.7614ZM895.936 18.2727V20.0909H890.68V18.2727H895.936ZM891.874 16.1818H894.294V24.3182C894.294 24.5417 894.328 24.7159 894.396 24.8409C894.464 24.9621 894.559 25.0473 894.68 25.0966C894.805 25.1458 894.949 25.1705 895.112 25.1705C895.226 25.1705 895.339 25.161 895.453 25.142C895.567 25.1193 895.654 25.1023 895.714 25.0909L896.095 26.892C895.974 26.9299 895.804 26.9735 895.584 27.0227C895.364 27.0758 895.097 27.108 894.783 27.1193C894.199 27.142 893.688 27.0644 893.249 26.8864C892.813 26.7083 892.474 26.4318 892.232 26.0568C891.989 25.6818 891.87 25.2083 891.874 24.6364V16.1818ZM901.396 27.1705C900.499 27.1705 899.726 26.9886 899.078 26.625C898.434 26.2576 897.938 25.7386 897.589 25.0682C897.241 24.3939 897.067 23.5966 897.067 22.6761C897.067 21.7784 897.241 20.9905 897.589 20.3125C897.938 19.6345 898.429 19.1061 899.061 18.7273C899.697 18.3485 900.444 18.1591 901.3 18.1591C901.875 18.1591 902.411 18.2519 902.908 18.4375C903.408 18.6193 903.843 18.8939 904.214 19.2614C904.589 19.6288 904.881 20.0909 905.089 20.6477C905.298 21.2008 905.402 21.8485 905.402 22.5909V23.2557H898.033V21.7557H903.124C903.124 21.4072 903.048 21.0985 902.896 20.8295C902.745 20.5606 902.535 20.3504 902.266 20.1989C902 20.0436 901.692 19.9659 901.339 19.9659C900.972 19.9659 900.646 20.0511 900.362 20.2216C900.082 20.3883 899.862 20.6136 899.703 20.8977C899.544 21.178 899.463 21.4905 899.459 21.8352V23.2614C899.459 23.6932 899.538 24.0663 899.697 24.3807C899.86 24.6951 900.089 24.9375 900.385 25.108C900.68 25.2784 901.031 25.3636 901.436 25.3636C901.705 25.3636 901.951 25.3258 902.175 25.25C902.398 25.1742 902.589 25.0606 902.749 24.9091C902.908 24.7576 903.029 24.572 903.112 24.3523L905.351 24.5C905.237 25.0379 905.004 25.5076 904.652 25.9091C904.304 26.3068 903.853 26.6174 903.3 26.8409C902.75 27.0606 902.116 27.1705 901.396 27.1705ZM906.982 27V18.2727H909.328V19.7955H909.419C909.578 19.2538 909.845 18.8447 910.22 18.5682C910.595 18.2879 911.027 18.1477 911.516 18.1477C911.637 18.1477 911.768 18.1553 911.908 18.1705C912.048 18.1856 912.171 18.2064 912.277 18.233V20.3807C912.163 20.3466 912.006 20.3163 911.805 20.2898C911.605 20.2633 911.421 20.25 911.254 20.25C910.898 20.25 910.58 20.3277 910.3 20.483C910.023 20.6345 909.804 20.8466 909.641 21.1193C909.482 21.392 909.402 21.7064 909.402 22.0625V27H906.982Z" fill="black"/>
<rect x="346.5" y="45.5" width="227" height="225" rx="9.5" stroke="black"/>
<path d="M428.278 234V222.364H432.426C433.328 222.364 434.076 222.519 434.67 222.83C435.269 223.14 435.716 223.57 436.011 224.119C436.307 224.665 436.455 225.295 436.455 226.011C436.455 226.723 436.305 227.35 436.006 227.892C435.71 228.43 435.263 228.848 434.665 229.148C434.07 229.447 433.322 229.597 432.42 229.597H429.278V228.085H432.261C432.83 228.085 433.292 228.004 433.648 227.841C434.008 227.678 434.271 227.441 434.438 227.131C434.604 226.82 434.688 226.447 434.688 226.011C434.688 225.572 434.602 225.191 434.432 224.869C434.265 224.547 434.002 224.301 433.642 224.131C433.286 223.956 432.818 223.869 432.239 223.869H430.034V234H428.278ZM434.023 228.75L436.898 234H434.898L432.08 228.75H434.023ZM443.983 230.381V225.273H445.688V234H444.017V232.489H443.926C443.725 232.955 443.403 233.343 442.96 233.653C442.521 233.96 441.973 234.114 441.318 234.114C440.758 234.114 440.261 233.991 439.83 233.744C439.402 233.494 439.064 233.125 438.818 232.636C438.576 232.148 438.455 231.544 438.455 230.824V225.273H440.153V230.619C440.153 231.214 440.318 231.687 440.648 232.04C440.977 232.392 441.405 232.568 441.932 232.568C442.25 232.568 442.566 232.489 442.881 232.33C443.199 232.17 443.462 231.93 443.67 231.608C443.883 231.286 443.987 230.877 443.983 230.381ZM449.669 228.818V234H447.97V225.273H449.601V226.693H449.709C449.91 226.231 450.224 225.86 450.652 225.58C451.084 225.299 451.627 225.159 452.283 225.159C452.877 225.159 453.398 225.284 453.845 225.534C454.292 225.78 454.639 226.148 454.885 226.636C455.131 227.125 455.254 227.729 455.254 228.449V234H453.555V228.653C453.555 228.021 453.391 227.527 453.061 227.17C452.732 226.811 452.279 226.631 451.703 226.631C451.309 226.631 450.959 226.716 450.652 226.886C450.349 227.057 450.108 227.307 449.93 227.636C449.756 227.962 449.669 228.356 449.669 228.818ZM461.607 225.273V226.636H456.839V225.273H461.607ZM458.118 223.182H459.817V231.438C459.817 231.767 459.866 232.015 459.964 232.182C460.063 232.345 460.19 232.456 460.345 232.517C460.504 232.574 460.677 232.602 460.862 232.602C460.999 232.602 461.118 232.593 461.22 232.574C461.322 232.555 461.402 232.54 461.459 232.528L461.766 233.932C461.667 233.97 461.527 234.008 461.345 234.045C461.163 234.087 460.936 234.11 460.663 234.114C460.216 234.121 459.8 234.042 459.413 233.875C459.027 233.708 458.714 233.451 458.476 233.102C458.237 232.754 458.118 232.316 458.118 231.79V223.182ZM463.486 234V225.273H465.185V234H463.486ZM464.344 223.926C464.048 223.926 463.795 223.828 463.582 223.631C463.374 223.43 463.27 223.191 463.27 222.915C463.27 222.634 463.374 222.396 463.582 222.199C463.795 221.998 464.048 221.898 464.344 221.898C464.639 221.898 464.891 221.998 465.099 222.199C465.312 222.396 465.418 222.634 465.418 222.915C465.418 223.191 465.312 223.43 465.099 223.631C464.891 223.828 464.639 223.926 464.344 223.926ZM467.47 234V225.273H469.101V226.693H469.209C469.391 226.212 469.688 225.837 470.101 225.568C470.514 225.295 471.008 225.159 471.584 225.159C472.167 225.159 472.656 225.295 473.05 225.568C473.447 225.841 473.741 226.216 473.93 226.693H474.021C474.23 226.227 474.561 225.856 475.016 225.58C475.47 225.299 476.012 225.159 476.641 225.159C477.432 225.159 478.078 225.407 478.578 225.903C479.082 226.4 479.334 227.148 479.334 228.148V234H477.635V228.307C477.635 227.716 477.474 227.288 477.152 227.023C476.83 226.758 476.446 226.625 475.999 226.625C475.446 226.625 475.016 226.795 474.709 227.136C474.402 227.473 474.249 227.907 474.249 228.438V234H472.555V228.199C472.555 227.725 472.408 227.345 472.112 227.057C471.817 226.769 471.432 226.625 470.959 226.625C470.637 226.625 470.339 226.71 470.067 226.881C469.798 227.047 469.58 227.28 469.413 227.58C469.25 227.879 469.169 228.225 469.169 228.619V234H467.47ZM485.372 234.176C484.512 234.176 483.772 233.992 483.151 233.625C482.533 233.254 482.056 232.733 481.719 232.062C481.385 231.388 481.219 230.598 481.219 229.693C481.219 228.799 481.385 228.011 481.719 227.33C482.056 226.648 482.526 226.116 483.128 225.733C483.734 225.35 484.442 225.159 485.253 225.159C485.745 225.159 486.223 225.241 486.685 225.403C487.147 225.566 487.562 225.822 487.929 226.17C488.296 226.519 488.586 226.972 488.798 227.528C489.01 228.081 489.116 228.754 489.116 229.545V230.148H482.179V228.875H487.452C487.452 228.428 487.361 228.032 487.179 227.688C486.997 227.339 486.741 227.064 486.412 226.864C486.086 226.663 485.704 226.562 485.264 226.562C484.787 226.562 484.37 226.68 484.014 226.915C483.662 227.146 483.389 227.449 483.196 227.824C483.007 228.195 482.912 228.598 482.912 229.034V230.028C482.912 230.612 483.014 231.108 483.219 231.517C483.427 231.926 483.717 232.239 484.088 232.455C484.459 232.667 484.893 232.773 485.389 232.773C485.711 232.773 486.005 232.727 486.27 232.636C486.535 232.542 486.764 232.402 486.957 232.216C487.151 232.03 487.298 231.801 487.401 231.528L489.009 231.818C488.88 232.292 488.649 232.706 488.315 233.062C487.986 233.415 487.571 233.689 487.071 233.886C486.575 234.08 486.009 234.176 485.372 234.176Z" fill="black"/>
<path d="M424.278 62.4375H421.79C421.744 62.1155 421.652 61.8295 421.511 61.5795C421.371 61.3258 421.191 61.1098 420.972 60.9318C420.752 60.7538 420.498 60.6174 420.21 60.5227C419.926 60.428 419.617 60.3807 419.284 60.3807C418.682 60.3807 418.157 60.5303 417.71 60.8295C417.263 61.125 416.917 61.5568 416.67 62.125C416.424 62.6894 416.301 63.375 416.301 64.1818C416.301 65.0114 416.424 65.7083 416.67 66.2727C416.92 66.8371 417.269 67.2633 417.716 67.5511C418.163 67.839 418.68 67.983 419.267 67.983C419.597 67.983 419.902 67.9394 420.182 67.8523C420.466 67.7652 420.718 67.6383 420.938 67.4716C421.157 67.3011 421.339 67.0947 421.483 66.8523C421.631 66.6098 421.733 66.3333 421.79 66.0227L424.278 66.0341C424.214 66.5682 424.053 67.0833 423.795 67.5795C423.542 68.072 423.199 68.5133 422.767 68.9034C422.339 69.2898 421.828 69.5966 421.233 69.8239C420.642 70.0473 419.973 70.1591 419.227 70.1591C418.189 70.1591 417.261 69.9242 416.443 69.4545C415.629 68.9848 414.985 68.3049 414.511 67.4148C414.042 66.5246 413.807 65.447 413.807 64.1818C413.807 62.9129 414.045 61.8333 414.523 60.9432C415 60.053 415.648 59.375 416.466 58.9091C417.284 58.4394 418.205 58.2045 419.227 58.2045C419.902 58.2045 420.527 58.2992 421.102 58.4886C421.682 58.678 422.195 58.9545 422.642 59.3182C423.089 59.678 423.453 60.1193 423.733 60.642C424.017 61.1648 424.199 61.7633 424.278 62.4375ZM429.94 70.1705C429.058 70.1705 428.295 69.983 427.651 69.608C427.01 69.2292 426.516 68.7027 426.168 68.0284C425.819 67.3504 425.645 66.5644 425.645 65.6705C425.645 64.7689 425.819 63.9811 426.168 63.3068C426.516 62.6288 427.01 62.1023 427.651 61.7273C428.295 61.3485 429.058 61.1591 429.94 61.1591C430.823 61.1591 431.584 61.3485 432.224 61.7273C432.868 62.1023 433.365 62.6288 433.713 63.3068C434.062 63.9811 434.236 64.7689 434.236 65.6705C434.236 66.5644 434.062 67.3504 433.713 68.0284C433.365 68.7027 432.868 69.2292 432.224 69.608C431.584 69.983 430.823 70.1705 429.94 70.1705ZM429.952 68.2955C430.353 68.2955 430.688 68.1818 430.957 67.9545C431.226 67.7235 431.429 67.4091 431.565 67.0114C431.705 66.6136 431.776 66.161 431.776 65.6534C431.776 65.1458 431.705 64.6932 431.565 64.2955C431.429 63.8977 431.226 63.5833 430.957 63.3523C430.688 63.1212 430.353 63.0057 429.952 63.0057C429.546 63.0057 429.205 63.1212 428.929 63.3523C428.656 63.5833 428.45 63.8977 428.31 64.2955C428.173 64.6932 428.105 65.1458 428.105 65.6534C428.105 66.161 428.173 66.6136 428.31 67.0114C428.45 67.4091 428.656 67.7235 428.929 67.9545C429.205 68.1818 429.546 68.2955 429.952 68.2955ZM435.81 70V61.2727H438.116V62.8125H438.219C438.401 62.3011 438.704 61.8977 439.128 61.6023C439.552 61.3068 440.06 61.1591 440.651 61.1591C441.249 61.1591 441.759 61.3087 442.179 61.608C442.599 61.9034 442.88 62.3049 443.02 62.8125H443.111C443.289 62.3125 443.611 61.9129 444.077 61.6136C444.546 61.3106 445.101 61.1591 445.741 61.1591C446.556 61.1591 447.217 61.4186 447.724 61.9375C448.236 62.4527 448.491 63.1837 448.491 64.1307V70H446.077V64.608C446.077 64.1231 445.948 63.7595 445.69 63.517C445.433 63.2746 445.111 63.1534 444.724 63.1534C444.285 63.1534 443.942 63.2936 443.696 63.5739C443.45 63.8504 443.327 64.2159 443.327 64.6705V70H440.98V64.5568C440.98 64.1288 440.857 63.7879 440.611 63.5341C440.368 63.2803 440.048 63.1534 439.651 63.1534C439.382 63.1534 439.139 63.2216 438.923 63.358C438.711 63.4905 438.543 63.678 438.418 63.9205C438.293 64.1591 438.23 64.4394 438.23 64.7614V70H435.81ZM450.403 73.2727V61.2727H452.79V62.7386H452.898C453.004 62.5038 453.157 62.2652 453.358 62.0227C453.563 61.7765 453.828 61.572 454.153 61.4091C454.483 61.2424 454.892 61.1591 455.381 61.1591C456.017 61.1591 456.604 61.3258 457.142 61.6591C457.68 61.9886 458.11 62.4867 458.432 63.1534C458.754 63.8163 458.915 64.6477 458.915 65.6477C458.915 66.6212 458.758 67.4432 458.443 68.1136C458.133 68.7803 457.708 69.286 457.17 69.6307C456.636 69.9716 456.038 70.142 455.375 70.142C454.905 70.142 454.506 70.0644 454.176 69.9091C453.85 69.7538 453.583 69.5587 453.375 69.3239C453.167 69.0852 453.008 68.8447 452.898 68.6023H452.824V73.2727H450.403ZM452.773 65.6364C452.773 66.1553 452.845 66.608 452.989 66.9943C453.133 67.3807 453.341 67.6818 453.614 67.8977C453.886 68.1098 454.218 68.2159 454.608 68.2159C455.002 68.2159 455.335 68.108 455.608 67.892C455.881 67.6723 456.087 67.3693 456.227 66.983C456.371 66.5928 456.443 66.1439 456.443 65.6364C456.443 65.1326 456.373 64.6894 456.233 64.3068C456.093 63.9242 455.886 63.625 455.614 63.4091C455.341 63.1932 455.006 63.0852 454.608 63.0852C454.214 63.0852 453.881 63.1894 453.608 63.3977C453.339 63.6061 453.133 63.9015 452.989 64.2841C452.845 64.6667 452.773 65.1174 452.773 65.6364ZM464.472 70.1705C463.589 70.1705 462.826 69.983 462.182 69.608C461.542 69.2292 461.047 68.7027 460.699 68.0284C460.35 67.3504 460.176 66.5644 460.176 65.6705C460.176 64.7689 460.35 63.9811 460.699 63.3068C461.047 62.6288 461.542 62.1023 462.182 61.7273C462.826 61.3485 463.589 61.1591 464.472 61.1591C465.354 61.1591 466.116 61.3485 466.756 61.7273C467.4 62.1023 467.896 62.6288 468.244 63.3068C468.593 63.9811 468.767 64.7689 468.767 65.6705C468.767 66.5644 468.593 67.3504 468.244 68.0284C467.896 68.7027 467.4 69.2292 466.756 69.608C466.116 69.983 465.354 70.1705 464.472 70.1705ZM464.483 68.2955C464.884 68.2955 465.22 68.1818 465.489 67.9545C465.758 67.7235 465.96 67.4091 466.097 67.0114C466.237 66.6136 466.307 66.161 466.307 65.6534C466.307 65.1458 466.237 64.6932 466.097 64.2955C465.96 63.8977 465.758 63.5833 465.489 63.3523C465.22 63.1212 464.884 63.0057 464.483 63.0057C464.078 63.0057 463.737 63.1212 463.46 63.3523C463.188 63.5833 462.981 63.8977 462.841 64.2955C462.705 64.6932 462.636 65.1458 462.636 65.6534C462.636 66.161 462.705 66.6136 462.841 67.0114C462.981 67.4091 463.188 67.7235 463.46 67.9545C463.737 68.1818 464.078 68.2955 464.483 68.2955ZM472.761 64.9545V70H470.341V61.2727H472.648V62.8125H472.75C472.943 62.3049 473.267 61.9034 473.722 61.608C474.176 61.3087 474.727 61.1591 475.375 61.1591C475.981 61.1591 476.509 61.2917 476.96 61.5568C477.411 61.822 477.761 62.2008 478.011 62.6932C478.261 63.1818 478.386 63.7652 478.386 64.4432V70H475.966V64.875C475.97 64.3409 475.833 63.9242 475.557 63.625C475.28 63.322 474.9 63.1705 474.415 63.1705C474.089 63.1705 473.801 63.2405 473.551 63.3807C473.305 63.5208 473.112 63.7254 472.972 63.9943C472.835 64.2595 472.765 64.5795 472.761 64.9545ZM484.271 70.1705C483.374 70.1705 482.601 69.9886 481.953 69.625C481.309 69.2576 480.813 68.7386 480.464 68.0682C480.116 67.3939 479.942 66.5966 479.942 65.6761C479.942 64.7784 480.116 63.9905 480.464 63.3125C480.813 62.6345 481.304 62.1061 481.936 61.7273C482.572 61.3485 483.319 61.1591 484.175 61.1591C484.75 61.1591 485.286 61.2519 485.783 61.4375C486.283 61.6193 486.718 61.8939 487.089 62.2614C487.464 62.6288 487.756 63.0909 487.964 63.6477C488.173 64.2008 488.277 64.8485 488.277 65.5909V66.2557H480.908V64.7557H485.999C485.999 64.4072 485.923 64.0985 485.771 63.8295C485.62 63.5606 485.41 63.3504 485.141 63.1989C484.875 63.0436 484.567 62.9659 484.214 62.9659C483.847 62.9659 483.521 63.0511 483.237 63.2216C482.957 63.3883 482.737 63.6136 482.578 63.8977C482.419 64.178 482.338 64.4905 482.334 64.8352V66.2614C482.334 66.6932 482.413 67.0663 482.572 67.3807C482.735 67.6951 482.964 67.9375 483.26 68.108C483.555 68.2784 483.906 68.3636 484.311 68.3636C484.58 68.3636 484.826 68.3258 485.05 68.25C485.273 68.1742 485.464 68.0606 485.624 67.9091C485.783 67.7576 485.904 67.572 485.987 67.3523L488.226 67.5C488.112 68.0379 487.879 68.5076 487.527 68.9091C487.179 69.3068 486.728 69.6174 486.175 69.8409C485.625 70.0606 484.991 70.1705 484.271 70.1705ZM492.277 64.9545V70H489.857V61.2727H492.163V62.8125H492.266C492.459 62.3049 492.783 61.9034 493.237 61.608C493.692 61.3087 494.243 61.1591 494.891 61.1591C495.497 61.1591 496.025 61.2917 496.476 61.5568C496.927 61.822 497.277 62.2008 497.527 62.6932C497.777 63.1818 497.902 63.7652 497.902 64.4432V70H495.482V64.875C495.485 64.3409 495.349 63.9242 495.072 63.625C494.796 63.322 494.415 63.1705 493.93 63.1705C493.605 63.1705 493.317 63.2405 493.067 63.3807C492.821 63.5208 492.627 63.7254 492.487 63.9943C492.351 64.2595 492.281 64.5795 492.277 64.9545ZM504.452 61.2727V63.0909H499.196V61.2727H504.452ZM500.389 59.1818H502.81V67.3182C502.81 67.5417 502.844 67.7159 502.912 67.8409C502.98 67.9621 503.075 68.0473 503.196 68.0966C503.321 68.1458 503.465 68.1705 503.628 68.1705C503.741 68.1705 503.855 68.161 503.969 68.142C504.082 68.1193 504.17 68.1023 504.23 68.0909L504.611 69.892C504.49 69.9299 504.319 69.9735 504.099 70.0227C503.88 70.0758 503.613 70.108 503.298 70.1193C502.715 70.142 502.204 70.0644 501.764 69.8864C501.329 69.7083 500.99 69.4318 500.747 69.0568C500.505 68.6818 500.385 68.2083 500.389 67.6364V59.1818Z" fill="black"/>
<rect x="442.5" y="108.5" width="35" height="87" rx="4.5" stroke="black"/>
<rect x="3.5" y="71.5" width="179" height="174" rx="9.5" stroke="black"/>
<rect x="33.5" y="127.5" width="23.2609" height="27.3043" rx="4.5" stroke="black"/>
<rect x="65.1739" y="127.5" width="23.2609" height="27.3043" rx="4.5" stroke="black"/>
<rect x="96.8478" y="127.5" width="23.2609" height="27.3043" rx="4.5" stroke="black"/>
<rect x="128.522" y="127.5" width="23.2609" height="27.3043" rx="4.5" stroke="black"/>
<rect x="33.5" y="161.196" width="23.2609" height="27.3043" rx="4.5" stroke="black"/>
<rect x="65.1739" y="161.196" width="23.2609" height="27.3043" rx="4.5" stroke="black"/>
<rect x="96.8478" y="161.196" width="23.2609" height="27.3043" rx="4.5" stroke="black"/>
<rect x="128.522" y="161.196" width="23.2609" height="27.3043" rx="4.5" stroke="black"/>
<path d="M52.2784 220V208.364H59.5739V209.875H54.0341V213.42H59.1932V214.926H54.0341V218.489H59.642V220H52.2784ZM63.1236 211.273L65.0497 214.67L66.9929 211.273H68.8509L66.1293 215.636L68.8736 220H67.0156L65.0497 216.739L63.0895 220H61.2259L63.9418 215.636L61.2599 211.273H63.1236ZM74.669 211.273V212.636H69.902V211.273H74.669ZM71.1804 209.182H72.8793V217.438C72.8793 217.767 72.9285 218.015 73.027 218.182C73.1255 218.345 73.2524 218.456 73.4077 218.517C73.5668 218.574 73.7391 218.602 73.9247 218.602C74.0611 218.602 74.1804 218.593 74.2827 218.574C74.3849 218.555 74.4645 218.54 74.5213 218.528L74.8281 219.932C74.7296 219.97 74.5895 220.008 74.4077 220.045C74.2259 220.087 73.9986 220.11 73.7259 220.114C73.2789 220.121 72.8622 220.042 72.4759 219.875C72.0895 219.708 71.777 219.451 71.5384 219.102C71.2997 218.754 71.1804 218.316 71.1804 217.79V209.182ZM80.2159 220.176C79.3561 220.176 78.6155 219.992 77.9943 219.625C77.3769 219.254 76.8996 218.733 76.5625 218.062C76.2292 217.388 76.0625 216.598 76.0625 215.693C76.0625 214.799 76.2292 214.011 76.5625 213.33C76.8996 212.648 77.3693 212.116 77.9716 211.733C78.5777 211.35 79.286 211.159 80.0966 211.159C80.589 211.159 81.0663 211.241 81.5284 211.403C81.9905 211.566 82.4053 211.822 82.7727 212.17C83.1402 212.519 83.4299 212.972 83.642 213.528C83.8542 214.081 83.9602 214.754 83.9602 215.545V216.148H77.0227V214.875H82.2955C82.2955 214.428 82.2045 214.032 82.0227 213.688C81.8409 213.339 81.5852 213.064 81.2557 212.864C80.9299 212.663 80.5473 212.562 80.108 212.562C79.6307 212.562 79.214 212.68 78.858 212.915C78.5057 213.146 78.233 213.449 78.0398 213.824C77.8504 214.195 77.7557 214.598 77.7557 215.034V216.028C77.7557 216.612 77.858 217.108 78.0625 217.517C78.2708 217.926 78.5606 218.239 78.9318 218.455C79.303 218.667 79.7367 218.773 80.233 218.773C80.5549 218.773 80.8485 218.727 81.1136 218.636C81.3788 218.542 81.608 218.402 81.8011 218.216C81.9943 218.03 82.142 217.801 82.2443 217.528L83.8523 217.818C83.7235 218.292 83.4924 218.706 83.1591 219.062C82.8295 219.415 82.4148 219.689 81.9148 219.886C81.4186 220.08 80.8523 220.176 80.2159 220.176ZM87.544 214.818V220H85.8452V211.273H87.4759V212.693H87.5838C87.7846 212.231 88.099 211.86 88.527 211.58C88.9588 211.299 89.5024 211.159 90.1577 211.159C90.7524 211.159 91.2732 211.284 91.7202 211.534C92.1671 211.78 92.5137 212.148 92.7599 212.636C93.0062 213.125 93.1293 213.729 93.1293 214.449V220H91.4304V214.653C91.4304 214.021 91.2656 213.527 90.9361 213.17C90.6065 212.811 90.1539 212.631 89.5781 212.631C89.1842 212.631 88.8338 212.716 88.527 212.886C88.224 213.057 87.9834 213.307 87.8054 213.636C87.6312 213.962 87.544 214.356 87.544 214.818ZM101.947 213.403L100.408 213.676C100.343 213.479 100.241 213.292 100.101 213.114C99.9645 212.936 99.7789 212.79 99.544 212.676C99.3092 212.562 99.0156 212.506 98.6634 212.506C98.1823 212.506 97.7808 212.614 97.4588 212.83C97.1368 213.042 96.9759 213.316 96.9759 213.653C96.9759 213.945 97.0838 214.18 97.2997 214.358C97.5156 214.536 97.8641 214.682 98.3452 214.795L99.7315 215.114C100.535 215.299 101.133 215.585 101.527 215.972C101.921 216.358 102.118 216.86 102.118 217.477C102.118 218 101.966 218.466 101.663 218.875C101.364 219.28 100.946 219.598 100.408 219.83C99.8736 220.061 99.2543 220.176 98.5497 220.176C97.5724 220.176 96.7751 219.968 96.1577 219.551C95.5402 219.131 95.1615 218.534 95.0213 217.761L96.6634 217.511C96.7656 217.939 96.9759 218.263 97.294 218.483C97.6122 218.699 98.027 218.807 98.5384 218.807C99.0952 218.807 99.5402 218.691 99.8736 218.46C100.207 218.225 100.374 217.939 100.374 217.602C100.374 217.33 100.271 217.1 100.067 216.915C99.866 216.729 99.5573 216.589 99.1406 216.494L97.6634 216.17C96.849 215.985 96.2467 215.689 95.8565 215.284C95.4702 214.879 95.277 214.366 95.277 213.744C95.277 213.229 95.4209 212.778 95.7088 212.392C95.9967 212.006 96.3944 211.705 96.902 211.489C97.4096 211.269 97.991 211.159 98.6463 211.159C99.5895 211.159 100.332 211.364 100.874 211.773C101.415 212.178 101.773 212.722 101.947 213.403ZM103.986 220V211.273H105.685V220H103.986ZM104.844 209.926C104.548 209.926 104.295 209.828 104.082 209.631C103.874 209.43 103.77 209.191 103.77 208.915C103.77 208.634 103.874 208.396 104.082 208.199C104.295 207.998 104.548 207.898 104.844 207.898C105.139 207.898 105.391 207.998 105.599 208.199C105.812 208.396 105.918 208.634 105.918 208.915C105.918 209.191 105.812 209.43 105.599 209.631C105.391 209.828 105.139 209.926 104.844 209.926ZM111.646 220.176C110.828 220.176 110.114 219.989 109.504 219.614C108.894 219.239 108.421 218.714 108.084 218.04C107.747 217.366 107.578 216.578 107.578 215.676C107.578 214.771 107.747 213.979 108.084 213.301C108.421 212.623 108.894 212.097 109.504 211.722C110.114 211.347 110.828 211.159 111.646 211.159C112.464 211.159 113.179 211.347 113.788 211.722C114.398 212.097 114.872 212.623 115.209 213.301C115.546 213.979 115.714 214.771 115.714 215.676C115.714 216.578 115.546 217.366 115.209 218.04C114.872 218.714 114.398 219.239 113.788 219.614C113.179 219.989 112.464 220.176 111.646 220.176ZM111.652 218.75C112.182 218.75 112.622 218.61 112.97 218.33C113.319 218.049 113.576 217.676 113.743 217.21C113.913 216.744 113.999 216.231 113.999 215.67C113.999 215.114 113.913 214.602 113.743 214.136C113.576 213.667 113.319 213.29 112.97 213.006C112.622 212.722 112.182 212.58 111.652 212.58C111.118 212.58 110.675 212.722 110.322 213.006C109.974 213.29 109.714 213.667 109.544 214.136C109.377 214.602 109.294 215.114 109.294 215.67C109.294 216.231 109.377 216.744 109.544 217.21C109.714 217.676 109.974 218.049 110.322 218.33C110.675 218.61 111.118 218.75 111.652 218.75ZM119.31 214.818V220H117.611V211.273H119.241V212.693H119.349C119.55 212.231 119.865 211.86 120.293 211.58C120.724 211.299 121.268 211.159 121.923 211.159C122.518 211.159 123.039 211.284 123.486 211.534C123.933 211.78 124.279 212.148 124.526 212.636C124.772 213.125 124.895 213.729 124.895 214.449V220H123.196V214.653C123.196 214.021 123.031 213.527 122.702 213.17C122.372 212.811 121.92 212.631 121.344 212.631C120.95 212.631 120.599 212.716 120.293 212.886C119.99 213.057 119.749 213.307 119.571 213.636C119.397 213.962 119.31 214.356 119.31 214.818ZM133.713 213.403L132.173 213.676C132.109 213.479 132.007 213.292 131.866 213.114C131.73 212.936 131.545 212.79 131.31 212.676C131.075 212.562 130.781 212.506 130.429 212.506C129.948 212.506 129.546 212.614 129.224 212.83C128.902 213.042 128.741 213.316 128.741 213.653C128.741 213.945 128.849 214.18 129.065 214.358C129.281 214.536 129.63 214.682 130.111 214.795L131.497 215.114C132.3 215.299 132.899 215.585 133.293 215.972C133.687 216.358 133.884 216.86 133.884 217.477C133.884 218 133.732 218.466 133.429 218.875C133.13 219.28 132.711 219.598 132.173 219.83C131.639 220.061 131.02 220.176 130.315 220.176C129.338 220.176 128.541 219.968 127.923 219.551C127.306 219.131 126.927 218.534 126.787 217.761L128.429 217.511C128.531 217.939 128.741 218.263 129.06 218.483C129.378 218.699 129.793 218.807 130.304 218.807C130.861 218.807 131.306 218.691 131.639 218.46C131.973 218.225 132.139 217.939 132.139 217.602C132.139 217.33 132.037 217.1 131.832 216.915C131.632 216.729 131.323 216.589 130.906 216.494L129.429 216.17C128.615 215.985 128.012 215.689 127.622 215.284C127.236 214.879 127.043 214.366 127.043 213.744C127.043 213.229 127.187 212.778 127.474 212.392C127.762 212.006 128.16 211.705 128.668 211.489C129.175 211.269 129.757 211.159 130.412 211.159C131.355 211.159 132.098 211.364 132.639 211.773C133.181 212.178 133.539 212.722 133.713 213.403Z" fill="black"/>
<path d="M61.0114 95V83.3636H65.6023C66.4811 83.3636 67.2311 83.5208 67.8523 83.8352C68.4773 84.1458 68.9527 84.5871 69.2784 85.1591C69.608 85.7273 69.7727 86.3958 69.7727 87.1648C69.7727 87.9375 69.6061 88.6023 69.2727 89.1591C68.9394 89.7121 68.4564 90.1364 67.8239 90.4318C67.1951 90.7273 66.4337 90.875 65.5398 90.875H62.4659V88.8977H65.142C65.6117 88.8977 66.0019 88.8333 66.3125 88.7045C66.6231 88.5758 66.8542 88.3826 67.0057 88.125C67.161 87.8674 67.2386 87.5473 67.2386 87.1648C67.2386 86.7784 67.161 86.4527 67.0057 86.1875C66.8542 85.9223 66.6212 85.7216 66.3068 85.5852C65.9962 85.4451 65.6042 85.375 65.1307 85.375H63.4716V95H61.0114ZM67.2955 89.7045L70.1875 95H67.4716L64.642 89.7045H67.2955ZM77.0625 91.2841V86.2727H79.483V95H77.1591V93.4148H77.0682C76.8712 93.9261 76.5436 94.3371 76.0852 94.6477C75.6307 94.9583 75.0758 95.1136 74.4205 95.1136C73.8371 95.1136 73.3239 94.9811 72.8807 94.7159C72.4375 94.4508 72.0909 94.0739 71.8409 93.5852C71.5947 93.0966 71.4697 92.5114 71.4659 91.8295V86.2727H73.8864V91.3977C73.8902 91.9129 74.0284 92.3201 74.3011 92.6193C74.5739 92.9186 74.9394 93.0682 75.3977 93.0682C75.6894 93.0682 75.9621 93.0019 76.2159 92.8693C76.4697 92.733 76.6742 92.5322 76.8295 92.267C76.9886 92.0019 77.0663 91.6742 77.0625 91.2841ZM83.8395 89.9545V95H81.419V86.2727H83.7259V87.8125H83.8281C84.0213 87.3049 84.3452 86.9034 84.7997 86.608C85.2543 86.3087 85.8054 86.1591 86.4531 86.1591C87.0592 86.1591 87.5876 86.2917 88.0384 86.5568C88.4891 86.822 88.8395 87.2008 89.0895 87.6932C89.3395 88.1818 89.4645 88.7652 89.4645 89.4432V95H87.044V89.875C87.0478 89.3409 86.9115 88.9242 86.6349 88.625C86.3584 88.322 85.9777 88.1705 85.4929 88.1705C85.1671 88.1705 84.8793 88.2405 84.6293 88.3807C84.383 88.5208 84.1899 88.7254 84.0497 88.9943C83.9134 89.2595 83.8433 89.5795 83.8395 89.9545ZM96.0142 86.2727V88.0909H90.7585V86.2727H96.0142ZM91.9517 84.1818H94.3722V92.3182C94.3722 92.5417 94.4063 92.7159 94.4744 92.8409C94.5426 92.9621 94.6373 93.0473 94.7585 93.0966C94.8835 93.1458 95.0275 93.1705 95.1903 93.1705C95.304 93.1705 95.4176 93.161 95.5312 93.142C95.6449 93.1193 95.732 93.1023 95.7926 93.0909L96.1733 94.892C96.0521 94.9299 95.8816 94.9735 95.6619 95.0227C95.4422 95.0758 95.1752 95.108 94.8608 95.1193C94.2775 95.142 93.7661 95.0644 93.3267 94.8864C92.8911 94.7083 92.5521 94.4318 92.3097 94.0568C92.0672 93.6818 91.9479 93.2083 91.9517 92.6364V84.1818ZM97.5909 95V86.2727H100.011V95H97.5909ZM98.8068 85.1477C98.447 85.1477 98.1383 85.0284 97.8807 84.7898C97.6269 84.5473 97.5 84.2576 97.5 83.9205C97.5 83.5871 97.6269 83.3011 97.8807 83.0625C98.1383 82.8201 98.447 82.6989 98.8068 82.6989C99.1667 82.6989 99.4735 82.8201 99.7273 83.0625C99.9848 83.3011 100.114 83.5871 100.114 83.9205C100.114 84.2576 99.9848 84.5473 99.7273 84.7898C99.4735 85.0284 99.1667 85.1477 98.8068 85.1477ZM101.95 95V86.2727H104.257V87.8125H104.359C104.541 87.3011 104.844 86.8977 105.268 86.6023C105.693 86.3068 106.2 86.1591 106.791 86.1591C107.39 86.1591 107.899 86.3087 108.32 86.608C108.74 86.9034 109.02 87.3049 109.161 87.8125H109.251C109.429 87.3125 109.751 86.9129 110.217 86.6136C110.687 86.3106 111.242 86.1591 111.882 86.1591C112.696 86.1591 113.357 86.4186 113.865 86.9375C114.376 87.4527 114.632 88.1837 114.632 89.1307V95H112.217V89.608C112.217 89.1231 112.089 88.7595 111.831 88.517C111.573 88.2746 111.251 88.1534 110.865 88.1534C110.426 88.1534 110.083 88.2936 109.837 88.5739C109.59 88.8504 109.467 89.2159 109.467 89.6705V95H107.121V89.5568C107.121 89.1288 106.998 88.7879 106.751 88.5341C106.509 88.2803 106.189 88.1534 105.791 88.1534C105.522 88.1534 105.28 88.2216 105.064 88.358C104.852 88.4905 104.683 88.678 104.558 88.9205C104.433 89.1591 104.371 89.4394 104.371 89.7614V95H101.95ZM120.521 95.1705C119.624 95.1705 118.851 94.9886 118.203 94.625C117.559 94.2576 117.063 93.7386 116.714 93.0682C116.366 92.3939 116.192 91.5966 116.192 90.6761C116.192 89.7784 116.366 88.9905 116.714 88.3125C117.063 87.6345 117.554 87.1061 118.186 86.7273C118.822 86.3485 119.569 86.1591 120.425 86.1591C121 86.1591 121.536 86.2519 122.033 86.4375C122.533 86.6193 122.968 86.8939 123.339 87.2614C123.714 87.6288 124.006 88.0909 124.214 88.6477C124.423 89.2008 124.527 89.8485 124.527 90.5909V91.2557H117.158V89.7557H122.249C122.249 89.4072 122.173 89.0985 122.021 88.8295C121.87 88.5606 121.66 88.3504 121.391 88.1989C121.125 88.0436 120.817 87.9659 120.464 87.9659C120.097 87.9659 119.771 88.0511 119.487 88.2216C119.207 88.3883 118.987 88.6136 118.828 88.8977C118.669 89.178 118.588 89.4905 118.584 89.8352V91.2614C118.584 91.6932 118.663 92.0663 118.822 92.3807C118.985 92.6951 119.214 92.9375 119.51 93.108C119.805 93.2784 120.156 93.3636 120.561 93.3636C120.83 93.3636 121.076 93.3258 121.3 93.25C121.523 93.1742 121.714 93.0606 121.874 92.9091C122.033 92.7576 122.154 92.572 122.237 92.3523L124.476 92.5C124.362 93.0379 124.129 93.5076 123.777 93.9091C123.429 94.3068 122.978 94.6174 122.425 94.8409C121.875 95.0606 121.241 95.1705 120.521 95.1705Z" fill="black"/>
<path d="M302 158L272 140.679V175.321L302 158ZM227 158V161H275V158V155H227V158Z" fill="#CBCBCB"/>
<path d="M693 158L663 140.679V175.321L693 158ZM618 158V161H666V158V155H618V158Z" fill="#CBCBCB"/>
</svg>
