<svg width="867" height="564" viewBox="0 0 867 564" fill="none" xmlns="http://www.w3.org/2000/svg">
<rect x="4" width="863" height="561" fill="white"/>
<g filter="url(#filter0_d_2561_43)">
<path d="M4 9.99998C4 4.47714 8.47715 0 14 0H358C363.523 0 368 4.47715 368 10V546C368 551.523 363.523 556 358 556H14C8.47716 556 4 551.523 4 546V9.99998Z" fill="#F5F5F5"/>
<path d="M496 9.99998C496 4.47714 500.477 0 506 0H850C855.523 0 860 4.47715 860 10V546C860 551.523 855.523 556 850 556H506C500.477 556 496 551.523 496 546V9.99998Z" fill="#F5F5F5"/>
<path d="M386.509 265H383.554L385.124 255.545H388.134C389.051 255.545 389.806 255.738 390.4 256.123C390.997 256.507 391.413 257.057 391.647 257.771C391.884 258.485 391.919 259.337 391.753 260.328C391.593 261.301 391.282 262.136 390.82 262.835C390.362 263.53 389.768 264.066 389.038 264.441C388.312 264.814 387.469 265 386.509 265ZM384.87 263.984H386.545C387.327 263.984 388.001 263.831 388.567 263.523C389.137 263.215 389.595 262.776 389.943 262.207C390.294 261.638 390.534 260.962 390.663 260.18C390.793 259.429 390.78 258.785 390.626 258.246C390.476 257.704 390.179 257.289 389.735 257C389.295 256.707 388.706 256.561 387.967 256.561H386.098L384.87 263.984Z" fill="black"/>
<path d="M394.818 265.166C394.369 265.166 393.975 265.082 393.636 264.912C393.298 264.74 393.047 264.492 392.884 264.169C392.721 263.843 392.676 263.449 392.75 262.987C392.821 262.581 392.958 262.252 393.161 261.999C393.364 261.744 393.61 261.544 393.9 261.399C394.192 261.251 394.506 261.142 394.841 261.071C395.18 260.998 395.517 260.941 395.852 260.901C396.289 260.845 396.645 260.802 396.919 260.771C397.193 260.741 397.399 260.69 397.537 260.619C397.676 260.548 397.76 260.427 397.791 260.254V260.217C397.865 259.765 397.805 259.413 397.611 259.16C397.417 258.905 397.071 258.777 396.572 258.777C396.055 258.777 395.623 258.891 395.275 259.119C394.927 259.346 394.67 259.589 394.504 259.848L393.544 259.479C393.796 259.048 394.098 258.712 394.449 258.472C394.8 258.229 395.168 258.06 395.552 257.964C395.937 257.866 396.308 257.817 396.665 257.817C396.893 257.817 397.15 257.844 397.436 257.9C397.722 257.952 397.99 258.061 398.239 258.228C398.491 258.394 398.681 258.645 398.807 258.98C398.936 259.316 398.955 259.765 398.862 260.328L398.087 265H396.997L397.163 264.04H397.108C397.009 264.194 396.859 264.358 396.656 264.534C396.456 264.709 396.202 264.858 395.894 264.982C395.589 265.105 395.231 265.166 394.818 265.166ZM395.132 264.188C395.563 264.188 395.94 264.103 396.263 263.934C396.589 263.764 396.851 263.546 397.048 263.278C397.248 263.01 397.373 262.729 397.422 262.433L397.588 261.436C397.533 261.491 397.423 261.542 397.26 261.588C397.097 261.631 396.913 261.67 396.706 261.704C396.503 261.735 396.305 261.762 396.111 261.787C395.92 261.808 395.766 261.827 395.649 261.842C395.36 261.879 395.084 261.939 394.823 262.022C394.564 262.102 394.346 262.224 394.167 262.387C393.992 262.547 393.883 262.766 393.839 263.043C393.775 263.421 393.866 263.707 394.112 263.901C394.358 264.092 394.698 264.188 395.132 264.188Z" fill="black"/>
<path d="M404.341 257.909L404.193 258.832H400.518L400.666 257.909H404.341ZM402.014 256.21H403.104L401.977 262.969C401.928 263.277 401.936 263.507 402 263.661C402.068 263.812 402.17 263.914 402.305 263.966C402.443 264.015 402.593 264.04 402.753 264.04C402.873 264.04 402.971 264.034 403.048 264.021C403.125 264.006 403.187 263.994 403.233 263.984L403.307 264.963C403.224 264.991 403.111 265.018 402.97 265.046C402.831 265.077 402.66 265.092 402.457 265.092C402.15 265.092 401.86 265.026 401.589 264.894C401.319 264.761 401.111 264.56 400.966 264.289C400.822 264.018 400.783 263.677 400.851 263.264L402.014 256.21Z" fill="black"/>
<path d="M406.866 265.166C406.417 265.166 406.023 265.082 405.684 264.912C405.346 264.74 405.095 264.492 404.932 264.169C404.769 263.843 404.724 263.449 404.798 262.987C404.869 262.581 405.006 262.252 405.209 261.999C405.412 261.744 405.658 261.544 405.947 261.399C406.24 261.251 406.554 261.142 406.889 261.071C407.228 260.998 407.565 260.941 407.9 260.901C408.337 260.845 408.693 260.802 408.967 260.771C409.24 260.741 409.447 260.69 409.585 260.619C409.724 260.548 409.808 260.427 409.839 260.254V260.217C409.913 259.765 409.853 259.413 409.659 259.16C409.465 258.905 409.119 258.777 408.62 258.777C408.103 258.777 407.671 258.891 407.323 259.119C406.975 259.346 406.718 259.589 406.552 259.848L405.592 259.479C405.844 259.048 406.146 258.712 406.497 258.472C406.848 258.229 407.215 258.06 407.6 257.964C407.985 257.866 408.356 257.817 408.713 257.817C408.94 257.817 409.197 257.844 409.484 257.9C409.77 257.952 410.038 258.061 410.287 258.228C410.539 258.394 410.728 258.645 410.855 258.98C410.984 259.316 411.002 259.765 410.91 260.328L410.134 265H409.045L409.211 264.04H409.156C409.057 264.194 408.907 264.358 408.703 264.534C408.503 264.709 408.249 264.858 407.942 264.982C407.637 265.105 407.278 265.166 406.866 265.166ZM407.18 264.188C407.611 264.188 407.988 264.103 408.311 263.934C408.637 263.764 408.899 263.546 409.096 263.278C409.296 263.01 409.42 262.729 409.47 262.433L409.636 261.436C409.581 261.491 409.471 261.542 409.308 261.588C409.145 261.631 408.96 261.67 408.754 261.704C408.551 261.735 408.353 261.762 408.159 261.787C407.968 261.808 407.814 261.827 407.697 261.842C407.408 261.879 407.132 261.939 406.871 262.022C406.612 262.102 406.394 262.224 406.215 262.387C406.04 262.547 405.93 262.766 405.887 263.043C405.823 263.421 405.913 263.707 406.16 263.901C406.406 264.092 406.746 264.188 407.18 264.188Z" fill="black"/>
<path d="M423.701 257.909L423.553 258.832H419.879L420.026 257.909H423.701ZM421.374 256.21H422.464L421.338 262.969C421.288 263.277 421.296 263.507 421.361 263.661C421.428 263.812 421.53 263.914 421.665 263.966C421.804 264.015 421.953 264.04 422.113 264.04C422.233 264.04 422.332 264.034 422.409 264.021C422.486 264.006 422.547 263.994 422.593 263.984L422.667 264.963C422.584 264.991 422.472 265.018 422.33 265.046C422.192 265.077 422.021 265.092 421.818 265.092C421.51 265.092 421.221 265.026 420.95 264.894C420.679 264.761 420.471 264.56 420.327 264.289C420.182 264.018 420.143 263.677 420.211 263.264L421.374 256.21Z" fill="black"/>
<path d="M424.158 265L425.34 257.909H426.393L426.208 258.98H426.282C426.466 258.629 426.748 258.345 427.127 258.126C427.505 257.908 427.907 257.798 428.332 257.798C428.415 257.798 428.515 257.8 428.632 257.803C428.749 257.803 428.839 257.808 428.904 257.817L428.719 258.925C428.682 258.915 428.599 258.902 428.47 258.883C428.341 258.862 428.202 258.851 428.055 258.851C427.71 258.851 427.391 258.923 427.099 259.068C426.807 259.209 426.562 259.406 426.365 259.659C426.168 259.908 426.042 260.193 425.986 260.513L425.248 265H424.158Z" fill="black"/>
<path d="M431.089 265.166C430.639 265.166 430.245 265.082 429.907 264.912C429.568 264.74 429.318 264.492 429.154 264.169C428.991 263.843 428.947 263.449 429.021 262.987C429.091 262.581 429.228 262.252 429.431 261.999C429.634 261.744 429.881 261.544 430.17 261.399C430.462 261.251 430.776 261.142 431.112 261.071C431.45 260.998 431.787 260.941 432.123 260.901C432.56 260.845 432.915 260.802 433.189 260.771C433.463 260.741 433.669 260.69 433.808 260.619C433.946 260.548 434.031 260.427 434.062 260.254V260.217C434.136 259.765 434.076 259.413 433.882 259.16C433.688 258.905 433.342 258.777 432.843 258.777C432.326 258.777 431.893 258.891 431.546 259.119C431.198 259.346 430.941 259.589 430.775 259.848L429.815 259.479C430.067 259.048 430.369 258.712 430.719 258.472C431.07 258.229 431.438 258.06 431.823 257.964C432.207 257.866 432.578 257.817 432.935 257.817C433.163 257.817 433.42 257.844 433.706 257.9C433.992 257.952 434.26 258.061 434.509 258.228C434.762 258.394 434.951 258.645 435.077 258.98C435.207 259.316 435.225 259.765 435.133 260.328L434.357 265H433.268L433.434 264.04H433.378C433.28 264.194 433.129 264.358 432.926 264.534C432.726 264.709 432.472 264.858 432.164 264.982C431.86 265.105 431.501 265.166 431.089 265.166ZM431.403 264.188C431.833 264.188 432.211 264.103 432.534 263.934C432.86 263.764 433.121 263.546 433.318 263.278C433.518 263.01 433.643 262.729 433.692 262.433L433.859 261.436C433.803 261.491 433.694 261.542 433.531 261.588C433.368 261.631 433.183 261.67 432.977 261.704C432.774 261.735 432.575 261.762 432.381 261.787C432.191 261.808 432.037 261.827 431.92 261.842C431.63 261.879 431.355 261.939 431.093 262.022C430.835 262.102 430.616 262.224 430.438 262.387C430.262 262.547 430.153 262.766 430.11 263.043C430.045 263.421 430.136 263.707 430.382 263.901C430.629 264.092 430.969 264.188 431.403 264.188Z" fill="black"/>
<path d="M438.137 260.734L437.435 265H436.346L437.528 257.909H438.58L438.395 259.017H438.488C438.709 258.657 439.009 258.368 439.388 258.149C439.767 257.928 440.224 257.817 440.759 257.817C441.233 257.817 441.633 257.915 441.959 258.112C442.289 258.306 442.521 258.602 442.656 258.999C442.795 259.393 442.815 259.891 442.716 260.494L441.959 265H440.87L441.608 260.568C441.701 260.014 441.628 259.58 441.392 259.266C441.158 258.952 440.787 258.795 440.279 258.795C439.928 258.795 439.603 258.871 439.305 259.022C439.009 259.172 438.759 259.393 438.552 259.682C438.349 259.971 438.211 260.322 438.137 260.734Z" fill="black"/>
<path d="M449.896 259.497L448.862 259.774C448.825 259.608 448.761 259.448 448.668 259.294C448.579 259.137 448.44 259.009 448.253 258.911C448.068 258.809 447.816 258.759 447.496 258.759C447.062 258.759 446.685 258.859 446.365 259.059C446.045 259.256 445.861 259.506 445.815 259.811C445.769 260.079 445.831 260.293 446 260.453C446.169 260.613 446.452 260.744 446.849 260.845L447.865 261.104C448.474 261.261 448.908 261.496 449.167 261.81C449.428 262.121 449.518 262.526 449.435 263.024C449.367 263.43 449.19 263.794 448.904 264.114C448.617 264.434 448.251 264.686 447.805 264.871C447.359 265.055 446.862 265.148 446.314 265.148C445.584 265.148 445.009 264.991 444.587 264.677C444.166 264.36 443.941 263.901 443.913 263.301L445.003 263.043C445.03 263.421 445.166 263.707 445.409 263.901C445.655 264.092 446 264.188 446.443 264.188C446.951 264.188 447.374 264.08 447.713 263.864C448.051 263.646 448.244 263.384 448.29 263.08C448.336 262.83 448.287 262.623 448.142 262.456C448 262.29 447.754 262.165 447.403 262.082L446.277 261.805C445.649 261.648 445.209 261.408 444.957 261.085C444.707 260.762 444.624 260.356 444.707 259.866C444.775 259.466 444.947 259.112 445.224 258.805C445.504 258.497 445.855 258.255 446.277 258.08C446.702 257.904 447.163 257.817 447.662 257.817C448.364 257.817 448.888 257.971 449.236 258.278C449.584 258.583 449.804 258.989 449.896 259.497Z" fill="black"/>
<path d="M455.082 257.909L454.934 258.832H451.112L451.259 257.909H455.082ZM451.222 265L452.57 256.93C452.632 256.524 452.78 256.186 453.013 255.915C453.25 255.644 453.532 255.441 453.858 255.305C454.188 255.17 454.522 255.102 454.86 255.102C455.128 255.102 455.342 255.124 455.502 255.167C455.665 255.21 455.783 255.25 455.857 255.287L455.396 256.229C455.34 256.21 455.266 256.187 455.174 256.159C455.085 256.132 454.962 256.118 454.805 256.118C454.445 256.118 454.171 256.209 453.983 256.39C453.795 256.572 453.669 256.838 453.604 257.189L452.312 265H451.222Z" fill="black"/>
<path d="M458.089 265.148C457.409 265.148 456.847 264.997 456.404 264.695C455.961 264.391 455.652 263.966 455.476 263.421C455.301 262.873 455.273 262.236 455.393 261.51C455.513 260.784 455.752 260.143 456.109 259.589C456.466 259.032 456.911 258.598 457.443 258.288C457.975 257.974 458.56 257.817 459.197 257.817C459.567 257.817 459.922 257.878 460.264 258.001C460.605 258.125 460.901 258.325 461.15 258.602C461.399 258.875 461.573 259.239 461.672 259.691C461.77 260.143 461.764 260.701 461.653 261.362L461.579 261.824H456.113L456.261 260.882H460.619C460.69 260.482 460.671 260.125 460.564 259.811C460.459 259.497 460.276 259.249 460.014 259.068C459.756 258.886 459.428 258.795 459.031 258.795C458.622 258.795 458.24 258.906 457.886 259.128C457.532 259.346 457.237 259.623 457 259.959C456.763 260.291 456.615 260.63 456.557 260.974L456.427 261.787C456.335 262.375 456.349 262.843 456.469 263.19C456.592 263.538 456.806 263.789 457.111 263.943C457.415 264.094 457.797 264.169 458.255 264.169C458.548 264.169 458.817 264.129 459.063 264.049C459.31 263.966 459.53 263.843 459.724 263.68C459.917 263.513 460.081 263.307 460.213 263.061L461.21 263.357C461.041 263.714 460.802 264.027 460.495 264.298C460.19 264.566 459.833 264.775 459.423 264.926C459.017 265.074 458.573 265.148 458.089 265.148Z" fill="black"/>
<path d="M462.727 265L463.908 257.909H464.961L464.776 258.98H464.85C465.035 258.629 465.316 258.345 465.695 258.126C466.073 257.908 466.475 257.798 466.9 257.798C466.983 257.798 467.083 257.8 467.2 257.803C467.317 257.803 467.408 257.808 467.472 257.817L467.288 258.925C467.251 258.915 467.168 258.902 467.038 258.883C466.909 258.862 466.771 258.851 466.623 258.851C466.278 258.851 465.96 258.923 465.667 259.068C465.375 259.209 465.13 259.406 464.933 259.659C464.736 259.908 464.61 260.193 464.555 260.513L463.816 265H462.727Z" fill="black"/>
<path d="M86 224C86 218.477 90.4772 214 96 214H304C309.523 214 314 218.477 314 224V350C314 355.523 309.523 360 304 360H96C90.4772 360 86 355.523 86 350V224Z" fill="#D9D9D9"/>
<path d="M169.278 285.438H166.79C166.744 285.116 166.652 284.83 166.511 284.58C166.371 284.326 166.191 284.11 165.972 283.932C165.752 283.754 165.498 283.617 165.21 283.523C164.926 283.428 164.617 283.381 164.284 283.381C163.682 283.381 163.157 283.53 162.71 283.83C162.263 284.125 161.917 284.557 161.67 285.125C161.424 285.689 161.301 286.375 161.301 287.182C161.301 288.011 161.424 288.708 161.67 289.273C161.92 289.837 162.269 290.263 162.716 290.551C163.163 290.839 163.68 290.983 164.267 290.983C164.597 290.983 164.902 290.939 165.182 290.852C165.466 290.765 165.718 290.638 165.938 290.472C166.157 290.301 166.339 290.095 166.483 289.852C166.631 289.61 166.733 289.333 166.79 289.023L169.278 289.034C169.214 289.568 169.053 290.083 168.795 290.58C168.542 291.072 168.199 291.513 167.767 291.903C167.339 292.29 166.828 292.597 166.233 292.824C165.642 293.047 164.973 293.159 164.227 293.159C163.189 293.159 162.261 292.924 161.443 292.455C160.629 291.985 159.985 291.305 159.511 290.415C159.042 289.525 158.807 288.447 158.807 287.182C158.807 285.913 159.045 284.833 159.523 283.943C160 283.053 160.648 282.375 161.466 281.909C162.284 281.439 163.205 281.205 164.227 281.205C164.902 281.205 165.527 281.299 166.102 281.489C166.682 281.678 167.195 281.955 167.642 282.318C168.089 282.678 168.453 283.119 168.733 283.642C169.017 284.165 169.199 284.763 169.278 285.438Z" fill="black"/>
<path d="M174.94 293.17C174.058 293.17 173.295 292.983 172.651 292.608C172.01 292.229 171.516 291.703 171.168 291.028C170.819 290.35 170.645 289.564 170.645 288.67C170.645 287.769 170.819 286.981 171.168 286.307C171.516 285.629 172.01 285.102 172.651 284.727C173.295 284.348 174.058 284.159 174.94 284.159C175.823 284.159 176.584 284.348 177.224 284.727C177.868 285.102 178.365 285.629 178.713 286.307C179.062 286.981 179.236 287.769 179.236 288.67C179.236 289.564 179.062 290.35 178.713 291.028C178.365 291.703 177.868 292.229 177.224 292.608C176.584 292.983 175.823 293.17 174.94 293.17ZM174.952 291.295C175.353 291.295 175.688 291.182 175.957 290.955C176.226 290.723 176.429 290.409 176.565 290.011C176.705 289.614 176.776 289.161 176.776 288.653C176.776 288.146 176.705 287.693 176.565 287.295C176.429 286.898 176.226 286.583 175.957 286.352C175.688 286.121 175.353 286.006 174.952 286.006C174.546 286.006 174.205 286.121 173.929 286.352C173.656 286.583 173.45 286.898 173.31 287.295C173.173 287.693 173.105 288.146 173.105 288.653C173.105 289.161 173.173 289.614 173.31 290.011C173.45 290.409 173.656 290.723 173.929 290.955C174.205 291.182 174.546 291.295 174.952 291.295Z" fill="black"/>
<path d="M183.23 287.955V293H180.81V284.273H183.116V285.812H183.219C183.412 285.305 183.736 284.903 184.19 284.608C184.645 284.309 185.196 284.159 185.844 284.159C186.45 284.159 186.978 284.292 187.429 284.557C187.88 284.822 188.23 285.201 188.48 285.693C188.73 286.182 188.855 286.765 188.855 287.443V293H186.435V287.875C186.438 287.341 186.302 286.924 186.026 286.625C185.749 286.322 185.368 286.17 184.884 286.17C184.558 286.17 184.27 286.241 184.02 286.381C183.774 286.521 183.58 286.725 183.44 286.994C183.304 287.259 183.234 287.58 183.23 287.955Z" fill="black"/>
<path d="M193.183 287.955V293H190.763V284.273H193.07V285.812H193.172C193.365 285.305 193.689 284.903 194.143 284.608C194.598 284.309 195.149 284.159 195.797 284.159C196.403 284.159 196.931 284.292 197.382 284.557C197.833 284.822 198.183 285.201 198.433 285.693C198.683 286.182 198.808 286.765 198.808 287.443V293H196.388V287.875C196.392 287.341 196.255 286.924 195.979 286.625C195.702 286.322 195.322 286.17 194.837 286.17C194.511 286.17 194.223 286.241 193.973 286.381C193.727 286.521 193.534 286.725 193.393 286.994C193.257 287.259 193.187 287.58 193.183 287.955Z" fill="black"/>
<path d="M204.693 293.17C203.795 293.17 203.023 292.989 202.375 292.625C201.731 292.258 201.235 291.739 200.886 291.068C200.538 290.394 200.364 289.597 200.364 288.676C200.364 287.778 200.538 286.991 200.886 286.312C201.235 285.634 201.725 285.106 202.358 284.727C202.994 284.348 203.741 284.159 204.597 284.159C205.172 284.159 205.708 284.252 206.205 284.438C206.705 284.619 207.14 284.894 207.511 285.261C207.886 285.629 208.178 286.091 208.386 286.648C208.595 287.201 208.699 287.848 208.699 288.591V289.256H201.33V287.756H206.42C206.42 287.407 206.345 287.098 206.193 286.83C206.042 286.561 205.831 286.35 205.562 286.199C205.297 286.044 204.989 285.966 204.636 285.966C204.269 285.966 203.943 286.051 203.659 286.222C203.379 286.388 203.159 286.614 203 286.898C202.841 287.178 202.759 287.491 202.756 287.835V289.261C202.756 289.693 202.835 290.066 202.994 290.381C203.157 290.695 203.386 290.937 203.682 291.108C203.977 291.278 204.328 291.364 204.733 291.364C205.002 291.364 205.248 291.326 205.472 291.25C205.695 291.174 205.886 291.061 206.045 290.909C206.205 290.758 206.326 290.572 206.409 290.352L208.648 290.5C208.534 291.038 208.301 291.508 207.949 291.909C207.6 292.307 207.15 292.617 206.597 292.841C206.047 293.061 205.413 293.17 204.693 293.17Z" fill="black"/>
<path d="M214.222 293.17C213.328 293.17 212.559 292.981 211.915 292.602C211.275 292.22 210.782 291.689 210.438 291.011C210.097 290.333 209.926 289.553 209.926 288.67C209.926 287.777 210.098 286.992 210.443 286.318C210.792 285.64 211.286 285.112 211.926 284.733C212.566 284.35 213.328 284.159 214.21 284.159C214.972 284.159 215.638 284.297 216.21 284.574C216.782 284.85 217.235 285.239 217.568 285.739C217.902 286.239 218.085 286.826 218.119 287.5H215.835C215.771 287.064 215.6 286.714 215.324 286.449C215.051 286.18 214.693 286.045 214.25 286.045C213.875 286.045 213.547 286.148 213.267 286.352C212.991 286.553 212.775 286.847 212.619 287.233C212.464 287.619 212.386 288.087 212.386 288.636C212.386 289.193 212.462 289.667 212.614 290.057C212.769 290.447 212.987 290.744 213.267 290.949C213.547 291.153 213.875 291.256 214.25 291.256C214.527 291.256 214.775 291.199 214.994 291.085C215.218 290.972 215.402 290.807 215.545 290.591C215.693 290.371 215.79 290.108 215.835 289.801H218.119C218.081 290.468 217.9 291.055 217.574 291.562C217.252 292.066 216.807 292.46 216.239 292.744C215.67 293.028 214.998 293.17 214.222 293.17Z" fill="black"/>
<path d="M224.311 284.273V286.091H219.055V284.273H224.311ZM220.249 282.182H222.669V290.318C222.669 290.542 222.703 290.716 222.771 290.841C222.839 290.962 222.934 291.047 223.055 291.097C223.18 291.146 223.324 291.17 223.487 291.17C223.601 291.17 223.714 291.161 223.828 291.142C223.942 291.119 224.029 291.102 224.089 291.091L224.47 292.892C224.349 292.93 224.178 292.973 223.959 293.023C223.739 293.076 223.472 293.108 223.158 293.119C222.574 293.142 222.063 293.064 221.624 292.886C221.188 292.708 220.849 292.432 220.607 292.057C220.364 291.682 220.245 291.208 220.249 290.636V282.182Z" fill="black"/>
<path d="M229.737 293.17C228.855 293.17 228.091 292.983 227.447 292.608C226.807 292.229 226.313 291.703 225.964 291.028C225.616 290.35 225.442 289.564 225.442 288.67C225.442 287.769 225.616 286.981 225.964 286.307C226.313 285.629 226.807 285.102 227.447 284.727C228.091 284.348 228.855 284.159 229.737 284.159C230.62 284.159 231.381 284.348 232.021 284.727C232.665 285.102 233.161 285.629 233.51 286.307C233.858 286.981 234.033 287.769 234.033 288.67C234.033 289.564 233.858 290.35 233.51 291.028C233.161 291.703 232.665 292.229 232.021 292.608C231.381 292.983 230.62 293.17 229.737 293.17ZM229.749 291.295C230.15 291.295 230.485 291.182 230.754 290.955C231.023 290.723 231.226 290.409 231.362 290.011C231.502 289.614 231.572 289.161 231.572 288.653C231.572 288.146 231.502 287.693 231.362 287.295C231.226 286.898 231.023 286.583 230.754 286.352C230.485 286.121 230.15 286.006 229.749 286.006C229.343 286.006 229.002 286.121 228.726 286.352C228.453 286.583 228.247 286.898 228.107 287.295C227.97 287.693 227.902 288.146 227.902 288.653C227.902 289.161 227.97 289.614 228.107 290.011C228.247 290.409 228.453 290.723 228.726 290.955C229.002 291.182 229.343 291.295 229.749 291.295Z" fill="black"/>
<path d="M235.607 293V284.273H237.953V285.795H238.044C238.203 285.254 238.47 284.845 238.845 284.568C239.22 284.288 239.652 284.148 240.141 284.148C240.262 284.148 240.393 284.155 240.533 284.17C240.673 284.186 240.796 284.206 240.902 284.233V286.381C240.788 286.347 240.631 286.316 240.43 286.29C240.23 286.263 240.046 286.25 239.879 286.25C239.523 286.25 239.205 286.328 238.925 286.483C238.648 286.634 238.429 286.847 238.266 287.119C238.107 287.392 238.027 287.706 238.027 288.062V293H235.607Z" fill="black"/>
<path d="M564 225C564 219.477 568.477 215 574 215H782C787.523 215 792 219.477 792 225V351C792 356.523 787.523 361 782 361H574C568.477 361 564 356.523 564 351V225Z" fill="#D9D9D9"/>
<path d="M647.278 285.438H644.79C644.744 285.116 644.652 284.83 644.511 284.58C644.371 284.326 644.191 284.11 643.972 283.932C643.752 283.754 643.498 283.617 643.21 283.523C642.926 283.428 642.617 283.381 642.284 283.381C641.682 283.381 641.157 283.53 640.71 283.83C640.263 284.125 639.917 284.557 639.67 285.125C639.424 285.689 639.301 286.375 639.301 287.182C639.301 288.011 639.424 288.708 639.67 289.273C639.92 289.837 640.269 290.263 640.716 290.551C641.163 290.839 641.68 290.983 642.267 290.983C642.597 290.983 642.902 290.939 643.182 290.852C643.466 290.765 643.718 290.638 643.938 290.472C644.157 290.301 644.339 290.095 644.483 289.852C644.631 289.61 644.733 289.333 644.79 289.023L647.278 289.034C647.214 289.568 647.053 290.083 646.795 290.58C646.542 291.072 646.199 291.513 645.767 291.903C645.339 292.29 644.828 292.597 644.233 292.824C643.642 293.047 642.974 293.159 642.227 293.159C641.189 293.159 640.261 292.924 639.443 292.455C638.629 291.985 637.985 291.305 637.511 290.415C637.042 289.525 636.807 288.447 636.807 287.182C636.807 285.913 637.045 284.833 637.523 283.943C638 283.053 638.648 282.375 639.466 281.909C640.284 281.439 641.205 281.205 642.227 281.205C642.902 281.205 643.527 281.299 644.102 281.489C644.682 281.678 645.195 281.955 645.642 282.318C646.089 282.678 646.453 283.119 646.733 283.642C647.017 284.165 647.199 284.763 647.278 285.438Z" fill="black"/>
<path d="M652.94 293.17C652.058 293.17 651.295 292.983 650.651 292.608C650.01 292.229 649.516 291.703 649.168 291.028C648.819 290.35 648.645 289.564 648.645 288.67C648.645 287.769 648.819 286.981 649.168 286.307C649.516 285.629 650.01 285.102 650.651 284.727C651.295 284.348 652.058 284.159 652.94 284.159C653.823 284.159 654.584 284.348 655.224 284.727C655.868 285.102 656.365 285.629 656.713 286.307C657.062 286.981 657.236 287.769 657.236 288.67C657.236 289.564 657.062 290.35 656.713 291.028C656.365 291.703 655.868 292.229 655.224 292.608C654.584 292.983 653.823 293.17 652.94 293.17ZM652.952 291.295C653.353 291.295 653.688 291.182 653.957 290.955C654.226 290.723 654.429 290.409 654.565 290.011C654.706 289.614 654.776 289.161 654.776 288.653C654.776 288.146 654.706 287.693 654.565 287.295C654.429 286.898 654.226 286.583 653.957 286.352C653.688 286.121 653.353 286.006 652.952 286.006C652.546 286.006 652.205 286.121 651.929 286.352C651.656 286.583 651.45 286.898 651.31 287.295C651.173 287.693 651.105 288.146 651.105 288.653C651.105 289.161 651.173 289.614 651.31 290.011C651.45 290.409 651.656 290.723 651.929 290.955C652.205 291.182 652.546 291.295 652.952 291.295Z" fill="black"/>
<path d="M661.23 287.955V293H658.81V284.273H661.116V285.812H661.219C661.412 285.305 661.736 284.903 662.19 284.608C662.645 284.309 663.196 284.159 663.844 284.159C664.45 284.159 664.978 284.292 665.429 284.557C665.88 284.822 666.23 285.201 666.48 285.693C666.73 286.182 666.855 286.765 666.855 287.443V293H664.435V287.875C664.438 287.341 664.302 286.924 664.026 286.625C663.749 286.322 663.368 286.17 662.884 286.17C662.558 286.17 662.27 286.241 662.02 286.381C661.774 286.521 661.581 286.725 661.44 286.994C661.304 287.259 661.234 287.58 661.23 287.955Z" fill="black"/>
<path d="M671.183 287.955V293H668.763V284.273H671.07V285.812H671.172C671.365 285.305 671.689 284.903 672.143 284.608C672.598 284.309 673.149 284.159 673.797 284.159C674.403 284.159 674.931 284.292 675.382 284.557C675.833 284.822 676.183 285.201 676.433 285.693C676.683 286.182 676.808 286.765 676.808 287.443V293H674.388V287.875C674.392 287.341 674.255 286.924 673.979 286.625C673.702 286.322 673.322 286.17 672.837 286.17C672.511 286.17 672.223 286.241 671.973 286.381C671.727 286.521 671.534 286.725 671.393 286.994C671.257 287.259 671.187 287.58 671.183 287.955Z" fill="black"/>
<path d="M682.693 293.17C681.795 293.17 681.023 292.989 680.375 292.625C679.731 292.258 679.235 291.739 678.886 291.068C678.538 290.394 678.364 289.597 678.364 288.676C678.364 287.778 678.538 286.991 678.886 286.312C679.235 285.634 679.725 285.106 680.358 284.727C680.994 284.348 681.741 284.159 682.597 284.159C683.172 284.159 683.708 284.252 684.205 284.438C684.705 284.619 685.14 284.894 685.511 285.261C685.886 285.629 686.178 286.091 686.386 286.648C686.595 287.201 686.699 287.848 686.699 288.591V289.256H679.33V287.756H684.42C684.42 287.407 684.345 287.098 684.193 286.83C684.042 286.561 683.831 286.35 683.562 286.199C683.297 286.044 682.989 285.966 682.636 285.966C682.269 285.966 681.943 286.051 681.659 286.222C681.379 286.388 681.159 286.614 681 286.898C680.841 287.178 680.759 287.491 680.756 287.835V289.261C680.756 289.693 680.835 290.066 680.994 290.381C681.157 290.695 681.386 290.937 681.682 291.108C681.977 291.278 682.328 291.364 682.733 291.364C683.002 291.364 683.248 291.326 683.472 291.25C683.695 291.174 683.886 291.061 684.045 290.909C684.205 290.758 684.326 290.572 684.409 290.352L686.648 290.5C686.534 291.038 686.301 291.508 685.949 291.909C685.6 292.307 685.15 292.617 684.597 292.841C684.047 293.061 683.413 293.17 682.693 293.17Z" fill="black"/>
<path d="M692.222 293.17C691.328 293.17 690.559 292.981 689.915 292.602C689.275 292.22 688.782 291.689 688.438 291.011C688.097 290.333 687.926 289.553 687.926 288.67C687.926 287.777 688.098 286.992 688.443 286.318C688.792 285.64 689.286 285.112 689.926 284.733C690.566 284.35 691.328 284.159 692.21 284.159C692.972 284.159 693.638 284.297 694.21 284.574C694.782 284.85 695.235 285.239 695.568 285.739C695.902 286.239 696.085 286.826 696.119 287.5H693.835C693.771 287.064 693.6 286.714 693.324 286.449C693.051 286.18 692.693 286.045 692.25 286.045C691.875 286.045 691.547 286.148 691.267 286.352C690.991 286.553 690.775 286.847 690.619 287.233C690.464 287.619 690.386 288.087 690.386 288.636C690.386 289.193 690.462 289.667 690.614 290.057C690.769 290.447 690.987 290.744 691.267 290.949C691.547 291.153 691.875 291.256 692.25 291.256C692.527 291.256 692.775 291.199 692.994 291.085C693.218 290.972 693.402 290.807 693.545 290.591C693.693 290.371 693.79 290.108 693.835 289.801H696.119C696.081 290.468 695.9 291.055 695.574 291.562C695.252 292.066 694.807 292.46 694.239 292.744C693.67 293.028 692.998 293.17 692.222 293.17Z" fill="black"/>
<path d="M702.311 284.273V286.091H697.055V284.273H702.311ZM698.249 282.182H700.669V290.318C700.669 290.542 700.703 290.716 700.771 290.841C700.839 290.962 700.934 291.047 701.055 291.097C701.18 291.146 701.324 291.17 701.487 291.17C701.601 291.17 701.714 291.161 701.828 291.142C701.942 291.119 702.029 291.102 702.089 291.091L702.47 292.892C702.349 292.93 702.178 292.973 701.959 293.023C701.739 293.076 701.472 293.108 701.158 293.119C700.574 293.142 700.063 293.064 699.624 292.886C699.188 292.708 698.849 292.432 698.607 292.057C698.364 291.682 698.245 291.208 698.249 290.636V282.182Z" fill="black"/>
<path d="M707.737 293.17C706.855 293.17 706.091 292.983 705.447 292.608C704.807 292.229 704.313 291.703 703.964 291.028C703.616 290.35 703.442 289.564 703.442 288.67C703.442 287.769 703.616 286.981 703.964 286.307C704.313 285.629 704.807 285.102 705.447 284.727C706.091 284.348 706.855 284.159 707.737 284.159C708.62 284.159 709.381 284.348 710.021 284.727C710.665 285.102 711.161 285.629 711.51 286.307C711.858 286.981 712.033 287.769 712.033 288.67C712.033 289.564 711.858 290.35 711.51 291.028C711.161 291.703 710.665 292.229 710.021 292.608C709.381 292.983 708.62 293.17 707.737 293.17ZM707.749 291.295C708.15 291.295 708.485 291.182 708.754 290.955C709.023 290.723 709.226 290.409 709.362 290.011C709.502 289.614 709.572 289.161 709.572 288.653C709.572 288.146 709.502 287.693 709.362 287.295C709.226 286.898 709.023 286.583 708.754 286.352C708.485 286.121 708.15 286.006 707.749 286.006C707.343 286.006 707.002 286.121 706.726 286.352C706.453 286.583 706.247 286.898 706.107 287.295C705.97 287.693 705.902 288.146 705.902 288.653C705.902 289.161 705.97 289.614 706.107 290.011C706.247 290.409 706.453 290.723 706.726 290.955C707.002 291.182 707.343 291.295 707.749 291.295Z" fill="black"/>
<path d="M713.607 293V284.273H715.953V285.795H716.044C716.203 285.254 716.47 284.845 716.845 284.568C717.22 284.288 717.652 284.148 718.141 284.148C718.262 284.148 718.393 284.155 718.533 284.17C718.673 284.186 718.796 284.206 718.902 284.233V286.381C718.788 286.347 718.631 286.316 718.43 286.29C718.23 286.263 718.046 286.25 717.879 286.25C717.523 286.25 717.205 286.328 716.925 286.483C716.648 286.634 716.429 286.847 716.266 287.119C716.107 287.392 716.027 287.706 716.027 288.062V293H713.607Z" fill="black"/>
<path d="M183.624 517.627C169.071 516.207 156.181 513.049 147.506 508.778C144.175 507.138 140.172 504.123 138.961 502.34L138 500.926V413.772L138.922 412.484C143.091 406.654 157.211 401.677 176.29 399.312C185.412 398.181 188.945 397.989 200.433 398C211.753 398.018 215.906 398.257 224.606 399.432C243.68 402.009 257.784 407.141 261.687 412.927L262.706 414.436L262.705 502.104L261.788 503.517C257.479 510.156 240.004 515.695 217.242 517.635C211.496 518.124 188.667 518.119 183.624 517.635V517.627ZM214.658 423.431C227.732 422.444 237.943 420.187 242.106 417.363C243.902 416.145 244.456 415.37 244.456 414.074C244.456 410.056 233.195 406.537 215.481 405.019C209.552 404.51 192.507 404.435 186.826 404.892C171.196 406.149 160.258 408.784 157.019 412.073C155.963 413.146 155.77 414.636 156.545 415.739C158.846 419.012 169.175 421.903 183.144 423.184C192.724 424.062 205.015 424.159 214.658 423.431Z" fill="#CBCBCB"/>
<path d="M173.8 451.364V463H171.339V451.364H173.8Z" fill="black"/>
<path d="M178.994 463.142C178.331 463.142 177.731 462.972 177.193 462.631C176.659 462.286 176.235 461.78 175.92 461.114C175.61 460.443 175.455 459.621 175.455 458.648C175.455 457.648 175.616 456.816 175.938 456.153C176.259 455.487 176.687 454.989 177.222 454.659C177.759 454.326 178.348 454.159 178.989 454.159C179.477 454.159 179.884 454.242 180.21 454.409C180.54 454.572 180.805 454.777 181.006 455.023C181.21 455.265 181.366 455.504 181.472 455.739H181.545V451.364H183.96V463H181.574V461.602H181.472C181.358 461.845 181.197 462.085 180.989 462.324C180.784 462.559 180.517 462.754 180.188 462.909C179.862 463.064 179.464 463.142 178.994 463.142ZM179.761 461.216C180.152 461.216 180.481 461.11 180.75 460.898C181.023 460.682 181.231 460.381 181.375 459.994C181.523 459.608 181.597 459.155 181.597 458.636C181.597 458.117 181.525 457.667 181.381 457.284C181.237 456.902 181.028 456.606 180.756 456.398C180.483 456.189 180.152 456.085 179.761 456.085C179.364 456.085 179.028 456.193 178.756 456.409C178.483 456.625 178.277 456.924 178.136 457.307C177.996 457.689 177.926 458.133 177.926 458.636C177.926 459.144 177.996 459.593 178.136 459.983C178.28 460.369 178.487 460.672 178.756 460.892C179.028 461.108 179.364 461.216 179.761 461.216Z" fill="black"/>
<path d="M189.928 463.17C189.03 463.17 188.257 462.989 187.609 462.625C186.965 462.258 186.469 461.739 186.121 461.068C185.772 460.394 185.598 459.597 185.598 458.676C185.598 457.778 185.772 456.991 186.121 456.312C186.469 455.634 186.96 455.106 187.592 454.727C188.229 454.348 188.975 454.159 189.831 454.159C190.407 454.159 190.943 454.252 191.439 454.438C191.939 454.619 192.375 454.894 192.746 455.261C193.121 455.629 193.412 456.091 193.621 456.648C193.829 457.201 193.933 457.848 193.933 458.591V459.256H186.564V457.756H191.655C191.655 457.407 191.579 457.098 191.428 456.83C191.276 456.561 191.066 456.35 190.797 456.199C190.532 456.044 190.223 455.966 189.871 455.966C189.503 455.966 189.178 456.051 188.893 456.222C188.613 456.388 188.393 456.614 188.234 456.898C188.075 457.178 187.994 457.491 187.99 457.835V459.261C187.99 459.693 188.07 460.066 188.229 460.381C188.392 460.695 188.621 460.937 188.916 461.108C189.212 461.278 189.562 461.364 189.967 461.364C190.236 461.364 190.482 461.326 190.706 461.25C190.929 461.174 191.121 461.061 191.28 460.909C191.439 460.758 191.56 460.572 191.643 460.352L193.882 460.5C193.768 461.038 193.536 461.508 193.183 461.909C192.835 462.307 192.384 462.617 191.831 462.841C191.282 463.061 190.647 463.17 189.928 463.17Z" fill="black"/>
<path d="M197.933 457.955V463H195.513V454.273H197.82V455.812H197.922C198.115 455.305 198.439 454.903 198.893 454.608C199.348 454.309 199.899 454.159 200.547 454.159C201.153 454.159 201.681 454.292 202.132 454.557C202.583 454.822 202.933 455.201 203.183 455.693C203.433 456.182 203.558 456.765 203.558 457.443V463H201.138V457.875C201.142 457.341 201.005 456.924 200.729 456.625C200.452 456.322 200.072 456.17 199.587 456.17C199.261 456.17 198.973 456.241 198.723 456.381C198.477 456.521 198.284 456.725 198.143 456.994C198.007 457.259 197.937 457.58 197.933 457.955Z" fill="black"/>
<path d="M210.108 454.273V456.091H204.852V454.273H210.108ZM206.045 452.182H208.466V460.318C208.466 460.542 208.5 460.716 208.568 460.841C208.636 460.962 208.731 461.047 208.852 461.097C208.977 461.146 209.121 461.17 209.284 461.17C209.398 461.17 209.511 461.161 209.625 461.142C209.739 461.119 209.826 461.102 209.886 461.091L210.267 462.892C210.146 462.93 209.975 462.973 209.756 463.023C209.536 463.076 209.269 463.108 208.955 463.119C208.371 463.142 207.86 463.064 207.42 462.886C206.985 462.708 206.646 462.432 206.403 462.057C206.161 461.682 206.042 461.208 206.045 460.636V452.182Z" fill="black"/>
<path d="M211.685 463V454.273H214.105V463H211.685ZM212.901 453.148C212.541 453.148 212.232 453.028 211.974 452.79C211.721 452.547 211.594 452.258 211.594 451.92C211.594 451.587 211.721 451.301 211.974 451.062C212.232 450.82 212.541 450.699 212.901 450.699C213.26 450.699 213.567 450.82 213.821 451.062C214.079 451.301 214.207 451.587 214.207 451.92C214.207 452.258 214.079 452.547 213.821 452.79C213.567 453.028 213.26 453.148 212.901 453.148Z" fill="black"/>
<path d="M220.686 454.273V456.091H215.43V454.273H220.686ZM216.624 452.182H219.044V460.318C219.044 460.542 219.078 460.716 219.146 460.841C219.214 460.962 219.309 461.047 219.43 461.097C219.555 461.146 219.699 461.17 219.862 461.17C219.976 461.17 220.089 461.161 220.203 461.142C220.317 461.119 220.404 461.102 220.464 461.091L220.845 462.892C220.724 462.93 220.553 462.973 220.334 463.023C220.114 463.076 219.847 463.108 219.533 463.119C218.949 463.142 218.438 463.064 217.999 462.886C217.563 462.708 217.224 462.432 216.982 462.057C216.739 461.682 216.62 461.208 216.624 460.636V452.182Z" fill="black"/>
<path d="M223.757 466.273C223.45 466.273 223.162 466.248 222.893 466.199C222.628 466.153 222.409 466.095 222.234 466.023L222.78 464.216C223.064 464.303 223.32 464.35 223.547 464.358C223.778 464.366 223.977 464.312 224.143 464.199C224.314 464.085 224.452 463.892 224.558 463.619L224.7 463.25L221.57 454.273H224.115L225.922 460.682H226.013L227.837 454.273H230.399L227.007 463.943C226.844 464.413 226.623 464.822 226.342 465.17C226.066 465.523 225.715 465.794 225.291 465.983C224.867 466.176 224.356 466.273 223.757 466.273Z" fill="black"/>
<path d="M185.48 482V470.364H187.94V475.165H192.935V470.364H195.389V482H192.935V477.193H187.94V482H185.48Z" fill="black"/>
<path d="M202.969 478.284V473.273H205.389V482H203.065V480.415H202.974C202.777 480.926 202.45 481.337 201.991 481.648C201.537 481.958 200.982 482.114 200.327 482.114C199.743 482.114 199.23 481.981 198.787 481.716C198.344 481.451 197.997 481.074 197.747 480.585C197.501 480.097 197.376 479.511 197.372 478.83V473.273H199.793V478.398C199.796 478.913 199.935 479.32 200.207 479.619C200.48 479.919 200.846 480.068 201.304 480.068C201.596 480.068 201.868 480.002 202.122 479.869C202.376 479.733 202.58 479.532 202.736 479.267C202.895 479.002 202.973 478.674 202.969 478.284Z" fill="black"/>
<path d="M207.371 482V470.364H209.791V474.739H209.865C209.971 474.504 210.125 474.265 210.325 474.023C210.53 473.777 210.795 473.572 211.121 473.409C211.45 473.242 211.859 473.159 212.348 473.159C212.984 473.159 213.571 473.326 214.109 473.659C214.647 473.989 215.077 474.487 215.399 475.153C215.721 475.816 215.882 476.648 215.882 477.648C215.882 478.621 215.725 479.443 215.411 480.114C215.1 480.78 214.676 481.286 214.138 481.631C213.604 481.972 213.005 482.142 212.342 482.142C211.873 482.142 211.473 482.064 211.143 481.909C210.818 481.754 210.551 481.559 210.342 481.324C210.134 481.085 209.975 480.845 209.865 480.602H209.757V482H207.371ZM209.74 477.636C209.74 478.155 209.812 478.608 209.956 478.994C210.1 479.381 210.308 479.682 210.581 479.898C210.854 480.11 211.185 480.216 211.575 480.216C211.969 480.216 212.303 480.108 212.575 479.892C212.848 479.672 213.054 479.369 213.195 478.983C213.339 478.593 213.411 478.144 213.411 477.636C213.411 477.133 213.34 476.689 213.2 476.307C213.06 475.924 212.854 475.625 212.581 475.409C212.308 475.193 211.973 475.085 211.575 475.085C211.181 475.085 210.848 475.189 210.575 475.398C210.306 475.606 210.1 475.902 209.956 476.284C209.812 476.667 209.74 477.117 209.74 477.636Z" fill="black"/>
<path d="M125 50.9079C125 45.385 129.477 40.9079 135 40.9079H232C237.523 40.9079 242 45.385 242 50.9079V166C242 171.523 237.523 176 232 176H135C129.477 176 125 171.523 125 166V50.9079Z" fill="#CBCBCB"/>
<path d="M132.814 70.8381H234.415V166.82H132.814V70.8381Z" fill="#CBCBCB"/>
<path fill-rule="evenodd" clip-rule="evenodd" d="M168.459 75.021L165.203 81.8867C164.557 81.8147 163.914 81.7735 163.274 81.7697C161.176 81.7574 159.136 82.1087 157.228 82.7596L152.614 76.6555L143.877 82.6836L148.652 88.9932C147.221 90.945 146.211 93.2111 145.775 95.695L137.297 96.5737L138.358 106.744L147.381 105.806C148.389 107.719 149.777 109.438 151.467 110.862L147.616 118.994L157.414 123.135L161.284 114.969C163.597 115.202 165.864 114.993 167.981 114.406L173.562 121.629L179.857 117.283L182.169 121.061C179.252 123.167 176.644 125.634 174.412 128.39L164.644 123.076L159.541 131.835L169.091 137.072C167.688 140.247 166.716 143.629 166.245 147.16H155.138V157.231H166.295C166.624 159.49 167.162 161.683 167.888 163.803H201.486C196.741 161.786 193.437 157.282 193.437 152.046C193.437 144.929 199.54 139.158 207.074 139.158C214.607 139.158 220.717 144.929 220.717 152.046C220.717 157.282 217.409 161.787 212.661 163.803H230.818V108.401L228.499 107.201L223.023 116.205C219.681 114.854 216.116 113.911 212.388 113.445V103.035H201.728V113.434C198.096 113.88 194.618 114.781 191.348 116.064L185.965 107.201L178.821 110.997L176.985 108.565C178.39 106.836 179.452 104.829 180.061 102.619L188.879 101.711L187.819 91.5412L179.435 92.3205C178.459 89.955 176.925 87.8301 174.958 86.1165L178.257 79.1627L168.459 75.021ZM163.033 90.8149C167.656 90.77 171.553 94.1569 171.838 98.5653C172.132 103.116 168.464 107.028 163.647 107.306C158.829 107.584 154.688 104.124 154.394 99.573C154.101 95.0224 157.763 91.1104 162.58 90.8326C162.731 90.8239 162.884 90.8164 163.033 90.8149Z" fill="white"/>
<path d="M176.316 63.4655V51.8291H184.021V53.8575H178.776V56.6302H183.509V58.6586H178.776V63.4655H176.316Z" fill="black"/>
<path d="M195.942 55.903H193.454C193.408 55.581 193.316 55.295 193.175 55.045C193.035 54.7912 192.855 54.5753 192.636 54.3973C192.416 54.2193 192.162 54.0829 191.874 53.9882C191.59 53.8935 191.281 53.8462 190.948 53.8462C190.346 53.8462 189.821 53.9958 189.374 54.295C188.927 54.5905 188.581 55.0223 188.335 55.5905C188.088 56.1549 187.965 56.8405 187.965 57.6473C187.965 58.4768 188.088 59.1738 188.335 59.7382C188.585 60.3026 188.933 60.7287 189.38 61.0166C189.827 61.3045 190.344 61.4484 190.931 61.4484C191.261 61.4484 191.566 61.4049 191.846 61.3177C192.13 61.2306 192.382 61.1037 192.602 60.9371C192.821 60.7666 193.003 60.5602 193.147 60.3177C193.295 60.0753 193.397 59.7988 193.454 59.4882L195.942 59.4996C195.878 60.0337 195.717 60.5488 195.46 61.045C195.206 61.5374 194.863 61.9787 194.431 62.3689C194.003 62.7552 193.492 63.0621 192.897 63.2893C192.306 63.5128 191.638 63.6246 190.891 63.6246C189.853 63.6246 188.925 63.3897 188.107 62.92C187.293 62.4503 186.649 61.7704 186.175 60.8802C185.706 59.9901 185.471 58.9124 185.471 57.6473C185.471 56.3783 185.71 55.2988 186.187 54.4087C186.664 53.5185 187.312 52.8405 188.13 52.3746C188.948 51.9049 189.869 51.67 190.891 51.67C191.566 51.67 192.191 51.7647 192.766 51.9541C193.346 52.1435 193.859 52.42 194.306 52.7836C194.753 53.1435 195.117 53.5848 195.397 54.1075C195.681 54.6302 195.863 55.2287 195.942 55.903Z" fill="black"/>
<path d="M637.011 29V17.3636H641.602C642.485 17.3636 643.237 17.5322 643.858 17.8693C644.479 18.2027 644.953 18.6667 645.278 19.2614C645.608 19.8523 645.773 20.5341 645.773 21.3068C645.773 22.0795 645.606 22.7614 645.273 23.3523C644.939 23.9432 644.456 24.4034 643.824 24.733C643.195 25.0625 642.434 25.2273 641.54 25.2273H638.614V23.2557H641.142C641.616 23.2557 642.006 23.1742 642.312 23.0114C642.623 22.8447 642.854 22.6155 643.006 22.3239C643.161 22.0284 643.239 21.6894 643.239 21.3068C643.239 20.9205 643.161 20.5833 643.006 20.2955C642.854 20.0038 642.623 19.7784 642.312 19.6193C642.002 19.4564 641.608 19.375 641.131 19.375H639.472V29H637.011Z" fill="black"/>
<path d="M649.58 29.1648C649.023 29.1648 648.526 29.0682 648.091 28.875C647.655 28.678 647.311 28.3883 647.057 28.0057C646.807 27.6193 646.682 27.1383 646.682 26.5625C646.682 26.0777 646.771 25.6705 646.949 25.3409C647.127 25.0114 647.369 24.7462 647.676 24.5455C647.983 24.3447 648.331 24.1932 648.722 24.0909C649.116 23.9886 649.528 23.9167 649.96 23.875C650.468 23.822 650.877 23.7727 651.188 23.7273C651.498 23.678 651.723 23.6061 651.864 23.5114C652.004 23.4167 652.074 23.2765 652.074 23.0909V23.0568C652.074 22.697 651.96 22.4186 651.733 22.2216C651.509 22.0246 651.191 21.9261 650.778 21.9261C650.343 21.9261 649.996 22.0227 649.739 22.2159C649.481 22.4053 649.311 22.6439 649.227 22.9318L646.989 22.75C647.102 22.2197 647.326 21.7614 647.659 21.375C647.992 20.9848 648.422 20.6856 648.949 20.4773C649.479 20.2652 650.093 20.1591 650.79 20.1591C651.275 20.1591 651.739 20.2159 652.182 20.3295C652.629 20.4432 653.025 20.6193 653.369 20.858C653.718 21.0966 653.992 21.4034 654.193 21.7784C654.394 22.1496 654.494 22.5947 654.494 23.1136V29H652.199V27.7898H652.131C651.991 28.0625 651.803 28.303 651.568 28.5114C651.333 28.7159 651.051 28.8769 650.722 28.9943C650.392 29.108 650.011 29.1648 649.58 29.1648ZM650.273 27.4943C650.629 27.4943 650.943 27.4242 651.216 27.2841C651.489 27.1402 651.703 26.947 651.858 26.7045C652.013 26.4621 652.091 26.1875 652.091 25.8807V24.9545C652.015 25.0038 651.911 25.0492 651.778 25.0909C651.65 25.1288 651.504 25.1648 651.341 25.1989C651.178 25.2292 651.015 25.2576 650.852 25.2841C650.689 25.3068 650.542 25.3277 650.409 25.3466C650.125 25.3883 649.877 25.4545 649.665 25.5455C649.453 25.6364 649.288 25.7595 649.17 25.9148C649.053 26.0663 648.994 26.2557 648.994 26.483C648.994 26.8125 649.114 27.0644 649.352 27.2386C649.595 27.4091 649.901 27.4943 650.273 27.4943Z" fill="black"/>
<path d="M656.372 29V20.2727H658.719V21.7955H658.81C658.969 21.2538 659.236 20.8447 659.611 20.5682C659.986 20.2879 660.418 20.1477 660.906 20.1477C661.027 20.1477 661.158 20.1553 661.298 20.1705C661.438 20.1856 661.562 20.2064 661.668 20.233V22.3807C661.554 22.3466 661.397 22.3163 661.196 22.2898C660.995 22.2633 660.812 22.25 660.645 22.25C660.289 22.25 659.971 22.3277 659.69 22.483C659.414 22.6345 659.194 22.8466 659.031 23.1193C658.872 23.392 658.793 23.7064 658.793 24.0625V29H656.372Z" fill="black"/>
<path d="M667.999 20.2727V22.0909H662.743V20.2727H667.999ZM663.936 18.1818H666.357V26.3182C666.357 26.5417 666.391 26.7159 666.459 26.8409C666.527 26.9621 666.622 27.0473 666.743 27.0966C666.868 27.1458 667.012 27.1705 667.175 27.1705C667.288 27.1705 667.402 27.161 667.516 27.142C667.629 27.1193 667.716 27.1023 667.777 27.0909L668.158 28.892C668.036 28.9299 667.866 28.9735 667.646 29.0227C667.427 29.0758 667.16 29.108 666.845 29.1193C666.262 29.142 665.75 29.0644 665.311 28.8864C664.875 28.7083 664.536 28.4318 664.294 28.0568C664.052 27.6818 663.932 27.2083 663.936 26.6364V18.1818Z" fill="black"/>
<path d="M669.575 29V20.2727H671.996V29H669.575ZM670.791 19.1477C670.431 19.1477 670.123 19.0284 669.865 18.7898C669.611 18.5473 669.484 18.2576 669.484 17.9205C669.484 17.5871 669.611 17.3011 669.865 17.0625C670.123 16.8201 670.431 16.6989 670.791 16.6989C671.151 16.6989 671.458 16.8201 671.712 17.0625C671.969 17.3011 672.098 17.5871 672.098 17.9205C672.098 18.2576 671.969 18.5473 671.712 18.7898C671.458 19.0284 671.151 19.1477 670.791 19.1477Z" fill="black"/>
<path d="M677.878 29.1705C676.984 29.1705 676.215 28.9811 675.571 28.6023C674.931 28.2197 674.438 27.6894 674.094 27.0114C673.753 26.3333 673.582 25.553 673.582 24.6705C673.582 23.7765 673.755 22.9924 674.099 22.3182C674.448 21.6402 674.942 21.1117 675.582 20.733C676.223 20.3504 676.984 20.1591 677.866 20.1591C678.628 20.1591 679.294 20.2973 679.866 20.5739C680.438 20.8504 680.891 21.2386 681.224 21.7386C681.558 22.2386 681.741 22.8258 681.776 23.5H679.491C679.427 23.0644 679.257 22.714 678.98 22.4489C678.707 22.1799 678.349 22.0455 677.906 22.0455C677.531 22.0455 677.204 22.1477 676.923 22.3523C676.647 22.553 676.431 22.8466 676.276 23.233C676.12 23.6193 676.043 24.0871 676.043 24.6364C676.043 25.1932 676.118 25.6667 676.27 26.0568C676.425 26.447 676.643 26.7443 676.923 26.9489C677.204 27.1534 677.531 27.2557 677.906 27.2557C678.183 27.2557 678.431 27.1989 678.651 27.0852C678.874 26.9716 679.058 26.8068 679.202 26.5909C679.349 26.3712 679.446 26.108 679.491 25.8011H681.776C681.738 26.4678 681.556 27.0549 681.23 27.5625C680.908 28.0663 680.463 28.4602 679.895 28.7443C679.327 29.0284 678.654 29.1705 677.878 29.1705Z" fill="black"/>
<path d="M683.325 29V20.2727H685.746V29H683.325ZM684.541 19.1477C684.181 19.1477 683.873 19.0284 683.615 18.7898C683.361 18.5473 683.234 18.2576 683.234 17.9205C683.234 17.5871 683.361 17.3011 683.615 17.0625C683.873 16.8201 684.181 16.6989 684.541 16.6989C684.901 16.6989 685.208 16.8201 685.462 17.0625C685.719 17.3011 685.848 17.5871 685.848 17.9205C685.848 18.2576 685.719 18.5473 685.462 18.7898C685.208 19.0284 684.901 19.1477 684.541 19.1477Z" fill="black"/>
<path d="M687.685 32.2727V20.2727H690.071V21.7386H690.179C690.285 21.5038 690.438 21.2652 690.639 21.0227C690.844 20.7765 691.109 20.572 691.435 20.4091C691.764 20.2424 692.173 20.1591 692.662 20.1591C693.298 20.1591 693.885 20.3258 694.423 20.6591C694.961 20.9886 695.391 21.4867 695.713 22.1534C696.035 22.8163 696.196 23.6477 696.196 24.6477C696.196 25.6212 696.039 26.4432 695.724 27.1136C695.414 27.7803 694.99 28.286 694.452 28.6307C693.918 28.9716 693.319 29.142 692.656 29.142C692.187 29.142 691.787 29.0644 691.457 28.9091C691.132 28.7538 690.865 28.5587 690.656 28.3239C690.448 28.0852 690.289 27.8447 690.179 27.6023H690.105V32.2727H687.685ZM690.054 24.6364C690.054 25.1553 690.126 25.608 690.27 25.9943C690.414 26.3807 690.622 26.6818 690.895 26.8977C691.168 27.1098 691.499 27.2159 691.889 27.2159C692.283 27.2159 692.616 27.108 692.889 26.892C693.162 26.6723 693.368 26.3693 693.509 25.983C693.652 25.5928 693.724 25.1439 693.724 24.6364C693.724 24.1326 693.654 23.6894 693.514 23.3068C693.374 22.9242 693.168 22.625 692.895 22.4091C692.622 22.1932 692.287 22.0852 691.889 22.0852C691.495 22.0852 691.162 22.1894 690.889 22.3977C690.62 22.6061 690.414 22.9015 690.27 23.2841C690.126 23.6667 690.054 24.1174 690.054 24.6364Z" fill="black"/>
<path d="M700.298 29.1648C699.741 29.1648 699.245 29.0682 698.81 28.875C698.374 28.678 698.029 28.3883 697.776 28.0057C697.526 27.6193 697.401 27.1383 697.401 26.5625C697.401 26.0777 697.49 25.6705 697.668 25.3409C697.846 25.0114 698.088 24.7462 698.395 24.5455C698.702 24.3447 699.05 24.1932 699.44 24.0909C699.834 23.9886 700.247 23.9167 700.679 23.875C701.187 23.822 701.596 23.7727 701.906 23.7273C702.217 23.678 702.442 23.6061 702.582 23.5114C702.723 23.4167 702.793 23.2765 702.793 23.0909V23.0568C702.793 22.697 702.679 22.4186 702.452 22.2216C702.228 22.0246 701.91 21.9261 701.497 21.9261C701.062 21.9261 700.715 22.0227 700.457 22.2159C700.2 22.4053 700.029 22.6439 699.946 22.9318L697.707 22.75C697.821 22.2197 698.045 21.7614 698.378 21.375C698.711 20.9848 699.141 20.6856 699.668 20.4773C700.198 20.2652 700.812 20.1591 701.509 20.1591C701.993 20.1591 702.457 20.2159 702.901 20.3295C703.348 20.4432 703.743 20.6193 704.088 20.858C704.437 21.0966 704.711 21.4034 704.912 21.7784C705.113 22.1496 705.213 22.5947 705.213 23.1136V29H702.918V27.7898H702.849C702.709 28.0625 702.522 28.303 702.287 28.5114C702.052 28.7159 701.77 28.8769 701.44 28.9943C701.111 29.108 700.73 29.1648 700.298 29.1648ZM700.991 27.4943C701.348 27.4943 701.662 27.4242 701.935 27.2841C702.207 27.1402 702.421 26.947 702.577 26.7045C702.732 26.4621 702.81 26.1875 702.81 25.8807V24.9545C702.734 25.0038 702.63 25.0492 702.497 25.0909C702.368 25.1288 702.223 25.1648 702.06 25.1989C701.897 25.2292 701.734 25.2576 701.571 25.2841C701.408 25.3068 701.26 25.3277 701.128 25.3466C700.844 25.3883 700.596 25.4545 700.384 25.5455C700.171 25.6364 700.007 25.7595 699.889 25.9148C699.772 26.0663 699.713 26.2557 699.713 26.483C699.713 26.8125 699.832 27.0644 700.071 27.2386C700.313 27.4091 700.62 27.4943 700.991 27.4943Z" fill="black"/>
<path d="M709.511 23.9545V29H707.091V20.2727H709.398V21.8125H709.5C709.693 21.3049 710.017 20.9034 710.472 20.608C710.926 20.3087 711.477 20.1591 712.125 20.1591C712.731 20.1591 713.259 20.2917 713.71 20.5568C714.161 20.822 714.511 21.2008 714.761 21.6932C715.011 22.1818 715.136 22.7652 715.136 23.4432V29H712.716V23.875C712.72 23.3409 712.583 22.9242 712.307 22.625C712.03 22.322 711.65 22.1705 711.165 22.1705C710.839 22.1705 710.551 22.2405 710.301 22.3807C710.055 22.5208 709.862 22.7254 709.722 22.9943C709.585 23.2595 709.515 23.5795 709.511 23.9545Z" fill="black"/>
<path d="M721.686 20.2727V22.0909H716.43V20.2727H721.686ZM717.624 18.1818H720.044V26.3182C720.044 26.5417 720.078 26.7159 720.146 26.8409C720.214 26.9621 720.309 27.0473 720.43 27.0966C720.555 27.1458 720.699 27.1705 720.862 27.1705C720.976 27.1705 721.089 27.161 721.203 27.142C721.317 27.1193 721.404 27.1023 721.464 27.0909L721.845 28.892C721.724 28.9299 721.553 28.9735 721.334 29.0227C721.114 29.0758 720.847 29.108 720.533 29.1193C719.949 29.142 719.438 29.0644 718.999 28.8864C718.563 28.7083 718.224 28.4318 717.982 28.0568C717.739 27.6818 717.62 27.2083 717.624 26.6364V18.1818Z" fill="black"/>
<path d="M141.011 24V12.3636H145.602C146.485 12.3636 147.237 12.5322 147.858 12.8693C148.479 13.2027 148.953 13.6667 149.278 14.2614C149.608 14.8523 149.773 15.5341 149.773 16.3068C149.773 17.0795 149.606 17.7614 149.273 18.3523C148.939 18.9432 148.456 19.4034 147.824 19.733C147.195 20.0625 146.434 20.2273 145.54 20.2273H142.614V18.2557H145.142C145.616 18.2557 146.006 18.1742 146.312 18.0114C146.623 17.8447 146.854 17.6155 147.006 17.3239C147.161 17.0284 147.239 16.6894 147.239 16.3068C147.239 15.9205 147.161 15.5833 147.006 15.2955C146.854 15.0038 146.623 14.7784 146.312 14.6193C146.002 14.4564 145.608 14.375 145.131 14.375H143.472V24H141.011Z" fill="black"/>
<path d="M153.58 24.1648C153.023 24.1648 152.527 24.0682 152.091 23.875C151.655 23.678 151.311 23.3883 151.057 23.0057C150.807 22.6193 150.682 22.1383 150.682 21.5625C150.682 21.0777 150.771 20.6705 150.949 20.3409C151.127 20.0114 151.369 19.7462 151.676 19.5455C151.983 19.3447 152.331 19.1932 152.722 19.0909C153.116 18.9886 153.528 18.9167 153.96 18.875C154.468 18.822 154.877 18.7727 155.188 18.7273C155.498 18.678 155.723 18.6061 155.864 18.5114C156.004 18.4167 156.074 18.2765 156.074 18.0909V18.0568C156.074 17.697 155.96 17.4186 155.733 17.2216C155.509 17.0246 155.191 16.9261 154.778 16.9261C154.343 16.9261 153.996 17.0227 153.739 17.2159C153.481 17.4053 153.311 17.6439 153.227 17.9318L150.989 17.75C151.102 17.2197 151.326 16.7614 151.659 16.375C151.992 15.9848 152.422 15.6856 152.949 15.4773C153.479 15.2652 154.093 15.1591 154.79 15.1591C155.275 15.1591 155.739 15.2159 156.182 15.3295C156.629 15.4432 157.025 15.6193 157.369 15.858C157.718 16.0966 157.992 16.4034 158.193 16.7784C158.394 17.1496 158.494 17.5947 158.494 18.1136V24H156.199V22.7898H156.131C155.991 23.0625 155.803 23.303 155.568 23.5114C155.333 23.7159 155.051 23.8769 154.722 23.9943C154.392 24.108 154.011 24.1648 153.58 24.1648ZM154.273 22.4943C154.629 22.4943 154.943 22.4242 155.216 22.2841C155.489 22.1402 155.703 21.947 155.858 21.7045C156.013 21.4621 156.091 21.1875 156.091 20.8807V19.9545C156.015 20.0038 155.911 20.0492 155.778 20.0909C155.65 20.1288 155.504 20.1648 155.341 20.1989C155.178 20.2292 155.015 20.2576 154.852 20.2841C154.689 20.3068 154.542 20.3277 154.409 20.3466C154.125 20.3883 153.877 20.4545 153.665 20.5455C153.453 20.6364 153.288 20.7595 153.17 20.9148C153.053 21.0663 152.994 21.2557 152.994 21.483C152.994 21.8125 153.114 22.0644 153.352 22.2386C153.595 22.4091 153.902 22.4943 154.273 22.4943Z" fill="black"/>
<path d="M160.372 24V15.2727H162.719V16.7955H162.81C162.969 16.2538 163.236 15.8447 163.611 15.5682C163.986 15.2879 164.418 15.1477 164.906 15.1477C165.027 15.1477 165.158 15.1553 165.298 15.1705C165.438 15.1856 165.562 15.2064 165.668 15.233V17.3807C165.554 17.3466 165.397 17.3163 165.196 17.2898C164.995 17.2633 164.812 17.25 164.645 17.25C164.289 17.25 163.971 17.3277 163.69 17.483C163.414 17.6345 163.194 17.8466 163.031 18.1193C162.872 18.392 162.793 18.7064 162.793 19.0625V24H160.372Z" fill="black"/>
<path d="M171.999 15.2727V17.0909H166.743V15.2727H171.999ZM167.936 13.1818H170.357V21.3182C170.357 21.5417 170.391 21.7159 170.459 21.8409C170.527 21.9621 170.622 22.0473 170.743 22.0966C170.868 22.1458 171.012 22.1705 171.175 22.1705C171.288 22.1705 171.402 22.161 171.516 22.142C171.629 22.1193 171.716 22.1023 171.777 22.0909L172.158 23.892C172.036 23.9299 171.866 23.9735 171.646 24.0227C171.427 24.0758 171.16 24.108 170.845 24.1193C170.262 24.142 169.75 24.0644 169.311 23.8864C168.875 23.7083 168.536 23.4318 168.294 23.0568C168.052 22.6818 167.932 22.2083 167.936 21.6364V13.1818Z" fill="black"/>
<path d="M173.575 24V15.2727H175.996V24H173.575ZM174.791 14.1477C174.431 14.1477 174.123 14.0284 173.865 13.7898C173.611 13.5473 173.484 13.2576 173.484 12.9205C173.484 12.5871 173.611 12.3011 173.865 12.0625C174.123 11.8201 174.431 11.6989 174.791 11.6989C175.151 11.6989 175.458 11.8201 175.712 12.0625C175.969 12.3011 176.098 12.5871 176.098 12.9205C176.098 13.2576 175.969 13.5473 175.712 13.7898C175.458 14.0284 175.151 14.1477 174.791 14.1477Z" fill="black"/>
<path d="M181.878 24.1705C180.984 24.1705 180.215 23.9811 179.571 23.6023C178.931 23.2197 178.438 22.6894 178.094 22.0114C177.753 21.3333 177.582 20.553 177.582 19.6705C177.582 18.7765 177.755 17.9924 178.099 17.3182C178.448 16.6402 178.942 16.1117 179.582 15.733C180.223 15.3504 180.984 15.1591 181.866 15.1591C182.628 15.1591 183.295 15.2973 183.866 15.5739C184.438 15.8504 184.891 16.2386 185.224 16.7386C185.558 17.2386 185.741 17.8258 185.776 18.5H183.491C183.427 18.0644 183.257 17.714 182.98 17.4489C182.707 17.1799 182.349 17.0455 181.906 17.0455C181.531 17.0455 181.204 17.1477 180.923 17.3523C180.647 17.553 180.431 17.8466 180.276 18.233C180.12 18.6193 180.043 19.0871 180.043 19.6364C180.043 20.1932 180.118 20.6667 180.27 21.0568C180.425 21.447 180.643 21.7443 180.923 21.9489C181.204 22.1534 181.531 22.2557 181.906 22.2557C182.183 22.2557 182.431 22.1989 182.651 22.0852C182.874 21.9716 183.058 21.8068 183.202 21.5909C183.349 21.3712 183.446 21.108 183.491 20.8011H185.776C185.738 21.4678 185.556 22.0549 185.23 22.5625C184.908 23.0663 184.463 23.4602 183.895 23.7443C183.327 24.0284 182.654 24.1705 181.878 24.1705Z" fill="black"/>
<path d="M187.325 24V15.2727H189.746V24H187.325ZM188.541 14.1477C188.181 14.1477 187.873 14.0284 187.615 13.7898C187.361 13.5473 187.234 13.2576 187.234 12.9205C187.234 12.5871 187.361 12.3011 187.615 12.0625C187.873 11.8201 188.181 11.6989 188.541 11.6989C188.901 11.6989 189.208 11.8201 189.462 12.0625C189.719 12.3011 189.848 12.5871 189.848 12.9205C189.848 13.2576 189.719 13.5473 189.462 13.7898C189.208 14.0284 188.901 14.1477 188.541 14.1477Z" fill="black"/>
<path d="M191.685 27.2727V15.2727H194.071V16.7386H194.179C194.285 16.5038 194.438 16.2652 194.639 16.0227C194.844 15.7765 195.109 15.572 195.435 15.4091C195.764 15.2424 196.173 15.1591 196.662 15.1591C197.298 15.1591 197.885 15.3258 198.423 15.6591C198.961 15.9886 199.391 16.4867 199.713 17.1534C200.035 17.8163 200.196 18.6477 200.196 19.6477C200.196 20.6212 200.039 21.4432 199.724 22.1136C199.414 22.7803 198.99 23.286 198.452 23.6307C197.918 23.9716 197.319 24.142 196.656 24.142C196.187 24.142 195.787 24.0644 195.457 23.9091C195.132 23.7538 194.865 23.5587 194.656 23.3239C194.448 23.0852 194.289 22.8447 194.179 22.6023H194.105V27.2727H191.685ZM194.054 19.6364C194.054 20.1553 194.126 20.608 194.27 20.9943C194.414 21.3807 194.622 21.6818 194.895 21.8977C195.168 22.1098 195.499 22.2159 195.889 22.2159C196.283 22.2159 196.616 22.108 196.889 21.892C197.162 21.6723 197.368 21.3693 197.509 20.983C197.652 20.5928 197.724 20.1439 197.724 19.6364C197.724 19.1326 197.654 18.6894 197.514 18.3068C197.374 17.9242 197.168 17.625 196.895 17.4091C196.622 17.1932 196.287 17.0852 195.889 17.0852C195.495 17.0852 195.162 17.1894 194.889 17.3977C194.62 17.6061 194.414 17.9015 194.27 18.2841C194.126 18.6667 194.054 19.1174 194.054 19.6364Z" fill="black"/>
<path d="M204.298 24.1648C203.741 24.1648 203.245 24.0682 202.81 23.875C202.374 23.678 202.029 23.3883 201.776 23.0057C201.526 22.6193 201.401 22.1383 201.401 21.5625C201.401 21.0777 201.49 20.6705 201.668 20.3409C201.846 20.0114 202.088 19.7462 202.395 19.5455C202.702 19.3447 203.05 19.1932 203.44 19.0909C203.834 18.9886 204.247 18.9167 204.679 18.875C205.187 18.822 205.596 18.7727 205.906 18.7273C206.217 18.678 206.442 18.6061 206.582 18.5114C206.723 18.4167 206.793 18.2765 206.793 18.0909V18.0568C206.793 17.697 206.679 17.4186 206.452 17.2216C206.228 17.0246 205.91 16.9261 205.497 16.9261C205.062 16.9261 204.715 17.0227 204.457 17.2159C204.2 17.4053 204.029 17.6439 203.946 17.9318L201.707 17.75C201.821 17.2197 202.045 16.7614 202.378 16.375C202.711 15.9848 203.141 15.6856 203.668 15.4773C204.198 15.2652 204.812 15.1591 205.509 15.1591C205.993 15.1591 206.457 15.2159 206.901 15.3295C207.348 15.4432 207.743 15.6193 208.088 15.858C208.437 16.0966 208.711 16.4034 208.912 16.7784C209.113 17.1496 209.213 17.5947 209.213 18.1136V24H206.918V22.7898H206.849C206.709 23.0625 206.522 23.303 206.287 23.5114C206.052 23.7159 205.77 23.8769 205.44 23.9943C205.111 24.108 204.73 24.1648 204.298 24.1648ZM204.991 22.4943C205.348 22.4943 205.662 22.4242 205.935 22.2841C206.207 22.1402 206.421 21.947 206.577 21.7045C206.732 21.4621 206.81 21.1875 206.81 20.8807V19.9545C206.734 20.0038 206.63 20.0492 206.497 20.0909C206.368 20.1288 206.223 20.1648 206.06 20.1989C205.897 20.2292 205.734 20.2576 205.571 20.2841C205.408 20.3068 205.26 20.3277 205.128 20.3466C204.844 20.3883 204.596 20.4545 204.384 20.5455C204.171 20.6364 204.007 20.7595 203.889 20.9148C203.772 21.0663 203.713 21.2557 203.713 21.483C203.713 21.8125 203.832 22.0644 204.071 22.2386C204.313 22.4091 204.62 22.4943 204.991 22.4943Z" fill="black"/>
<path d="M213.511 18.9545V24H211.091V15.2727H213.398V16.8125H213.5C213.693 16.3049 214.017 15.9034 214.472 15.608C214.926 15.3087 215.477 15.1591 216.125 15.1591C216.731 15.1591 217.259 15.2917 217.71 15.5568C218.161 15.822 218.511 16.2008 218.761 16.6932C219.011 17.1818 219.136 17.7652 219.136 18.4432V24H216.716V18.875C216.72 18.3409 216.583 17.9242 216.307 17.625C216.03 17.322 215.65 17.1705 215.165 17.1705C214.839 17.1705 214.551 17.2405 214.301 17.3807C214.055 17.5208 213.862 17.7254 213.722 17.9943C213.585 18.2595 213.515 18.5795 213.511 18.9545Z" fill="black"/>
<path d="M225.686 15.2727V17.0909H220.43V15.2727H225.686ZM221.624 13.1818H224.044V21.3182C224.044 21.5417 224.078 21.7159 224.146 21.8409C224.214 21.9621 224.309 22.0473 224.43 22.0966C224.555 22.1458 224.699 22.1705 224.862 22.1705C224.976 22.1705 225.089 22.161 225.203 22.142C225.317 22.1193 225.404 22.1023 225.464 22.0909L225.845 23.892C225.724 23.9299 225.553 23.9735 225.334 24.0227C225.114 24.0758 224.847 24.108 224.533 24.1193C223.949 24.142 223.438 24.0644 222.999 23.8864C222.563 23.7083 222.224 23.4318 221.982 23.0568C221.739 22.6818 221.62 22.2083 221.624 21.6364V13.1818Z" fill="black"/>
</g>
<path d="M389.93 416.658L385.832 408.952L390.453 406.495L390.893 407.323L387.206 409.284L388.59 411.887L391.931 410.111L392.371 410.939L389.03 412.715L390.863 416.162L389.93 416.658ZM398.091 412.473C397.534 412.769 396.988 412.901 396.453 412.87C395.92 412.835 395.426 412.654 394.972 412.326C394.519 411.994 394.135 411.532 393.82 410.94C393.505 410.348 393.336 409.769 393.311 409.203C393.288 408.633 393.404 408.118 393.658 407.658C393.913 407.194 394.302 406.823 394.823 406.546C395.124 406.386 395.448 406.278 395.795 406.222C396.142 406.167 396.496 406.188 396.857 406.285C397.216 406.38 397.565 406.574 397.904 406.867C398.243 407.16 398.556 407.576 398.843 408.115L399.043 408.491L394.588 410.86L394.18 410.093L397.732 408.204C397.559 407.878 397.339 407.622 397.072 407.435C396.808 407.247 396.518 407.143 396.201 407.121C395.886 407.099 395.569 407.173 395.248 407.344C394.894 407.532 394.634 407.782 394.469 408.095C394.306 408.404 394.229 408.735 394.239 409.086C394.249 409.438 394.339 409.773 394.508 410.092L394.78 410.604C395.012 411.04 395.284 411.37 395.596 411.594C395.909 411.813 396.243 411.93 396.598 411.944C396.952 411.956 397.308 411.866 397.666 411.675C397.9 411.551 398.093 411.406 398.247 411.241C398.401 411.072 398.512 410.884 398.579 410.678C398.645 410.469 398.663 410.245 398.631 410.004L399.617 409.789C399.681 410.128 399.666 410.464 399.57 410.798C399.473 411.13 399.3 411.44 399.052 411.73C398.802 412.017 398.482 412.265 398.091 412.473ZM401.211 403.246L401.611 403.999L398.616 405.591L398.216 404.839L401.211 403.246ZM398.353 402.99L399.24 402.518L402.169 408.026C402.303 408.277 402.439 408.446 402.579 408.532C402.719 408.615 402.858 408.647 402.997 408.629C403.136 408.606 403.271 408.56 403.401 408.491C403.499 408.439 403.576 408.391 403.634 408.348C403.69 408.302 403.735 408.265 403.768 408.238L404.373 408.939C404.325 408.994 404.253 409.061 404.157 409.141C404.062 409.224 403.932 409.309 403.767 409.397C403.516 409.53 403.242 409.607 402.943 409.627C402.648 409.646 402.362 409.587 402.087 409.45C401.814 409.312 401.588 409.075 401.409 408.739L398.353 402.99ZM407.969 407.22C407.427 407.508 406.893 407.629 406.365 407.581C405.838 407.533 405.35 407.341 404.9 407.004C404.451 406.667 404.073 406.21 403.766 405.633C403.454 405.046 403.286 404.47 403.263 403.907C403.242 403.339 403.358 402.825 403.612 402.365C403.867 401.901 404.255 401.531 404.777 401.253C405.184 401.037 405.59 400.918 405.996 400.895C406.402 400.872 406.781 400.941 407.133 401.101C407.486 401.261 407.783 401.508 408.025 401.843L407.137 402.315C406.929 402.088 406.655 401.935 406.314 401.855C405.973 401.772 405.608 401.835 405.216 402.043C404.87 402.227 404.615 402.479 404.45 402.798C404.286 403.114 404.218 403.473 404.246 403.876C404.275 404.276 404.406 404.694 404.638 405.131C404.875 405.577 405.152 405.928 405.469 406.185C405.788 406.44 406.125 406.59 406.481 406.636C406.839 406.681 407.194 406.609 407.545 406.423C407.776 406.3 407.964 406.148 408.109 405.968C408.255 405.788 408.353 405.588 408.403 405.368C408.454 405.148 408.45 404.918 408.394 404.678L409.282 404.206C409.413 404.574 409.452 404.947 409.399 405.326C409.348 405.701 409.203 406.054 408.964 406.387C408.727 406.716 408.396 406.994 407.969 407.22ZM410.515 401.253L412.364 404.729L411.476 405.201L407.379 397.496L408.267 397.023L409.771 399.853L409.846 399.813C409.823 399.442 409.9 399.097 410.078 398.778C410.256 398.454 410.573 398.172 411.027 397.93C411.421 397.721 411.808 397.617 412.188 397.617C412.566 397.615 412.923 397.733 413.258 397.97C413.595 398.203 413.895 398.568 414.159 399.064L416.111 402.737L415.223 403.209L413.303 399.597C413.059 399.138 412.751 398.846 412.379 398.722C412.009 398.594 411.614 398.641 411.195 398.864C410.904 399.019 410.676 399.219 410.511 399.465C410.348 399.709 410.262 399.984 410.255 400.291C410.25 400.596 410.337 400.916 410.515 401.253ZM423.128 399.16C422.586 399.448 422.051 399.569 421.524 399.521C420.997 399.473 420.508 399.281 420.059 398.944C419.609 398.607 419.231 398.15 418.924 397.573C418.612 396.986 418.445 396.411 418.422 395.847C418.4 395.279 418.516 394.766 418.77 394.305C419.025 393.842 419.414 393.471 419.936 393.193C420.342 392.977 420.748 392.858 421.154 392.835C421.56 392.812 421.94 392.881 422.292 393.041C422.644 393.201 422.941 393.449 423.184 393.783L422.296 394.255C422.088 394.028 421.813 393.875 421.472 393.796C421.132 393.713 420.766 393.775 420.375 393.983C420.029 394.167 419.773 394.419 419.608 394.738C419.445 395.054 419.377 395.413 419.405 395.817C419.434 396.216 419.564 396.634 419.796 397.071C420.034 397.517 420.311 397.869 420.627 398.125C420.946 398.38 421.284 398.53 421.639 398.576C421.998 398.621 422.352 398.549 422.704 398.363C422.934 398.24 423.122 398.089 423.268 397.908C423.413 397.728 423.511 397.528 423.562 397.308C423.612 397.088 423.609 396.858 423.552 396.618L424.44 396.146C424.571 396.514 424.61 396.887 424.558 397.266C424.506 397.641 424.361 397.995 424.123 398.327C423.886 398.656 423.554 398.934 423.128 399.16ZM426.634 397.141L423.561 391.362L424.419 390.906L424.883 391.779L424.944 391.747C424.897 391.405 424.964 391.072 425.145 390.747C425.327 390.422 425.59 390.168 425.936 389.983C426.002 389.949 426.084 389.907 426.183 389.857C426.282 389.808 426.358 389.772 426.411 389.75L426.891 390.653C426.857 390.662 426.782 390.687 426.666 390.73C426.552 390.768 426.435 390.819 426.317 390.881C426.036 391.031 425.817 391.223 425.659 391.458C425.502 391.69 425.414 391.942 425.396 392.216C425.378 392.486 425.439 392.751 425.578 393.012L427.522 396.669L426.634 397.141ZM432.888 393.971C432.331 394.267 431.785 394.399 431.251 394.368C430.717 394.333 430.223 394.152 429.769 393.824C429.316 393.492 428.932 393.03 428.617 392.438C428.303 391.846 428.133 391.267 428.109 390.701C428.085 390.131 428.201 389.616 428.455 389.156C428.71 388.692 429.099 388.321 429.62 388.044C429.921 387.884 430.245 387.776 430.592 387.72C430.939 387.665 431.293 387.686 431.654 387.783C432.013 387.879 432.363 388.072 432.702 388.365C433.041 388.658 433.353 389.074 433.64 389.613L433.84 389.989L429.385 392.358L428.977 391.591L432.529 389.702C432.356 389.376 432.136 389.12 431.869 388.933C431.605 388.745 431.315 388.641 430.998 388.619C430.683 388.597 430.366 388.671 430.045 388.842C429.691 389.03 429.432 389.28 429.267 389.593C429.103 389.902 429.026 390.233 429.036 390.584C429.046 390.936 429.136 391.271 429.305 391.59L429.577 392.102C429.809 392.538 430.081 392.868 430.393 393.092C430.706 393.311 431.04 393.428 431.395 393.442C431.749 393.454 432.105 393.364 432.464 393.173C432.697 393.049 432.89 392.905 433.044 392.739C433.198 392.57 433.309 392.383 433.377 392.176C433.442 391.967 433.46 391.743 433.428 391.502L434.414 391.287C434.479 391.626 434.463 391.962 434.367 392.296C434.27 392.628 434.097 392.938 433.849 393.228C433.599 393.515 433.279 393.763 432.888 393.971ZM438.814 390.82C438.332 391.076 437.842 391.18 437.344 391.133C436.845 391.083 436.372 390.891 435.927 390.555C435.48 390.217 435.094 389.741 434.768 389.129C434.445 388.522 434.269 387.94 434.24 387.383C434.211 386.826 434.317 386.327 434.559 385.886C434.801 385.445 435.165 385.096 435.652 384.837C436.028 384.637 436.359 384.542 436.644 384.551C436.93 384.557 437.172 384.608 437.372 384.704C437.572 384.797 437.732 384.876 437.851 384.942L437.926 384.902L436.413 382.058L437.301 381.585L441.399 389.291L440.541 389.747L440.069 388.859L439.963 388.915C439.954 389.055 439.932 389.238 439.897 389.462C439.86 389.684 439.764 389.917 439.607 390.161C439.45 390.403 439.185 390.623 438.814 390.82ZM438.51 389.958C438.866 389.769 439.118 389.516 439.265 389.2C439.411 388.881 439.46 388.522 439.411 388.123C439.362 387.721 439.221 387.302 438.989 386.866C438.76 386.434 438.496 386.09 438.199 385.833C437.9 385.574 437.58 385.419 437.238 385.369C436.895 385.317 436.543 385.387 436.181 385.579C435.805 385.779 435.543 386.042 435.395 386.369C435.248 386.691 435.199 387.05 435.248 387.445C435.299 387.837 435.432 388.236 435.648 388.642C435.867 389.054 436.128 389.394 436.432 389.663C436.738 389.929 437.067 390.095 437.421 390.161C437.776 390.223 438.139 390.156 438.51 389.958ZM445.635 387.193C445.078 387.489 444.533 387.621 443.998 387.59C443.465 387.555 442.971 387.374 442.517 387.046C442.064 386.714 441.68 386.252 441.365 385.66C441.05 385.068 440.881 384.489 440.856 383.923C440.833 383.353 440.948 382.838 441.203 382.378C441.458 381.914 441.846 381.543 442.368 381.266C442.669 381.106 442.993 380.998 443.34 380.942C443.687 380.887 444.04 380.908 444.401 381.005C444.761 381.101 445.11 381.294 445.449 381.587C445.788 381.88 446.101 382.296 446.388 382.835L446.588 383.211L442.133 385.58L441.725 384.813L445.277 382.924C445.103 382.598 444.883 382.342 444.617 382.155C444.353 381.967 444.062 381.863 443.745 381.841C443.431 381.819 443.113 381.893 442.792 382.064C442.438 382.252 442.179 382.502 442.014 382.815C441.85 383.124 441.773 383.455 441.784 383.806C441.794 384.158 441.883 384.493 442.053 384.812L442.325 385.324C442.557 385.76 442.829 386.09 443.141 386.314C443.454 386.533 443.788 386.65 444.143 386.664C444.496 386.676 444.852 386.586 445.211 386.395C445.444 386.271 445.638 386.127 445.791 385.961C445.946 385.792 446.057 385.605 446.124 385.398C446.19 385.189 446.207 384.965 446.176 384.724L447.162 384.509C447.226 384.848 447.21 385.184 447.115 385.518C447.017 385.85 446.845 386.16 446.597 386.45C446.347 386.737 446.027 386.985 445.635 387.193ZM448.354 381.133L450.203 384.61L449.315 385.082L446.242 379.303L447.1 378.846L447.58 379.749L447.655 379.709C447.635 379.344 447.715 378.999 447.896 378.674C448.076 378.347 448.384 378.067 448.821 377.835C449.212 377.627 449.597 377.525 449.976 377.53C450.354 377.532 450.71 377.651 451.045 377.888C451.379 378.122 451.676 378.485 451.938 378.977L453.89 382.649L453.002 383.121L451.082 379.509C450.84 379.055 450.534 378.764 450.164 378.636C449.792 378.506 449.4 378.55 448.989 378.769C448.706 378.919 448.485 379.116 448.327 379.357C448.172 379.597 448.093 379.869 448.09 380.173C448.088 380.477 448.176 380.797 448.354 381.133ZM454.953 374.671L455.353 375.423L452.358 377.016L451.958 376.263L454.953 374.671ZM452.095 374.414L452.983 373.942L455.912 379.451C456.045 379.702 456.182 379.87 456.321 379.957C456.462 380.04 456.601 380.072 456.739 380.053C456.878 380.031 457.013 379.985 457.144 379.915C457.241 379.863 457.319 379.816 457.376 379.772C457.432 379.727 457.477 379.69 457.511 379.662L458.116 380.364C458.067 380.419 457.995 380.486 457.9 380.566C457.805 380.648 457.675 380.733 457.509 380.821C457.259 380.955 456.984 381.032 456.686 381.052C456.39 381.071 456.105 381.012 455.829 380.875C455.556 380.737 455.331 380.5 455.152 380.164L452.095 374.414ZM459.362 379.74L456.289 373.961L457.177 373.488L460.25 379.268L459.362 379.74ZM456.228 372.757C456.055 372.849 455.875 372.87 455.687 372.818C455.501 372.766 455.364 372.657 455.276 372.491C455.188 372.326 455.174 372.151 455.235 371.968C455.297 371.784 455.415 371.645 455.588 371.553C455.761 371.461 455.941 371.441 456.126 371.494C456.314 371.545 456.452 371.654 456.54 371.819C456.628 371.985 456.641 372.16 456.578 372.344C456.518 372.528 456.402 372.665 456.228 372.757ZM463.649 377.634C463.283 377.829 462.914 377.937 462.542 377.957C462.169 377.976 461.824 377.9 461.509 377.73C461.192 377.557 460.933 377.283 460.733 376.907C460.557 376.575 460.48 376.272 460.501 375.997C460.52 375.72 460.608 375.464 460.764 375.23C460.919 374.996 461.113 374.78 461.346 374.583C461.58 374.381 461.822 374.191 462.071 374.013C462.399 373.782 462.665 373.596 462.871 373.458C463.079 373.315 463.217 373.189 463.287 373.078C463.359 372.965 463.357 372.837 463.281 372.694L463.265 372.664C463.068 372.293 462.813 372.059 462.5 371.961C462.19 371.862 461.831 371.921 461.422 372.139C460.998 372.364 460.715 372.634 460.573 372.947C460.431 373.261 460.367 373.549 460.381 373.812L459.378 373.959C459.342 373.528 459.397 373.148 459.544 372.819C459.692 372.486 459.895 372.201 460.152 371.965C460.41 371.724 460.685 371.527 460.976 371.372C461.161 371.273 461.387 371.183 461.651 371.1C461.917 371.013 462.199 370.977 462.497 370.993C462.797 371.007 463.095 371.111 463.391 371.304C463.687 371.497 463.957 371.824 464.201 372.283L466.226 376.09L465.338 376.562L464.922 375.78L464.877 375.804C464.883 375.961 464.854 376.149 464.79 376.366C464.725 376.584 464.603 376.805 464.423 377.029C464.243 377.254 463.985 377.455 463.649 377.634ZM463.36 376.764C463.712 376.578 463.971 376.351 464.138 376.085C464.308 375.818 464.397 375.543 464.404 375.259C464.413 374.974 464.354 374.711 464.226 374.47L463.793 373.658C463.78 373.723 463.719 373.808 463.611 373.914C463.504 374.016 463.376 374.124 463.225 374.24C463.075 374.352 462.928 374.459 462.783 374.562C462.639 374.661 462.523 374.742 462.434 374.805C462.22 374.958 462.03 375.121 461.865 375.296C461.702 375.466 461.594 375.651 461.542 375.849C461.491 376.044 461.525 376.254 461.645 376.48C461.809 376.788 462.047 376.961 462.36 376.997C462.673 377.03 463.007 376.952 463.36 376.764ZM464.637 367.051L468.735 374.756L467.847 375.228L463.749 367.523L464.637 367.051ZM472.07 367.23L471.392 367.88C471.271 367.774 471.129 367.684 470.964 367.61C470.801 367.533 470.614 367.497 470.405 367.502C470.195 367.508 469.961 367.579 469.703 367.716C469.349 367.904 469.098 368.143 468.949 368.431C468.801 368.716 468.793 368.982 468.925 369.23C469.042 369.451 469.215 369.583 469.444 369.625C469.672 369.668 469.98 369.641 470.366 369.545L471.336 369.3C471.92 369.15 472.407 369.137 472.797 369.261C473.187 369.382 473.489 369.645 473.704 370.049C473.88 370.38 473.942 370.726 473.89 371.089C473.84 371.449 473.686 371.795 473.428 372.126C473.169 372.456 472.815 372.741 472.366 372.98C471.777 373.293 471.221 373.425 470.699 373.374C470.176 373.324 469.733 373.08 469.369 372.643L470.1 371.984C470.345 372.253 470.621 372.405 470.927 372.442C471.235 372.477 471.571 372.398 471.935 372.205C472.349 371.985 472.631 371.723 472.781 371.418C472.932 371.109 472.942 370.83 472.81 370.582C472.703 370.381 472.543 370.25 472.331 370.19C472.117 370.126 471.847 370.138 471.52 370.225L470.436 370.512C469.84 370.668 469.348 370.68 468.96 370.549C468.573 370.413 468.273 370.146 468.061 369.748C467.888 369.422 467.826 369.084 467.876 368.736C467.928 368.387 468.075 368.056 468.318 367.743C468.563 367.43 468.888 367.165 469.295 366.949C469.867 366.645 470.382 366.531 470.842 366.609C471.304 366.685 471.713 366.892 472.07 367.23Z" fill="black"/>
<path d="M377.468 149.539L382.348 142.304L386.687 145.23L386.162 146.008L382.7 143.672L381.051 146.117L384.188 148.233L383.664 149.01L380.527 146.894L378.344 150.13L377.468 149.539ZM384.994 154.781C384.472 154.428 384.098 154.008 383.875 153.522C383.655 153.034 383.584 152.513 383.66 151.958C383.74 151.402 383.968 150.846 384.343 150.29C384.718 149.735 385.149 149.313 385.638 149.026C386.13 148.738 386.639 148.598 387.165 148.606C387.694 148.614 388.204 148.783 388.694 149.113C388.976 149.304 389.224 149.539 389.436 149.819C389.648 150.099 389.795 150.422 389.878 150.786C389.963 151.148 389.956 151.548 389.857 151.984C389.757 152.421 389.537 152.893 389.195 153.399L388.957 153.752L384.774 150.931L385.26 150.21L388.595 152.46C388.802 152.154 388.925 151.839 388.964 151.516C389.006 151.195 388.962 150.889 388.832 150.6C388.705 150.311 388.49 150.065 388.189 149.862C387.857 149.638 387.514 149.527 387.16 149.528C386.81 149.528 386.482 149.616 386.176 149.79C385.87 149.964 385.617 150.2 385.415 150.5L385.091 150.98C384.814 151.39 384.651 151.785 384.6 152.165C384.553 152.545 384.606 152.894 384.761 153.214C384.917 153.532 385.163 153.804 385.5 154.032C385.719 154.179 385.937 154.282 386.155 154.34C386.377 154.397 386.595 154.407 386.809 154.37C387.024 154.33 387.23 154.239 387.428 154.099L388.081 154.868C387.812 155.084 387.508 155.228 387.168 155.3C386.829 155.37 386.474 155.364 386.102 155.281C385.731 155.195 385.362 155.028 384.994 154.781ZM394.606 153.204L394.129 153.91L391.317 152.014L391.794 151.307L394.606 153.204ZM393.49 150.56L394.324 151.122L390.836 156.294C390.677 156.53 390.592 156.729 390.581 156.893C390.573 157.056 390.61 157.194 390.692 157.308C390.777 157.42 390.881 157.517 391.003 157.6C391.095 157.662 391.174 157.708 391.239 157.738C391.306 157.766 391.359 157.789 391.399 157.805L391.064 158.669C390.993 158.652 390.9 158.62 390.784 158.573C390.667 158.528 390.531 158.453 390.375 158.348C390.14 158.189 389.943 157.983 389.785 157.729C389.63 157.477 389.548 157.197 389.539 156.89C389.533 156.584 389.636 156.274 389.849 155.958L393.49 150.56ZM394.27 161.037C393.761 160.694 393.404 160.278 393.199 159.79C392.993 159.302 392.934 158.78 393.02 158.225C393.107 157.67 393.333 157.122 393.698 156.58C394.07 156.029 394.499 155.611 394.986 155.326C395.477 155.041 395.985 154.902 396.511 154.91C397.04 154.918 397.55 155.087 398.04 155.417C398.421 155.675 398.718 155.977 398.928 156.325C399.139 156.673 399.257 157.04 399.281 157.426C399.305 157.812 399.226 158.191 399.044 158.562L398.21 157.999C398.313 157.709 398.32 157.395 398.23 157.056C398.143 156.717 397.916 156.424 397.549 156.176C397.224 155.956 396.882 155.849 396.522 155.853C396.167 155.857 395.818 155.966 395.475 156.18C395.135 156.393 394.828 156.705 394.551 157.114C394.268 157.534 394.088 157.943 394.01 158.343C393.935 158.745 393.96 159.113 394.087 159.449C394.216 159.786 394.445 160.066 394.775 160.288C394.992 160.434 395.214 160.529 395.441 160.573C395.669 160.617 395.891 160.609 396.109 160.55C396.327 160.492 396.529 160.381 396.714 160.218L397.548 160.78C397.284 161.069 396.973 161.279 396.614 161.41C396.259 161.541 395.878 161.579 395.473 161.524C395.071 161.469 394.67 161.307 394.27 161.037ZM400.734 160.483L398.533 163.748L397.699 163.185L402.579 155.95L403.413 156.512L401.621 159.169L401.692 159.217C402.008 159.022 402.349 158.928 402.714 158.935C403.084 158.941 403.482 159.088 403.908 159.375C404.278 159.625 404.551 159.917 404.729 160.253C404.909 160.587 404.973 160.957 404.921 161.364C404.873 161.77 404.692 162.207 404.377 162.673L402.051 166.121L401.218 165.559L403.505 162.167C403.796 161.736 403.909 161.327 403.844 160.941C403.783 160.554 403.556 160.227 403.162 159.962C402.889 159.778 402.605 159.67 402.311 159.64C402.019 159.61 401.736 159.664 401.461 159.802C401.19 159.94 400.947 160.168 400.734 160.483ZM408.503 170.637C407.994 170.294 407.637 169.878 407.432 169.39C407.226 168.902 407.167 168.381 407.253 167.826C407.34 167.271 407.566 166.722 407.931 166.181C408.303 165.629 408.732 165.211 409.219 164.926C409.71 164.641 410.218 164.502 410.744 164.51C411.273 164.518 411.783 164.687 412.273 165.017C412.654 165.275 412.951 165.577 413.161 165.925C413.372 166.273 413.49 166.64 413.514 167.026C413.537 167.413 413.459 167.791 413.277 168.162L412.443 167.6C412.546 167.309 412.553 166.995 412.462 166.657C412.376 166.317 412.149 166.024 411.782 165.776C411.457 165.557 411.115 165.449 410.755 165.454C410.4 165.457 410.051 165.566 409.707 165.78C409.368 165.993 409.06 166.305 408.784 166.715C408.501 167.134 408.321 167.543 408.243 167.943C408.168 168.345 408.193 168.713 408.32 169.049C408.449 169.386 408.678 169.666 409.008 169.888C409.225 170.034 409.447 170.129 409.674 170.173C409.902 170.217 410.124 170.209 410.342 170.151C410.56 170.092 410.761 169.981 410.947 169.818L411.78 170.381C411.517 170.669 411.206 170.879 410.847 171.01C410.492 171.141 410.111 171.179 409.706 171.125C409.304 171.07 408.903 170.907 408.503 170.637ZM411.932 172.785L415.592 167.359L416.397 167.902L415.845 168.722L415.901 168.76C416.181 168.558 416.507 168.461 416.879 168.469C417.251 168.476 417.599 168.59 417.924 168.809C417.985 168.85 418.061 168.903 418.151 168.967C418.242 169.032 418.309 169.082 418.353 169.118L417.781 169.966C417.757 169.94 417.7 169.886 417.608 169.803C417.52 169.72 417.421 169.641 417.31 169.567C417.046 169.389 416.774 169.285 416.492 169.256C416.214 169.226 415.95 169.267 415.699 169.379C415.453 169.491 415.247 169.669 415.082 169.914L412.765 173.348L411.932 172.785ZM417.667 176.818C417.144 176.466 416.771 176.046 416.547 175.56C416.328 175.072 416.256 174.551 416.333 173.996C416.413 173.44 416.64 172.884 417.015 172.328C417.39 171.773 417.822 171.351 418.31 171.064C418.803 170.776 419.312 170.636 419.837 170.644C420.367 170.652 420.876 170.821 421.366 171.151C421.649 171.342 421.896 171.577 422.108 171.857C422.32 172.137 422.468 172.459 422.551 172.824C422.636 173.186 422.628 173.586 422.529 174.022C422.43 174.459 422.209 174.931 421.868 175.437L421.63 175.79L417.447 172.969L417.933 172.248L421.268 174.498C421.474 174.192 421.597 173.877 421.637 173.554C421.679 173.233 421.635 172.927 421.505 172.637C421.377 172.349 421.163 172.103 420.861 171.9C420.529 171.676 420.186 171.565 419.832 171.566C419.482 171.566 419.155 171.654 418.849 171.828C418.543 172.002 418.289 172.238 418.087 172.537L417.763 173.018C417.487 173.428 417.323 173.823 417.272 174.203C417.225 174.583 417.279 174.932 417.433 175.252C417.589 175.57 417.835 175.842 418.172 176.069C418.391 176.217 418.61 176.32 418.828 176.378C419.05 176.435 419.267 176.445 419.481 176.407C419.696 176.368 419.903 176.277 420.101 176.137L420.754 176.906C420.485 177.122 420.18 177.266 419.84 177.338C419.502 177.408 419.146 177.402 418.774 177.318C418.403 177.233 418.034 177.066 417.667 176.818ZM423.231 180.572C422.779 180.266 422.457 179.883 422.265 179.421C422.074 178.957 422.023 178.449 422.11 177.898C422.199 177.344 422.437 176.78 422.825 176.206C423.209 175.636 423.64 175.207 424.119 174.92C424.597 174.632 425.087 174.492 425.59 174.499C426.093 174.505 426.572 174.663 427.029 174.971C427.383 175.209 427.622 175.456 427.748 175.712C427.877 175.968 427.946 176.206 427.954 176.427C427.966 176.648 427.971 176.826 427.969 176.962L428.04 177.009L429.841 174.338L430.675 174.901L425.795 182.136L424.989 181.593L425.551 180.759L425.453 180.692C425.325 180.75 425.153 180.816 424.938 180.89C424.725 180.963 424.474 180.987 424.185 180.963C423.898 180.937 423.58 180.807 423.231 180.572ZM423.849 179.899C424.184 180.124 424.525 180.228 424.874 180.209C425.224 180.188 425.563 180.063 425.893 179.833C426.225 179.601 426.529 179.28 426.805 178.87C427.078 178.465 427.258 178.071 427.346 177.687C427.434 177.302 427.421 176.946 427.304 176.621C427.189 176.294 426.962 176.015 426.623 175.787C426.27 175.548 425.914 175.44 425.556 175.463C425.203 175.485 424.863 175.61 424.537 175.839C424.215 176.067 423.925 176.372 423.668 176.754C423.407 177.14 423.23 177.531 423.134 177.926C423.043 178.32 423.051 178.689 423.159 179.032C423.271 179.375 423.501 179.664 423.849 179.899ZM429.636 184.892C429.113 184.539 428.74 184.119 428.517 183.633C428.297 183.146 428.225 182.624 428.302 182.069C428.382 181.513 428.61 180.958 428.984 180.402C429.359 179.846 429.791 179.424 430.28 179.137C430.772 178.849 431.281 178.709 431.806 178.717C432.336 178.725 432.846 178.894 433.335 179.224C433.618 179.415 433.865 179.65 434.077 179.93C434.289 180.211 434.437 180.533 434.52 180.897C434.605 181.259 434.598 181.659 434.498 182.096C434.399 182.532 434.179 183.004 433.837 183.51L433.599 183.864L429.416 181.042L429.902 180.322L433.237 182.571C433.444 182.265 433.567 181.95 433.606 181.628C433.648 181.306 433.604 181.001 433.474 180.711C433.346 180.423 433.132 180.177 432.83 179.973C432.498 179.749 432.155 179.638 431.802 179.639C431.452 179.64 431.124 179.727 430.818 179.901C430.512 180.075 430.258 180.312 430.056 180.611L429.732 181.091C429.456 181.501 429.292 181.896 429.241 182.276C429.194 182.656 429.248 183.006 429.402 183.326C429.558 183.643 429.805 183.916 430.141 184.143C430.36 184.291 430.579 184.393 430.797 184.451C431.019 184.508 431.237 184.518 431.45 184.481C431.666 184.441 431.872 184.351 432.07 184.21L432.723 184.979C432.454 185.195 432.149 185.339 431.809 185.412C431.471 185.482 431.116 185.475 430.743 185.392C430.373 185.306 430.004 185.14 429.636 184.892ZM436.263 184.448L434.061 187.712L433.228 187.15L436.888 181.723L437.693 182.267L437.121 183.114L437.192 183.162C437.505 182.972 437.848 182.881 438.219 182.889C438.593 182.894 438.984 183.035 439.394 183.311C439.762 183.559 440.032 183.851 440.206 184.188C440.382 184.522 440.444 184.893 440.392 185.3C440.341 185.704 440.161 186.138 439.849 186.599L437.524 190.047L436.69 189.485L438.977 186.093C439.265 185.667 439.378 185.26 439.317 184.873C439.258 184.484 439.035 184.159 438.649 183.898C438.383 183.719 438.106 183.616 437.818 183.59C437.533 183.565 437.256 183.623 436.987 183.764C436.717 183.904 436.476 184.132 436.263 184.448ZM445.067 187.24L444.591 187.947L441.778 186.05L442.255 185.344L445.067 187.24ZM443.952 184.596L444.785 185.159L441.297 190.331C441.138 190.566 441.053 190.766 441.042 190.93C441.035 191.093 441.072 191.231 441.153 191.344C441.238 191.456 441.342 191.554 441.465 191.636C441.556 191.698 441.635 191.745 441.7 191.775C441.767 191.803 441.82 191.825 441.861 191.842L441.525 192.705C441.454 192.688 441.361 192.656 441.245 192.609C441.128 192.564 440.992 192.49 440.836 192.385C440.601 192.226 440.404 192.02 440.247 191.766C440.091 191.514 440.009 191.234 440 190.926C439.994 190.621 440.098 190.31 440.31 189.994L443.952 184.596ZM442.661 193.513L446.321 188.086L447.155 188.649L443.495 194.075L442.661 193.513ZM447.355 187.468C447.193 187.358 447.09 187.208 447.047 187.018C447.006 186.83 447.038 186.658 447.143 186.502C447.248 186.347 447.395 186.253 447.585 186.22C447.778 186.189 447.955 186.228 448.118 186.337C448.28 186.447 448.382 186.596 448.423 186.785C448.466 186.975 448.435 187.147 448.33 187.303C448.225 187.458 448.077 187.552 447.884 187.583C447.694 187.616 447.518 187.577 447.355 187.468ZM446.533 196.309C446.189 196.077 445.921 195.802 445.728 195.484C445.537 195.163 445.442 194.823 445.444 194.464C445.447 194.104 445.568 193.746 445.807 193.393C446.016 193.082 446.247 192.872 446.5 192.761C446.755 192.648 447.021 192.606 447.301 192.633C447.581 192.661 447.862 192.731 448.146 192.843C448.434 192.955 448.715 193.08 448.989 193.217C449.348 193.397 449.636 193.545 449.856 193.662C450.079 193.778 450.256 193.841 450.386 193.851C450.519 193.862 450.631 193.8 450.722 193.666L450.741 193.637C450.976 193.289 451.063 192.954 451.003 192.632C450.945 192.312 450.724 192.022 450.34 191.763C449.942 191.495 449.571 191.371 449.227 191.393C448.884 191.415 448.599 191.494 448.374 191.63L447.773 190.813C448.137 190.579 448.498 190.449 448.858 190.424C449.221 190.399 449.568 190.444 449.897 190.56C450.231 190.675 450.534 190.825 450.807 191.009C450.981 191.127 451.167 191.283 451.365 191.478C451.566 191.672 451.73 191.904 451.856 192.174C451.985 192.446 452.033 192.758 452.001 193.11C451.969 193.462 451.808 193.854 451.517 194.285L449.106 197.86L448.272 197.297L448.768 196.563L448.725 196.534C448.589 196.614 448.41 196.676 448.188 196.721C447.965 196.767 447.713 196.763 447.43 196.709C447.148 196.655 446.849 196.522 446.533 196.309ZM447.165 195.646C447.495 195.869 447.817 195.991 448.13 196.014C448.446 196.039 448.731 195.988 448.984 195.86C449.24 195.735 449.445 195.559 449.597 195.333L450.112 194.57C450.048 194.589 449.944 194.575 449.8 194.529C449.66 194.483 449.504 194.42 449.331 194.341C449.162 194.262 448.998 194.182 448.839 194.102C448.684 194.022 448.558 193.957 448.461 193.909C448.225 193.791 447.991 193.7 447.76 193.637C447.533 193.572 447.319 193.564 447.12 193.611C446.924 193.657 446.755 193.786 446.612 193.998C446.416 194.288 446.376 194.579 446.49 194.872C446.608 195.164 446.833 195.422 447.165 195.646ZM456.342 192.213L451.461 199.449L450.628 198.886L455.508 191.651L456.342 192.213ZM459.673 198.86L458.781 198.567C458.818 198.41 458.83 198.242 458.818 198.062C458.809 197.882 458.754 197.7 458.65 197.518C458.547 197.335 458.375 197.162 458.132 196.999C457.8 196.775 457.472 196.664 457.147 196.668C456.826 196.671 456.587 196.789 456.43 197.022C456.29 197.23 456.255 197.444 456.325 197.666C456.395 197.888 456.563 198.147 456.829 198.443L457.501 199.184C457.907 199.629 458.147 200.053 458.221 200.456C458.297 200.857 458.207 201.247 457.951 201.626C457.741 201.937 457.464 202.154 457.12 202.279C456.778 202.404 456.401 202.431 455.987 202.358C455.574 202.284 455.157 202.106 454.735 201.821C454.182 201.448 453.805 201.019 453.604 200.534C453.403 200.049 453.41 199.543 453.625 199.016L454.55 199.352C454.428 199.695 454.423 200.01 454.534 200.298C454.648 200.587 454.875 200.847 455.217 201.077C455.605 201.339 455.969 201.465 456.309 201.454C456.653 201.442 456.903 201.32 457.06 201.087C457.188 200.898 457.228 200.696 457.182 200.48C457.137 200.262 457 200.028 456.77 199.78L456.008 198.958C455.591 198.505 455.349 198.077 455.282 197.672C455.22 197.267 455.315 196.877 455.568 196.502C455.774 196.196 456.043 195.983 456.374 195.864C456.707 195.746 457.068 195.721 457.458 195.788C457.85 195.857 458.237 196.02 458.618 196.278C459.155 196.64 459.497 197.042 459.645 197.484C459.794 197.928 459.804 198.386 459.673 198.86Z" fill="black"/>
<path d="M533.264 261.575L530.536 256.486L527.493 261.393L533.264 261.575ZM267.264 96.5751L267 97L529.176 259.628L529.439 259.203L529.703 258.778L267.527 96.1502L267.264 96.5751Z" fill="black"/>
<path d="M282.238 442.44L287.998 442.84L285.465 437.652L282.238 442.44ZM533 320L532.781 319.551L286.063 440.016L286.282 440.465L286.501 440.914L533.219 320.449L533 320Z" fill="black"/>
<path d="M338.998 277.956L343.997 280.844L343.999 275.071L338.998 277.956ZM539 278L539 277.5L343.498 277.457L343.498 277.957L343.498 278.457L539 278.5L539 278Z" fill="black"/>
<path d="M539.002 297.044L534.003 294.156L534.001 299.929L539.002 297.044ZM534.502 297.043L534.502 296.543L339 296.5L339 297L339 297.5L534.502 297.543L534.502 297.043Z" fill="black"/>
<defs>
<filter id="filter0_d_2561_43" x="0" y="0" width="864" height="564" filterUnits="userSpaceOnUse" color-interpolation-filters="sRGB">
<feFlood flood-opacity="0" result="BackgroundImageFix"/>
<feColorMatrix in="SourceAlpha" type="matrix" values="0 0 0 0 0 0 0 0 0 0 0 0 0 0 0 0 0 0 127 0" result="hardAlpha"/>
<feOffset dy="4"/>
<feGaussianBlur stdDeviation="2"/>
<feComposite in2="hardAlpha" operator="out"/>
<feColorMatrix type="matrix" values="0 0 0 0 0 0 0 0 0 0 0 0 0 0 0 0 0 0 0.25 0"/>
<feBlend mode="normal" in2="BackgroundImageFix" result="effect1_dropShadow_2561_43"/>
<feBlend mode="normal" in="SourceGraphic" in2="effect1_dropShadow_2561_43" result="shape"/>
</filter>
</defs>
</svg>
