<svg width="200" height="248" viewBox="0 0 200 248" fill="none" xmlns="http://www.w3.org/2000/svg">
<rect width="200" height="248" fill="white"/>
<g clip-path="url(#clip0_2010_382)">
<path d="M195 0.5H5C2.51472 0.5 0.5 2.51472 0.5 5V242.917C0.5 245.402 2.51472 247.417 5 247.417H195C197.485 247.417 199.5 245.402 199.5 242.917V5C199.5 2.51472 197.485 0.5 195 0.5Z" stroke="black"/>
<path d="M35.4167 44.6667C35.4167 43.0098 36.7598 41.6667 38.4167 41.6667H161.583C163.24 41.6667 164.583 43.0098 164.583 44.6667V95.8334H35.4167V44.6667Z" fill="#EEEEEE"/>
<path d="M84.9556 58.5834H83.8107C83.743 58.2541 83.6245 57.9648 83.4552 57.7155C83.289 57.4662 83.0859 57.2569 82.8458 57.0876C82.6089 56.9153 82.3457 56.786 82.0564 56.6999C81.7671 56.6137 81.4655 56.5706 81.1516 56.5706C80.5792 56.5706 80.0606 56.7152 79.5958 57.0045C79.1342 57.2938 78.7664 57.7201 78.4925 58.2833C78.2217 58.8465 78.0863 59.5374 78.0863 60.3561C78.0863 61.1748 78.2217 61.8657 78.4925 62.4289C78.7664 62.9921 79.1342 63.4184 79.5958 63.7077C80.0606 63.997 80.5792 64.1416 81.1516 64.1416C81.4655 64.1416 81.7671 64.0985 82.0564 64.0124C82.3457 63.9262 82.6089 63.7985 82.8458 63.6292C83.0859 63.4568 83.289 63.246 83.4552 62.9967C83.6245 62.7444 83.743 62.4551 83.8107 62.1288H84.9556C84.8694 62.612 84.7124 63.0444 84.4847 63.4261C84.257 63.8077 83.9738 64.1324 83.6353 64.4001C83.2967 64.6648 82.9166 64.8664 82.495 65.0049C82.0764 65.1434 81.6286 65.2126 81.1516 65.2126C80.3453 65.2126 79.6282 65.0157 79.0003 64.6217C78.3725 64.2278 77.8785 63.6677 77.5184 62.9413C77.1583 62.215 76.9783 61.3533 76.9783 60.3561C76.9783 59.3589 77.1583 58.4972 77.5184 57.7709C77.8785 57.0445 78.3725 56.4844 79.0003 56.0905C79.6282 55.6965 80.3453 55.4996 81.1516 55.4996C81.6286 55.4996 82.0764 55.5688 82.495 55.7073C82.9166 55.8458 83.2967 56.0489 83.6353 56.3167C83.9738 56.5814 84.257 56.9045 84.4847 57.2861C84.7124 57.6647 84.8694 58.0971 84.9556 58.5834ZM88.7446 65.2496C88.2952 65.2496 87.8874 65.1649 87.5212 64.9957C87.1549 64.8233 86.8641 64.5756 86.6487 64.2524C86.4332 63.9262 86.3255 63.5322 86.3255 63.0706C86.3255 62.6643 86.4055 62.335 86.5656 62.0827C86.7256 61.8272 86.9395 61.6272 87.2073 61.4825C87.475 61.3379 87.7705 61.2302 88.0936 61.1594C88.4199 61.0855 88.7476 61.027 89.0769 60.9839C89.5078 60.9285 89.8571 60.887 90.1249 60.8593C90.3957 60.8285 90.5927 60.7777 90.7158 60.707C90.842 60.6362 90.9051 60.5131 90.9051 60.3376V60.3007C90.9051 59.8452 90.7804 59.4913 90.5311 59.2389C90.2849 58.9865 89.911 58.8604 89.4093 58.8604C88.8892 58.8604 88.4814 58.9742 88.186 59.202C87.8905 59.4297 87.6828 59.6729 87.5627 59.9314L86.5286 59.5621C86.7133 59.1312 86.9595 58.7957 87.2673 58.5557C87.5781 58.3125 87.9167 58.1433 88.2829 58.0479C88.6522 57.9494 89.0154 57.9001 89.3724 57.9001C89.6001 57.9001 89.8617 57.9278 90.1572 57.9832C90.4557 58.0356 90.7435 58.1448 91.0205 58.311C91.3005 58.4772 91.5329 58.728 91.7176 59.0635C91.9022 59.399 91.9946 59.8483 91.9946 60.4115V65.0834H90.9051V64.1231H90.8497C90.7758 64.277 90.6527 64.4417 90.4803 64.6171C90.308 64.7925 90.0787 64.9418 89.7925 65.0649C89.5063 65.188 89.157 65.2496 88.7446 65.2496ZM88.9107 64.2709C89.3416 64.2709 89.7048 64.1862 90.0002 64.017C90.2988 63.8477 90.5234 63.6292 90.6742 63.3614C90.8281 63.0937 90.9051 62.8121 90.9051 62.5166V61.5195C90.8589 61.5749 90.7573 61.6256 90.6004 61.6718C90.4465 61.7149 90.268 61.7534 90.0649 61.7872C89.8648 61.818 89.6694 61.8457 89.4786 61.8703C89.2908 61.8918 89.1385 61.9103 89.0215 61.9257C88.7384 61.9626 88.4737 62.0226 88.2275 62.1057C87.9844 62.1858 87.7874 62.3073 87.6366 62.4704C87.4889 62.6305 87.415 62.849 87.415 63.126C87.415 63.5045 87.555 63.7908 87.8351 63.9847C88.1183 64.1755 88.4768 64.2709 88.9107 64.2709ZM97.0669 57.9925V58.9158H93.3922V57.9925H97.0669ZM94.4632 56.2936H95.5527V63.0521C95.5527 63.3599 95.5973 63.5907 95.6866 63.7446C95.7789 63.8954 95.8959 63.997 96.0374 64.0493C96.1821 64.0985 96.3344 64.1231 96.4945 64.1231C96.6145 64.1231 96.713 64.117 96.7899 64.1047C96.8669 64.0893 96.9284 64.077 96.9746 64.0677L97.1962 65.0464C97.1223 65.0741 97.0192 65.1018 96.8869 65.1295C96.7545 65.1603 96.5868 65.1757 96.3837 65.1757C96.0759 65.1757 95.7743 65.1095 95.4788 64.9772C95.1865 64.8449 94.9433 64.6433 94.7494 64.3724C94.5586 64.1016 94.4632 63.76 94.4632 63.3476V56.2936ZM100.792 65.2496C100.343 65.2496 99.9353 65.1649 99.569 64.9957C99.2028 64.8233 98.912 64.5756 98.6965 64.2524C98.4811 63.9262 98.3734 63.5322 98.3734 63.0706C98.3734 62.6643 98.4534 62.335 98.6134 62.0827C98.7735 61.8272 98.9874 61.6272 99.2551 61.4825C99.5229 61.3379 99.8183 61.2302 100.141 61.1594C100.468 61.0855 100.795 61.027 101.125 60.9839C101.556 60.9285 101.905 60.887 102.173 60.8593C102.443 60.8285 102.64 60.7777 102.764 60.707C102.89 60.6362 102.953 60.5131 102.953 60.3376V60.3007C102.953 59.8452 102.828 59.4913 102.579 59.2389C102.333 58.9865 101.959 58.8604 101.457 58.8604C100.937 58.8604 100.529 58.9742 100.234 59.202C99.9384 59.4297 99.7306 59.6729 99.6106 59.9314L98.5765 59.5621C98.7612 59.1312 99.0074 58.7957 99.3151 58.5557C99.626 58.3125 99.9645 58.1433 100.331 58.0479C100.7 57.9494 101.063 57.9001 101.42 57.9001C101.648 57.9001 101.909 57.9278 102.205 57.9832C102.503 58.0356 102.791 58.1448 103.068 58.311C103.348 58.4772 103.581 58.728 103.765 59.0635C103.95 59.399 104.042 59.8483 104.042 60.4115V65.0834H102.953V64.1231H102.897C102.824 64.277 102.7 64.4417 102.528 64.6171C102.356 64.7925 102.126 64.9418 101.84 65.0649C101.554 65.188 101.205 65.2496 100.792 65.2496ZM100.958 64.2709C101.389 64.2709 101.753 64.1862 102.048 64.017C102.347 63.8477 102.571 63.6292 102.722 63.3614C102.876 63.0937 102.953 62.8121 102.953 62.5166V61.5195C102.907 61.5749 102.805 61.6256 102.648 61.6718C102.494 61.7149 102.316 61.7534 102.113 61.7872C101.913 61.818 101.717 61.8457 101.526 61.8703C101.339 61.8918 101.186 61.9103 101.069 61.9257C100.786 61.9626 100.521 62.0226 100.275 62.1057C100.032 62.1858 99.8353 62.3073 99.6845 62.4704C99.5367 62.6305 99.4629 62.849 99.4629 63.126C99.4629 63.5045 99.6029 63.7908 99.883 63.9847C100.166 64.1755 100.525 64.2709 100.958 64.2709ZM107.12 55.6288V65.0834H106.031V55.6288H107.12ZM111.996 65.2311C111.356 65.2311 110.795 65.0788 110.311 64.7741C109.831 64.4694 109.456 64.0431 109.185 63.4953C108.917 62.9475 108.783 62.3073 108.783 61.5749C108.783 60.8362 108.917 60.1914 109.185 59.6405C109.456 59.0896 109.831 58.6619 110.311 58.3572C110.795 58.0525 111.356 57.9001 111.996 57.9001C112.637 57.9001 113.197 58.0525 113.677 58.3572C114.16 58.6619 114.536 59.0896 114.803 59.6405C115.074 60.1914 115.21 60.8362 115.21 61.5749C115.21 62.3073 115.074 62.9475 114.803 63.4953C114.536 64.0431 114.16 64.4694 113.677 64.7741C113.197 65.0788 112.637 65.2311 111.996 65.2311ZM111.996 64.2524C112.483 64.2524 112.883 64.1278 113.197 63.8785C113.511 63.6292 113.743 63.3014 113.894 62.8952C114.045 62.4889 114.12 62.0488 114.12 61.5749C114.12 61.1009 114.045 60.6592 113.894 60.2499C113.743 59.8406 113.511 59.5097 113.197 59.2574C112.883 59.005 112.483 58.8788 111.996 58.8788C111.51 58.8788 111.11 59.005 110.796 59.2574C110.482 59.5097 110.25 59.8406 110.099 60.2499C109.948 60.6592 109.873 61.1009 109.873 61.5749C109.873 62.0488 109.948 62.4889 110.099 62.8952C110.25 63.3014 110.482 63.6292 110.796 63.8785C111.11 64.1278 111.51 64.2524 111.996 64.2524ZM119.735 67.8902C119.209 67.8902 118.756 67.8225 118.378 67.6871C117.999 67.5547 117.684 67.3793 117.431 67.1608C117.182 66.9454 116.983 66.7145 116.836 66.4683L117.704 65.8589C117.802 65.9882 117.927 66.1359 118.078 66.3021C118.228 66.4714 118.435 66.6176 118.696 66.7407C118.961 66.8669 119.307 66.93 119.735 66.93C120.307 66.93 120.78 66.7915 121.152 66.5145C121.525 66.2375 121.711 65.8035 121.711 65.2126V63.7723H121.618C121.538 63.9016 121.424 64.0616 121.277 64.2524C121.132 64.4401 120.923 64.6079 120.649 64.7556C120.378 64.9003 120.012 64.9726 119.55 64.9726C118.978 64.9726 118.464 64.8372 118.008 64.5663C117.556 64.2955 117.197 63.9016 116.933 63.3845C116.671 62.8675 116.54 62.2396 116.54 61.501C116.54 60.7747 116.668 60.1422 116.923 59.6036C117.179 59.0619 117.534 58.6434 117.99 58.3479C118.445 58.0494 118.972 57.9001 119.569 57.9001C120.03 57.9001 120.397 57.9771 120.667 58.131C120.941 58.2818 121.151 58.4541 121.295 58.648C121.443 58.8388 121.557 58.9958 121.637 59.1189H121.748V57.9925H122.8V65.2865C122.8 65.8959 122.662 66.3914 122.385 66.773C122.111 67.1577 121.741 67.4393 121.277 67.6178C120.815 67.7994 120.301 67.8902 119.735 67.8902ZM119.698 63.9939C120.135 63.9939 120.504 63.8939 120.806 63.6938C121.107 63.4938 121.337 63.206 121.494 62.8305C121.651 62.4551 121.729 62.0057 121.729 61.4825C121.729 60.9716 121.652 60.5208 121.498 60.1299C121.344 59.739 121.117 59.4328 120.815 59.2112C120.514 58.9896 120.141 58.8788 119.698 58.8788C119.236 58.8788 118.852 58.9958 118.544 59.2297C118.239 59.4636 118.01 59.7775 117.856 60.1714C117.705 60.5654 117.63 61.0024 117.63 61.4825C117.63 61.9749 117.707 62.4104 117.861 62.789C118.018 63.1645 118.248 63.4599 118.553 63.6753C118.861 63.8877 119.242 63.9939 119.698 63.9939ZM86.168 73.9925C86.1126 73.5247 85.8879 73.1615 85.494 72.903C85.1 72.6445 84.6168 72.5152 84.0444 72.5152C83.6258 72.5152 83.2596 72.5829 82.9457 72.7183C82.6348 72.8537 82.3917 73.0399 82.2163 73.2769C82.0439 73.5139 81.9578 73.7832 81.9578 74.0848C81.9578 74.3372 82.0178 74.5541 82.1378 74.7357C82.2609 74.9142 82.4179 75.0635 82.6087 75.1835C82.7995 75.3005 82.9995 75.3974 83.2088 75.4744C83.4181 75.5482 83.6105 75.6082 83.7859 75.6544L84.7461 75.9129C84.9923 75.9775 85.2662 76.0668 85.5678 76.1807C85.8725 76.2945 86.1634 76.45 86.4404 76.6469C86.7204 76.8408 86.9512 77.0901 87.1328 77.3948C87.3144 77.6995 87.4052 78.0734 87.4052 78.5166C87.4052 79.0275 87.2713 79.4892 87.0036 79.9016C86.7389 80.314 86.3511 80.6417 85.8402 80.8849C85.3324 81.128 84.7153 81.2496 83.989 81.2496C83.3119 81.2496 82.7256 81.1403 82.2301 80.9218C81.7377 80.7033 81.3499 80.3986 81.0668 80.0077C80.7867 79.6169 80.6282 79.1629 80.5913 78.6459H81.7731C81.8039 79.0029 81.9239 79.2983 82.1332 79.5322C82.3455 79.7631 82.6133 79.9354 82.9364 80.0493C83.2627 80.1601 83.6135 80.2155 83.989 80.2155C84.426 80.2155 84.8184 80.1447 85.1662 80.0031C85.514 79.8585 85.7894 79.6584 85.9926 79.403C86.1957 79.1445 86.2972 78.8428 86.2972 78.4981C86.2972 78.1842 86.2095 77.9288 86.0341 77.7318C85.8587 77.5348 85.6279 77.3748 85.3416 77.2517C85.0554 77.1286 84.7461 77.0209 84.4137 76.9285L83.2504 76.5962C82.5117 76.3838 81.927 76.0807 81.4961 75.6867C81.0652 75.2928 80.8498 74.7773 80.8498 74.1402C80.8498 73.6108 80.9929 73.1492 81.2791 72.7552C81.5684 72.3582 81.9562 72.0505 82.4425 71.832C82.9318 71.6104 83.4781 71.4996 84.0813 71.4996C84.6907 71.4996 85.2324 71.6088 85.7063 71.8273C86.1803 72.0428 86.5558 72.3382 86.8328 72.7137C87.1128 73.0892 87.2605 73.5154 87.2759 73.9925H86.168ZM92.1129 81.2311C91.4296 81.2311 90.8402 81.0803 90.3447 80.7787C89.8523 80.474 89.4722 80.0493 89.2045 79.5045C88.9398 78.9567 88.8075 78.3196 88.8075 77.5933C88.8075 76.867 88.9398 76.2268 89.2045 75.6729C89.4722 75.1158 89.8446 74.6819 90.3217 74.371C90.8018 74.0571 91.3619 73.9001 92.0021 73.9001C92.3714 73.9001 92.7361 73.9617 93.0962 74.0848C93.4562 74.2079 93.784 74.4079 94.0795 74.6849C94.3749 74.9588 94.6104 75.322 94.7858 75.7744C94.9612 76.2268 95.0489 76.7839 95.0489 77.4456V77.9072H89.583V76.9655H93.941C93.941 76.5654 93.861 76.2084 93.7009 75.8945C93.544 75.5805 93.3193 75.3328 93.0269 75.1512C92.7376 74.9696 92.396 74.8788 92.0021 74.8788C91.5681 74.8788 91.1926 74.9865 90.8756 75.202C90.5617 75.4143 90.3201 75.6913 90.1508 76.0329C89.9816 76.3746 89.8969 76.7408 89.8969 77.1317V77.7595C89.8969 78.295 89.9893 78.749 90.1739 79.1214C90.3617 79.4907 90.6217 79.7723 90.9541 79.9662C91.2865 80.157 91.6727 80.2524 92.1129 80.2524C92.3991 80.2524 92.6576 80.2124 92.8884 80.1324C93.1223 80.0493 93.3239 79.9262 93.4932 79.7631C93.6624 79.5969 93.7932 79.3907 93.8856 79.1445L94.9381 79.4399C94.8273 79.7969 94.6411 80.1108 94.3795 80.3817C94.1179 80.6494 93.7948 80.8587 93.4101 81.0095C93.0254 81.1572 92.593 81.2311 92.1129 81.2311ZM96.7062 81.0834V73.9925H97.7588V75.0635H97.8327C97.9619 74.7126 98.1958 74.428 98.5344 74.2094C98.8729 73.9909 99.2545 73.8817 99.6793 73.8817C99.7593 73.8817 99.8593 73.8832 99.9793 73.8863C100.099 73.8894 100.19 73.894 100.252 73.9001V75.0081C100.215 74.9989 100.13 74.985 99.9978 74.9665C99.8685 74.945 99.7316 74.9342 99.5869 74.9342C99.2422 74.9342 98.9345 75.0066 98.6636 75.1512C98.3959 75.2928 98.1835 75.4897 98.0266 75.7421C97.8727 75.9914 97.7957 76.2761 97.7957 76.5962V81.0834H96.7062ZM107.557 73.9925L104.935 81.0834H103.827L101.205 73.9925H102.387L104.344 79.643H104.418L106.375 73.9925H107.557ZM111.714 81.2311C111.031 81.2311 110.442 81.0803 109.946 80.7787C109.454 80.474 109.074 80.0493 108.806 79.5045C108.541 78.9567 108.409 78.3196 108.409 77.5933C108.409 76.867 108.541 76.2268 108.806 75.6729C109.074 75.1158 109.446 74.6819 109.923 74.371C110.403 74.0571 110.963 73.9001 111.604 73.9001C111.973 73.9001 112.338 73.9617 112.698 74.0848C113.058 74.2079 113.385 74.4079 113.681 74.6849C113.976 74.9588 114.212 75.322 114.387 75.7744C114.563 76.2268 114.65 76.7839 114.65 77.4456V77.9072H109.184V76.9655H113.542C113.542 76.5654 113.462 76.2084 113.302 75.8945C113.145 75.5805 112.921 75.3328 112.628 75.1512C112.339 74.9696 111.997 74.8788 111.604 74.8788C111.17 74.8788 110.794 74.9865 110.477 75.202C110.163 75.4143 109.922 75.6913 109.752 76.0329C109.583 76.3746 109.498 76.7408 109.498 77.1317V77.7595C109.498 78.295 109.591 78.749 109.775 79.1214C109.963 79.4907 110.223 79.7723 110.556 79.9662C110.888 80.157 111.274 80.2524 111.714 80.2524C112.001 80.2524 112.259 80.2124 112.49 80.1324C112.724 80.0493 112.925 79.9262 113.095 79.7631C113.264 79.5969 113.395 79.3907 113.487 79.1445L114.54 79.4399C114.429 79.7969 114.243 80.1108 113.981 80.3817C113.719 80.6494 113.396 80.8587 113.012 81.0095C112.627 81.1572 112.194 81.2311 111.714 81.2311ZM116.308 81.0834V73.9925H117.36V75.0635H117.434C117.563 74.7126 117.797 74.428 118.136 74.2094C118.474 73.9909 118.856 73.8817 119.281 73.8817C119.361 73.8817 119.461 73.8832 119.581 73.8863C119.701 73.8894 119.792 73.894 119.853 73.9001V75.0081C119.816 74.9989 119.732 74.985 119.599 74.9665C119.47 74.945 119.333 74.9342 119.188 74.9342C118.844 74.9342 118.536 75.0066 118.265 75.1512C117.997 75.2928 117.785 75.4897 117.628 75.7421C117.474 75.9914 117.397 76.2761 117.397 76.5962V81.0834H116.308Z" fill="black"/>
<path d="M164.584 95.8334H35.4167V152.083H164.584V95.8334Z" fill="#D7D7D7"/>
<path d="M85.2086 112.75H84.0637C83.996 112.421 83.8775 112.131 83.7083 111.882C83.5421 111.633 83.339 111.424 83.0989 111.254C82.8619 111.082 82.5988 110.953 82.3095 110.867C82.0202 110.78 81.7186 110.737 81.4047 110.737C80.8322 110.737 80.3136 110.882 79.8489 111.171C79.3873 111.461 79.0195 111.887 78.7456 112.45C78.4747 113.013 78.3393 113.704 78.3393 114.523C78.3393 115.341 78.4747 116.032 78.7456 116.596C79.0195 117.159 79.3873 117.585 79.8489 117.874C80.3136 118.164 80.8322 118.308 81.4047 118.308C81.7186 118.308 82.0202 118.265 82.3095 118.179C82.5988 118.093 82.8619 117.965 83.0989 117.796C83.339 117.624 83.5421 117.413 83.7083 117.163C83.8775 116.911 83.996 116.622 84.0637 116.296H85.2086C85.1225 116.779 84.9655 117.211 84.7378 117.593C84.51 117.974 84.2269 118.299 83.8883 118.567C83.5498 118.832 83.1697 119.033 82.7481 119.172C82.3295 119.31 81.8817 119.379 81.4047 119.379C80.5983 119.379 79.8812 119.182 79.2534 118.788C78.6255 118.394 78.1316 117.834 77.7715 117.108C77.4114 116.382 77.2314 115.52 77.2314 114.523C77.2314 113.526 77.4114 112.664 77.7715 111.938C78.1316 111.211 78.6255 110.651 79.2534 110.257C79.8812 109.863 80.5983 109.666 81.4047 109.666C81.8817 109.666 82.3295 109.736 82.7481 109.874C83.1697 110.012 83.5498 110.216 83.8883 110.483C84.2269 110.748 84.51 111.071 84.7378 111.453C84.9655 111.831 85.1225 112.264 85.2086 112.75ZM89.7916 119.398C89.1515 119.398 88.5898 119.245 88.1066 118.941C87.6265 118.636 87.251 118.21 86.9802 117.662C86.7125 117.114 86.5786 116.474 86.5786 115.742C86.5786 115.003 86.7125 114.358 86.9802 113.807C87.251 113.256 87.6265 112.829 88.1066 112.524C88.5898 112.219 89.1515 112.067 89.7916 112.067C90.4318 112.067 90.9919 112.219 91.472 112.524C91.9552 112.829 92.3307 113.256 92.5985 113.807C92.8693 114.358 93.0047 115.003 93.0047 115.742C93.0047 116.474 92.8693 117.114 92.5985 117.662C92.3307 118.21 91.9552 118.636 91.472 118.941C90.9919 119.245 90.4318 119.398 89.7916 119.398ZM89.7916 118.419C90.2779 118.419 90.678 118.294 90.9919 118.045C91.3058 117.796 91.5382 117.468 91.689 117.062C91.8398 116.656 91.9152 116.215 91.9152 115.742C91.9152 115.268 91.8398 114.826 91.689 114.417C91.5382 114.007 91.3058 113.676 90.9919 113.424C90.678 113.172 90.2779 113.046 89.7916 113.046C89.3054 113.046 88.9053 113.172 88.5914 113.424C88.2774 113.676 88.0451 114.007 87.8943 114.417C87.7435 114.826 87.6681 115.268 87.6681 115.742C87.6681 116.215 87.7435 116.656 87.8943 117.062C88.0451 117.468 88.2774 117.796 88.5914 118.045C88.9053 118.294 89.3054 118.419 89.7916 118.419ZM95.7573 114.984V119.25H94.6678V112.159H95.7204V113.267H95.8127C95.9789 112.907 96.2312 112.618 96.5698 112.399C96.9083 112.178 97.3454 112.067 97.8809 112.067C98.361 112.067 98.7811 112.165 99.1412 112.362C99.5012 112.556 99.7813 112.852 99.9814 113.249C100.182 113.643 100.282 114.141 100.282 114.744V119.25H99.1919V114.818C99.1919 114.261 99.0473 113.827 98.758 113.516C98.4687 113.202 98.0717 113.046 97.5669 113.046C97.2192 113.046 96.9083 113.121 96.6344 113.272C96.3636 113.423 96.1497 113.643 95.9927 113.932C95.8358 114.221 95.7573 114.572 95.7573 114.984ZM105.356 112.159V113.082H101.681V112.159H105.356ZM102.753 110.46H103.842V117.219C103.842 117.527 103.887 117.757 103.976 117.911C104.068 118.062 104.185 118.164 104.327 118.216C104.471 118.265 104.624 118.29 104.784 118.29C104.904 118.29 105.002 118.284 105.079 118.271C105.156 118.256 105.218 118.244 105.264 118.234L105.485 119.213C105.412 119.241 105.308 119.269 105.176 119.296C105.044 119.327 104.876 119.342 104.673 119.342C104.365 119.342 104.064 119.276 103.768 119.144C103.476 119.012 103.233 118.81 103.039 118.539C102.848 118.268 102.753 117.927 102.753 117.514V110.46ZM106.995 119.25V112.159H108.048V113.23H108.121C108.251 112.879 108.485 112.595 108.823 112.376C109.162 112.158 109.543 112.048 109.968 112.048C110.048 112.048 110.148 112.05 110.268 112.053C110.388 112.056 110.479 112.061 110.54 112.067V113.175C110.504 113.166 110.419 113.152 110.287 113.133C110.157 113.112 110.02 113.101 109.876 113.101C109.531 113.101 109.223 113.173 108.952 113.318C108.685 113.459 108.472 113.656 108.315 113.909C108.161 114.158 108.085 114.443 108.085 114.763V119.25H106.995ZM114.497 119.398C113.857 119.398 113.295 119.245 112.812 118.941C112.332 118.636 111.956 118.21 111.685 117.662C111.418 117.114 111.284 116.474 111.284 115.742C111.284 115.003 111.418 114.358 111.685 113.807C111.956 113.256 112.332 112.829 112.812 112.524C113.295 112.219 113.857 112.067 114.497 112.067C115.137 112.067 115.697 112.219 116.177 112.524C116.66 112.829 117.036 113.256 117.304 113.807C117.574 114.358 117.71 115.003 117.71 115.742C117.71 116.474 117.574 117.114 117.304 117.662C117.036 118.21 116.66 118.636 116.177 118.941C115.697 119.245 115.137 119.398 114.497 119.398ZM114.497 118.419C114.983 118.419 115.383 118.294 115.697 118.045C116.011 117.796 116.243 117.468 116.394 117.062C116.545 116.656 116.62 116.215 116.62 115.742C116.62 115.268 116.545 114.826 116.394 114.417C116.243 114.007 116.011 113.676 115.697 113.424C115.383 113.172 114.983 113.046 114.497 113.046C114.011 113.046 113.61 113.172 113.297 113.424C112.983 113.676 112.75 114.007 112.599 114.417C112.449 114.826 112.373 115.268 112.373 115.742C112.373 116.215 112.449 116.656 112.599 117.062C112.75 117.468 112.983 117.796 113.297 118.045C113.61 118.294 114.011 118.419 114.497 118.419ZM120.462 109.796V119.25H119.373V109.796H120.462ZM83.1866 135.25V125.796H86.3812C87.1229 125.796 87.7292 125.929 88.2001 126.197C88.6741 126.462 89.0249 126.82 89.2527 127.273C89.4804 127.725 89.5943 128.23 89.5943 128.787C89.5943 129.344 89.4804 129.85 89.2527 130.306C89.028 130.761 88.6802 131.124 88.2093 131.395C87.7385 131.663 87.1352 131.797 86.3997 131.797H84.1099V130.781H86.3628C86.8706 130.781 87.2784 130.694 87.5861 130.518C87.8939 130.343 88.117 130.106 88.2555 129.807C88.3971 129.506 88.4679 129.166 88.4679 128.787C88.4679 128.408 88.3971 128.07 88.2555 127.771C88.117 127.473 87.8923 127.239 87.5815 127.07C87.2707 126.897 86.8583 126.811 86.3443 126.811H84.3315V135.25H83.1866ZM92.3803 125.796V135.25H91.2908V125.796H92.3803ZM96.4625 135.416C96.0131 135.416 95.6053 135.332 95.2391 135.162C94.8728 134.99 94.582 134.742 94.3666 134.419C94.1511 134.093 94.0434 133.699 94.0434 133.237C94.0434 132.831 94.1234 132.502 94.2835 132.249C94.4435 131.994 94.6574 131.794 94.9252 131.649C95.1929 131.505 95.4884 131.397 95.8115 131.326C96.1378 131.252 96.4655 131.194 96.7948 131.151C97.2257 131.095 97.575 131.054 97.8428 131.026C98.1136 130.995 98.3106 130.944 98.4337 130.874C98.5599 130.803 98.623 130.68 98.623 130.504V130.467C98.623 130.012 98.4983 129.658 98.249 129.406C98.0028 129.153 97.6289 129.027 97.1272 129.027C96.6071 129.027 96.1993 129.141 95.9039 129.369C95.6084 129.596 95.4007 129.84 95.2806 130.098L94.2465 129.729C94.4312 129.298 94.6774 128.962 94.9852 128.722C95.296 128.479 95.6346 128.31 96.0008 128.215C96.3701 128.116 96.7333 128.067 97.0903 128.067C97.318 128.067 97.5796 128.095 97.8751 128.15C98.1736 128.202 98.4614 128.311 98.7384 128.478C99.0184 128.644 99.2508 128.895 99.4355 129.23C99.6201 129.566 99.7125 130.015 99.7125 130.578V135.25H98.623V134.29H98.5676C98.4937 134.444 98.3706 134.608 98.1982 134.784C98.0259 134.959 97.7966 135.108 97.5104 135.232C97.2242 135.355 96.8749 135.416 96.4625 135.416ZM96.6286 134.438C97.0595 134.438 97.4227 134.353 97.7181 134.184C98.0167 134.014 98.2413 133.796 98.3921 133.528C98.546 133.26 98.623 132.979 98.623 132.683V131.686C98.5768 131.742 98.4752 131.792 98.3183 131.838C98.1644 131.882 97.9859 131.92 97.7828 131.954C97.5827 131.985 97.3873 132.012 97.1965 132.037C97.0087 132.059 96.8564 132.077 96.7394 132.092C96.4563 132.129 96.1916 132.189 95.9454 132.272C95.7023 132.352 95.5053 132.474 95.3545 132.637C95.2068 132.797 95.1329 133.016 95.1329 133.293C95.1329 133.671 95.2729 133.957 95.553 134.151C95.8361 134.342 96.1947 134.438 96.6286 134.438ZM102.791 130.984V135.25H101.701V128.159H102.754V129.267H102.846C103.012 128.907 103.265 128.618 103.603 128.399C103.942 128.178 104.379 128.067 104.914 128.067C105.394 128.067 105.814 128.165 106.174 128.362C106.535 128.556 106.815 128.852 107.015 129.249C107.215 129.643 107.315 130.141 107.315 130.744V135.25H106.225V130.818C106.225 130.261 106.081 129.827 105.791 129.516C105.502 129.202 105.105 129.046 104.6 129.046C104.252 129.046 103.942 129.121 103.668 129.272C103.397 129.423 103.183 129.643 103.026 129.932C102.869 130.221 102.791 130.572 102.791 130.984ZM112.279 135.398C111.595 135.398 111.006 135.247 110.51 134.945C110.018 134.641 109.638 134.216 109.37 133.671C109.106 133.123 108.973 132.486 108.973 131.76C108.973 131.034 109.106 130.394 109.37 129.84C109.638 129.282 110.01 128.849 110.487 128.538C110.968 128.224 111.528 128.067 112.168 128.067C112.537 128.067 112.902 128.128 113.262 128.251C113.622 128.375 113.95 128.575 114.245 128.852C114.541 129.126 114.776 129.489 114.952 129.941C115.127 130.394 115.215 130.951 115.215 131.612V132.074H109.749V131.132H114.107C114.107 130.732 114.027 130.375 113.867 130.061C113.71 129.747 113.485 129.499 113.193 129.318C112.903 129.136 112.562 129.046 112.168 129.046C111.734 129.046 111.358 129.153 111.041 129.369C110.727 129.581 110.486 129.858 110.317 130.2C110.147 130.541 110.063 130.907 110.063 131.298V131.926C110.063 132.462 110.155 132.916 110.34 133.288C110.527 133.657 110.787 133.939 111.12 134.133C111.452 134.324 111.838 134.419 112.279 134.419C112.565 134.419 112.823 134.379 113.054 134.299C113.288 134.216 113.49 134.093 113.659 133.93C113.828 133.764 113.959 133.557 114.051 133.311L115.104 133.607C114.993 133.964 114.807 134.278 114.545 134.548C114.284 134.816 113.961 135.025 113.576 135.176C113.191 135.324 112.759 135.398 112.279 135.398Z" fill="black"/>
<path d="M35.4167 152.083H164.583V203.25C164.583 204.907 163.24 206.25 161.583 206.25H38.4167C36.7598 206.25 35.4167 204.907 35.4167 203.25V152.083Z" fill="#BFBFBF"/>
<path d="M88.6625 175.5H85.7449V166.046H88.7918C89.7089 166.046 90.4937 166.235 91.1462 166.613C91.7987 166.989 92.2988 167.529 92.6466 168.234C92.9943 168.935 93.1682 169.776 93.1682 170.754C93.1682 171.739 92.9928 172.587 92.6419 173.298C92.2911 174.006 91.7802 174.551 91.1093 174.932C90.4383 175.311 89.6228 175.5 88.6625 175.5ZM86.8898 174.484H88.5887C89.3704 174.484 90.0182 174.334 90.5322 174.032C91.0462 173.73 91.4293 173.301 91.6817 172.744C91.9341 172.187 92.0603 171.524 92.0603 170.754C92.0603 169.991 91.9356 169.334 91.6863 168.783C91.437 168.229 91.0646 167.804 90.5691 167.509C90.0736 167.21 89.4566 167.061 88.7179 167.061H86.8898V174.484ZM97.0276 175.666C96.5783 175.666 96.1705 175.582 95.8042 175.412C95.438 175.24 95.1471 174.992 94.9317 174.669C94.7163 174.343 94.6086 173.949 94.6086 173.487C94.6086 173.081 94.6886 172.752 94.8486 172.499C95.0087 172.244 95.2225 172.044 95.4903 171.899C95.7581 171.755 96.0535 171.647 96.3767 171.576C96.7029 171.502 97.0307 171.444 97.36 171.401C97.7908 171.345 98.1402 171.304 98.4079 171.276C98.6788 171.245 98.8757 171.194 98.9988 171.124C99.125 171.053 99.1881 170.93 99.1881 170.754V170.717C99.1881 170.262 99.0635 169.908 98.8142 169.656C98.568 169.403 98.194 169.277 97.6924 169.277C97.1722 169.277 96.7645 169.391 96.469 169.619C96.1735 169.846 95.9658 170.09 95.8458 170.348L94.8117 169.979C94.9963 169.548 95.2426 169.212 95.5503 168.972C95.8612 168.729 96.1997 168.56 96.5659 168.465C96.9353 168.366 97.2984 168.317 97.6554 168.317C97.8832 168.317 98.1448 168.345 98.4402 168.4C98.7388 168.452 99.0265 168.561 99.3035 168.728C99.5836 168.894 99.8159 169.145 100.001 169.48C100.185 169.816 100.277 170.265 100.277 170.828V175.5H99.1881V174.54H99.1327C99.0588 174.694 98.9357 174.858 98.7634 175.034C98.591 175.209 98.3618 175.358 98.0755 175.482C97.7893 175.605 97.44 175.666 97.0276 175.666ZM97.1938 174.688C97.6247 174.688 97.9878 174.603 98.2833 174.434C98.5818 174.264 98.8065 174.046 98.9573 173.778C99.1112 173.51 99.1881 173.229 99.1881 172.933V171.936C99.1419 171.992 99.0404 172.042 98.8834 172.088C98.7295 172.132 98.551 172.17 98.3479 172.204C98.1479 172.235 97.9524 172.262 97.7616 172.287C97.5739 172.309 97.4215 172.327 97.3046 172.342C97.0214 172.379 96.7568 172.439 96.5105 172.522C96.2674 172.602 96.0704 172.724 95.9196 172.887C95.7719 173.047 95.698 173.266 95.698 173.543C95.698 173.921 95.8381 174.207 96.1181 174.401C96.4013 174.592 96.7598 174.688 97.1938 174.688ZM105.35 168.409V169.332H101.675V168.409H105.35ZM102.746 166.71H103.836V173.469C103.836 173.777 103.88 174.007 103.97 174.161C104.062 174.312 104.179 174.414 104.32 174.466C104.465 174.515 104.617 174.54 104.777 174.54C104.897 174.54 104.996 174.534 105.073 174.521C105.15 174.506 105.211 174.494 105.258 174.484L105.479 175.463C105.405 175.491 105.302 175.519 105.17 175.546C105.037 175.577 104.87 175.592 104.667 175.592C104.359 175.592 104.057 175.526 103.762 175.394C103.469 175.262 103.226 175.06 103.032 174.789C102.842 174.518 102.746 174.177 102.746 173.764V166.71ZM109.075 175.666C108.626 175.666 108.218 175.582 107.852 175.412C107.486 175.24 107.195 174.992 106.979 174.669C106.764 174.343 106.656 173.949 106.656 173.487C106.656 173.081 106.736 172.752 106.896 172.499C107.056 172.244 107.27 172.044 107.538 171.899C107.806 171.755 108.101 171.647 108.424 171.576C108.751 171.502 109.078 171.444 109.408 171.401C109.839 171.345 110.188 171.304 110.456 171.276C110.727 171.245 110.923 171.194 111.047 171.124C111.173 171.053 111.236 170.93 111.236 170.754V170.717C111.236 170.262 111.111 169.908 110.862 169.656C110.616 169.403 110.242 169.277 109.74 169.277C109.22 169.277 108.812 169.391 108.517 169.619C108.221 169.846 108.014 170.09 107.894 170.348L106.859 169.979C107.044 169.548 107.29 169.212 107.598 168.972C107.909 168.729 108.247 168.56 108.614 168.465C108.983 168.366 109.346 168.317 109.703 168.317C109.931 168.317 110.193 168.345 110.488 168.4C110.787 168.452 111.074 168.561 111.351 168.728C111.631 168.894 111.864 169.145 112.048 169.48C112.233 169.816 112.325 170.265 112.325 170.828V175.5H111.236V174.54H111.18C111.107 174.694 110.983 174.858 110.811 175.034C110.639 175.209 110.41 175.358 110.123 175.482C109.837 175.605 109.488 175.666 109.075 175.666ZM109.242 174.688C109.672 174.688 110.036 174.603 110.331 174.434C110.63 174.264 110.854 174.046 111.005 173.778C111.159 173.51 111.236 173.229 111.236 172.933V171.936C111.19 171.992 111.088 172.042 110.931 172.088C110.777 172.132 110.599 172.17 110.396 172.204C110.196 172.235 110 172.262 109.809 172.287C109.622 172.309 109.469 172.327 109.352 172.342C109.069 172.379 108.805 172.439 108.558 172.522C108.315 172.602 108.118 172.724 107.967 172.887C107.82 173.047 107.746 173.266 107.746 173.543C107.746 173.921 107.886 174.207 108.166 174.401C108.449 174.592 108.808 174.688 109.242 174.688ZM83.1868 191.5V182.046H86.3814C87.1231 182.046 87.7294 182.179 88.2003 182.447C88.6743 182.712 89.0251 183.07 89.2529 183.523C89.4806 183.975 89.5945 184.48 89.5945 185.037C89.5945 185.594 89.4806 186.1 89.2529 186.556C89.0282 187.011 88.6804 187.374 88.2095 187.645C87.7387 187.913 87.1354 188.047 86.3999 188.047H84.1101V187.031H86.363C86.8708 187.031 87.2786 186.944 87.5863 186.768C87.8941 186.593 88.1172 186.356 88.2557 186.057C88.3973 185.756 88.4681 185.416 88.4681 185.037C88.4681 184.658 88.3973 184.32 88.2557 184.021C88.1172 183.723 87.8925 183.489 87.5817 183.32C87.2709 183.147 86.8585 183.061 86.3445 183.061H84.3317V191.5H83.1868ZM92.3805 182.046V191.5H91.291V182.046H92.3805ZM96.4627 191.666C96.0133 191.666 95.6055 191.582 95.2393 191.412C94.873 191.24 94.5822 190.992 94.3668 190.669C94.1513 190.343 94.0436 189.949 94.0436 189.487C94.0436 189.081 94.1236 188.752 94.2837 188.499C94.4437 188.244 94.6576 188.044 94.9254 187.899C95.1931 187.755 95.4886 187.647 95.8117 187.576C96.138 187.502 96.4657 187.444 96.795 187.401C97.2259 187.345 97.5752 187.304 97.843 187.276C98.1138 187.245 98.3108 187.194 98.4339 187.124C98.5601 187.053 98.6232 186.93 98.6232 186.754V186.717C98.6232 186.262 98.4985 185.908 98.2492 185.656C98.003 185.403 97.6291 185.277 97.1274 185.277C96.6073 185.277 96.1995 185.391 95.9041 185.619C95.6086 185.846 95.4009 186.09 95.2808 186.348L94.2467 185.979C94.4314 185.548 94.6776 185.212 94.9854 184.972C95.2962 184.729 95.6348 184.56 96.001 184.465C96.3703 184.366 96.7335 184.317 97.0905 184.317C97.3182 184.317 97.5798 184.345 97.8753 184.4C98.1738 184.452 98.4616 184.561 98.7386 184.728C99.0186 184.894 99.251 185.145 99.4357 185.48C99.6203 185.816 99.7127 186.265 99.7127 186.828V191.5H98.6232V190.54H98.5678C98.4939 190.694 98.3708 190.858 98.1984 191.034C98.0261 191.209 97.7968 191.358 97.5106 191.482C97.2244 191.605 96.8751 191.666 96.4627 191.666ZM96.6288 190.688C97.0597 190.688 97.4229 190.603 97.7183 190.434C98.0169 190.264 98.2415 190.046 98.3923 189.778C98.5462 189.51 98.6232 189.229 98.6232 188.933V187.936C98.577 187.992 98.4754 188.042 98.3185 188.088C98.1646 188.132 97.9861 188.17 97.783 188.204C97.5829 188.235 97.3875 188.262 97.1967 188.287C97.0089 188.309 96.8566 188.327 96.7396 188.342C96.4565 188.379 96.1918 188.439 95.9456 188.522C95.7025 188.602 95.5055 188.724 95.3547 188.887C95.207 189.047 95.1331 189.266 95.1331 189.543C95.1331 189.921 95.2731 190.207 95.5532 190.401C95.8363 190.592 96.1949 190.688 96.6288 190.688ZM102.791 187.234V191.5H101.701V184.409H102.754V185.517H102.846C103.012 185.157 103.265 184.868 103.603 184.649C103.942 184.428 104.379 184.317 104.914 184.317C105.394 184.317 105.814 184.415 106.174 184.612C106.535 184.806 106.815 185.102 107.015 185.499C107.215 185.893 107.315 186.391 107.315 186.994V191.5H106.225V187.068C106.225 186.511 106.081 186.077 105.791 185.766C105.502 185.452 105.105 185.296 104.6 185.296C104.252 185.296 103.942 185.371 103.668 185.522C103.397 185.673 103.183 185.893 103.026 186.182C102.869 186.471 102.791 186.822 102.791 187.234ZM112.279 191.648C111.595 191.648 111.006 191.497 110.51 191.195C110.018 190.891 109.638 190.466 109.37 189.921C109.106 189.373 108.973 188.736 108.973 188.01C108.973 187.284 109.106 186.644 109.37 186.09C109.638 185.532 110.01 185.099 110.487 184.788C110.968 184.474 111.528 184.317 112.168 184.317C112.537 184.317 112.902 184.378 113.262 184.501C113.622 184.625 113.95 184.825 114.245 185.102C114.541 185.376 114.776 185.739 114.952 186.191C115.127 186.644 115.215 187.201 115.215 187.862V188.324H109.749V187.382H114.107C114.107 186.982 114.027 186.625 113.867 186.311C113.71 185.997 113.485 185.749 113.193 185.568C112.903 185.386 112.562 185.296 112.168 185.296C111.734 185.296 111.358 185.403 111.041 185.619C110.727 185.831 110.486 186.108 110.317 186.45C110.147 186.791 110.063 187.157 110.063 187.548V188.176C110.063 188.712 110.155 189.166 110.34 189.538C110.527 189.907 110.787 190.189 111.12 190.383C111.452 190.574 111.838 190.669 112.279 190.669C112.565 190.669 112.823 190.629 113.054 190.549C113.288 190.466 113.49 190.343 113.659 190.18C113.828 190.014 113.959 189.807 114.051 189.561L115.104 189.857C114.993 190.214 114.807 190.528 114.545 190.798C114.284 191.066 113.961 191.275 113.576 191.426C113.191 191.574 112.759 191.648 112.279 191.648Z" fill="black"/>
</g>
<defs>
<clipPath id="clip0_2010_382">
<rect width="200" height="248" fill="white"/>
</clipPath>
</defs>
</svg>
